<svg width="19" height="23" viewBox="0 0 19 23" fill="none" xmlns="http://www.w3.org/2000/svg">
<path d="M13.6652 0C13.7182 0 13.7712 0 13.8272 0C13.9572 1.606 13.3442 2.806 12.5992 3.675C11.8682 4.538 10.8672 5.375 9.24822 5.248C9.14022 3.665 9.75422 2.554 10.4982 1.687C11.1882 0.879 12.4532 0.16 13.6652 0Z" fill="#01063B"/>
<path d="M18.566 16.716C18.566 16.732 18.566 16.746 18.566 16.761C18.111 18.139 17.462 19.32 16.67 20.416C15.947 21.411 15.061 22.75 13.479 22.75C12.112 22.75 11.204 21.871 9.803 21.847C8.321 21.823 7.506 22.582 6.151 22.773C5.996 22.773 5.841 22.773 5.689 22.773C4.694 22.629 3.891 21.841 3.306 21.131C1.581 19.033 0.248 16.323 0 12.855C0 12.515 0 12.176 0 11.836C0.105 9.35396 1.311 7.33596 2.914 6.35796C3.76 5.83796 4.923 5.39496 6.218 5.59296C6.773 5.67896 7.34 5.86896 7.837 6.05696C8.308 6.23796 8.897 6.55896 9.455 6.54196C9.833 6.53096 10.209 6.33396 10.59 6.19496C11.706 5.79196 12.8 5.32996 14.242 5.54696C15.975 5.80896 17.205 6.57896 17.965 7.76696C16.499 8.69996 15.34 10.106 15.538 12.507C15.714 14.688 16.982 15.964 18.566 16.716Z" fill="#01063B"/>
</svg>
