<svg width="17" height="16" viewBox="0 0 17 16" fill="none" xmlns="http://www.w3.org/2000/svg">
<path d="M4.2286 7.3171L15.6654 0.700094C15.887 0.572165 16.1572 0.575106 16.3759 0.705976C16.5961 0.838316 16.7305 1.07947 16.7305 1.34121V14.5752C16.7305 14.837 16.5961 15.0781 16.3759 15.2104C16.2644 15.2766 16.14 15.3104 16.0157 15.3104C15.8956 15.3104 15.7741 15.2796 15.6654 15.2163L4.2286 8.59933C4.00415 8.46846 3.86405 8.22436 3.86405 7.95821C3.86405 7.69206 4.00415 7.44797 4.2286 7.3171Z" fill="white"/>
<rect width="1.83806" height="14.7045" rx="0.91903" transform="matrix(-1 0 0 1 2.02734 0.605957)" fill="white"/>
</svg>
