<svg width="14" height="15" viewBox="0 0 14 15" fill="none" xmlns="http://www.w3.org/2000/svg">
<path d="M13.2816 6.71864C13.0228 6.71864 12.8128 6.50864 12.8128 6.24989C12.8128 4.45488 12.1141 2.76802 10.8453 1.49864C10.6622 1.31554 10.6622 1.01868 10.8453 0.835571C11.0284 0.652466 11.3253 0.652466 11.5085 0.835571C12.9541 2.28176 13.7503 4.20494 13.7503 6.24989C13.7503 6.50864 13.5403 6.71864 13.2816 6.71864Z" fill="#000428"/>
<path d="M0.46875 6.71855C0.209999 6.71855 0 6.50855 0 6.2498C0 4.20486 0.79628 2.28168 2.24247 0.83606C2.42558 0.652954 2.72255 0.652954 2.90566 0.83606C3.08876 1.01917 3.08876 1.31614 2.90566 1.49924C1.63628 2.76794 0.9375 4.4548 0.9375 6.2498C0.9375 6.50855 0.727501 6.71855 0.46875 6.71855Z" fill="#000428"/>
<path d="M6.875 15C5.5825 15 4.53125 13.9487 4.53125 12.6562C4.53125 12.3975 4.74125 12.1875 5 12.1875C5.25875 12.1875 5.46875 12.3975 5.46875 12.6562C5.46875 13.4319 6.09932 14.0625 6.875 14.0625C7.65057 14.0625 8.28125 13.4319 8.28125 12.6562C8.28125 12.3975 8.49125 12.1875 8.75 12.1875C9.00875 12.1875 9.21875 12.3975 9.21875 12.6562C9.21875 13.9487 8.1675 15 6.875 15Z" fill="#000428"/>
<path d="M12.0313 13.125H1.71883C1.11561 13.125 0.625 12.6344 0.625 12.0313C0.625 11.7112 0.764389 11.4082 1.00758 11.2C1.95812 10.3968 2.5 9.22943 2.5 7.99255V6.24996C2.5 3.83755 4.46255 1.875 6.87508 1.875C9.28749 1.875 11.25 3.83755 11.25 6.24996V7.99255C11.25 9.22943 11.7919 10.3968 12.7363 11.1956C12.9856 11.4082 13.125 11.7112 13.125 12.0313C13.125 12.6344 12.6344 13.125 12.0313 13.125ZM6.87508 2.8125C4.97936 2.8125 3.4375 4.35436 3.4375 6.24996V7.99255C3.4375 9.50558 2.77443 10.9344 1.6188 11.9112C1.59695 11.93 1.5625 11.9688 1.5625 12.0313C1.5625 12.1162 1.6338 12.1875 1.71883 12.1875H12.0313C12.1162 12.1875 12.1875 12.1162 12.1875 12.0313C12.1875 11.9688 12.1532 11.93 12.1325 11.9125C10.9756 10.9344 10.3125 9.50558 10.3125 7.99255V6.24996C10.3125 4.35436 8.77068 2.8125 6.87508 2.8125Z" fill="#000428"/>
<path d="M6.875 2.8125C6.61625 2.8125 6.40625 2.6025 6.40625 2.34375V0.46875C6.40625 0.209999 6.61625 0 6.875 0C7.13375 0 7.34375 0.209999 7.34375 0.46875V2.34375C7.34375 2.6025 7.13375 2.8125 6.875 2.8125Z" fill="#000428"/>
</svg>
