<svg width="20" height="22" viewBox="0 0 20 22" fill="none" xmlns="http://www.w3.org/2000/svg">
<path d="M3.5 21.8333H19.75V19.6666H3.513C3.0125 19.6536 2.41667 19.4554 2.41667 18.5833C2.41667 17.7112 3.0125 17.513 3.513 17.5H19.75V2.33329C19.75 1.13838 18.7783 0.166626 17.5833 0.166626H3.5C2.1935 0.166626 0.25 1.03221 0.25 3.41663V18.5833C0.25 20.9677 2.1935 21.8333 3.5 21.8333ZM2.41667 6.66663V3.41663C2.41667 2.54454 3.0125 2.34629 3.5 2.33329H17.5833V15.3333H2.41667V6.66663Z" fill="white" fill-opacity="0.6"/>
<path d="M8.91667 13.1667H11.0833V8.83333H13.25V6.66667H11.0833V4.5H8.91667V6.66667H6.75V8.83333H8.91667V13.1667Z" fill="white" fill-opacity="0.6"/>
</svg>
