<svg width="24" height="25" viewBox="0 0 24 25" fill="none" xmlns="http://www.w3.org/2000/svg">
<path d="M24 4.29492L21.904 3.39692C21.674 2.02592 20.963 0.968919 19.877 0.424919C18.923 -0.0530808 17.84 -0.132081 16.823 0.204919C15.809 0.541919 14.988 1.25392 14.524 2.17992L13.179 4.65592C9.95702 3.39892 7.69702 1.37292 7.67202 1.34992L6.21302 0.0269192L6.00502 1.98392C6.00002 2.03592 5.91602 2.85792 5.96602 4.15492C4.61702 3.03292 3.80902 2.00092 3.79202 1.97892L2.27202 0.0109192L2.00502 2.48092C1.96602 2.83592 1.20802 10.5339 6.41302 15.8459L-0.000976562 16.7479V17.6169C-0.000976562 20.0399 1.24102 22.9789 4.72802 23.9609L5.09002 24.0629L11.166 21.1689C11.404 21.2419 11.621 21.3169 11.833 21.3919C12.691 21.6899 13.578 21.9989 15.249 21.9989C18.971 21.9989 21.999 18.9709 21.999 15.2489C21.999 13.6059 21.992 9.32492 21.988 6.65592L23.999 5.79392V4.29392L24 4.29492ZM7.96702 4.10492C8.99802 4.82392 10.464 5.71692 12.217 6.42592L11.928 6.95692C10.517 6.80192 9.21502 6.28392 8.08502 5.63792C8.02002 5.07292 7.98502 4.55692 7.96702 4.10492ZM15.25 20.0009C13.917 20.0009 13.288 19.7819 12.491 19.5049C12.135 19.3809 10.977 19.0469 10.977 19.0469L4.92502 21.9289C2.88602 21.2069 2.25902 19.5759 2.07402 18.4779L9.31802 17.4129L9.95302 16.2019L9.26802 15.6919C5.21702 12.6759 4.21902 7.95492 4.00602 5.10992C5.79902 6.75492 8.80502 8.87892 12.467 9.00092L13.084 9.02192L16.298 3.10592C16.537 2.62792 16.947 2.27292 17.455 2.10392C17.962 1.93492 18.503 1.97492 18.98 2.21392C19.854 2.65192 19.985 3.77592 19.985 4.40592C19.985 4.40592 20 13.4869 20 15.2509C20 17.8699 17.869 20.0009 15.25 20.0009Z" fill="#050B44"/>
</svg>
