<svg width="24" height="22" viewBox="0 0 24 22" fill="none" xmlns="http://www.w3.org/2000/svg">
<path d="M22.2 1.16291C21.6378 0.69284 20.9791 0.352301 20.2705 0.165476C19.5619 -0.0213494 18.8209 -0.0498796 18.1 0.0819112L14.278 0.775911C13.3956 0.937955 12.5933 1.39194 12 2.06491C11.4052 1.39078 10.6006 0.936689 9.716 0.775911L5.9 0.0819112C5.17916 -0.049995 4.43813 -0.0218387 3.72938 0.164387C3.02062 0.350613 2.36146 0.690355 1.79857 1.15956C1.23567 1.62877 0.782786 2.21598 0.471982 2.87962C0.161178 3.54326 4.88124e-05 4.2671 0 4.99991L0 15.7929C5.74558e-05 16.9637 0.410977 18.0974 1.16113 18.9963C1.91129 19.8952 2.95311 20.5023 4.105 20.7119L10.391 21.8549C11.455 22.0482 12.545 22.0482 13.609 21.8549L19.9 20.7119C21.051 20.5013 22.0916 19.8937 22.8408 18.9949C23.5899 18.0961 24.0002 16.963 24 15.7929V4.99991C24.0005 4.26736 23.8394 3.54371 23.5283 2.8805C23.2171 2.2173 22.7636 1.63085 22.2 1.16291ZM11 19.9279C10.916 19.9159 10.832 19.9019 10.748 19.8869L4.463 18.7449C3.77176 18.6192 3.14659 18.2548 2.69649 17.7153C2.24638 17.1758 1.99989 16.4955 2 15.7929V4.99991C2 4.20426 2.31607 3.4412 2.87868 2.87859C3.44129 2.31598 4.20435 1.99991 5 1.99991C5.18109 2.00034 5.36179 2.01674 5.54 2.04891L9.36 2.74891C9.81961 2.83301 10.2353 3.07538 10.5348 3.43395C10.8344 3.79253 10.999 4.24467 11 4.71191V19.9279ZM22 15.7929C22.0001 16.4955 21.7536 17.1758 21.3035 17.7153C20.8534 18.2548 20.2282 18.6192 19.537 18.7449L13.252 19.8869C13.168 19.9019 13.084 19.9159 13 19.9279V4.71191C12.9999 4.24352 13.1643 3.78997 13.4643 3.43032C13.7644 3.07067 14.1812 2.82775 14.642 2.74391L18.463 2.04391C18.8957 1.96518 19.3405 1.98256 19.7657 2.09482C20.191 2.20708 20.5863 2.41147 20.9238 2.69352C21.2613 2.97556 21.5326 3.32837 21.7186 3.72693C21.9046 4.1255 22.0007 4.56009 22 4.99991V15.7929Z" fill="white"/>
</svg>
