<svg width="11" height="11" viewBox="0 0 11 11" fill="none" xmlns="http://www.w3.org/2000/svg">
<path d="M3.66667 5.5H2.75C2.24446 5.5 1.83333 5.91113 1.83333 6.41667V7.33333C1.83333 7.83888 2.24446 8.25 2.75 8.25H3.66667C4.17221 8.25 4.58333 7.83888 4.58333 7.33333V6.41667C4.58333 5.91113 4.17221 5.5 3.66667 5.5ZM2.75 7.33333V6.41667H3.66667V7.33333H2.75ZM8.70833 0.916667H8.25V0.458333C8.25 0.205333 8.04513 0 7.79167 0C7.53821 0 7.33333 0.205333 7.33333 0.458333V0.916667H3.66667V0.458333C3.66667 0.205333 3.46179 0 3.20833 0C2.95488 0 2.75 0.205333 2.75 0.458333V0.916667H2.29167C1.02804 0.916667 0 1.94471 0 3.20833V8.70833C0 9.97196 1.02804 11 2.29167 11H8.70833C9.97196 11 11 9.97196 11 8.70833V3.20833C11 1.94471 9.97196 0.916667 8.70833 0.916667ZM2.29167 1.83333H8.70833C9.46642 1.83333 10.0833 2.45025 10.0833 3.20833V3.66667H0.916667V3.20833C0.916667 2.45025 1.53358 1.83333 2.29167 1.83333ZM8.70833 10.0833H2.29167C1.53358 10.0833 0.916667 9.46642 0.916667 8.70833V4.58333H10.0833V8.70833C10.0833 9.46642 9.46642 10.0833 8.70833 10.0833Z" fill="white"/>
</svg>
