<svg width="23" height="22" viewBox="0 0 23 22" fill="none" xmlns="http://www.w3.org/2000/svg">
<path d="M11.5 9.375V9.38625M7 9.375V9.38625M16 9.375V9.38625M18.25 1.5C19.1451 1.5 20.0036 1.85558 20.6365 2.48851C21.2694 3.12145 21.625 3.97989 21.625 4.875V13.875C21.625 14.7701 21.2694 15.6286 20.6365 16.2615C20.0036 16.8944 19.1451 17.25 18.25 17.25H12.625L7 20.625V17.25H4.75C3.85489 17.25 2.99645 16.8944 2.36351 16.2615C1.73058 15.6286 1.375 14.7701 1.375 13.875V4.875C1.375 3.97989 1.73058 3.12145 2.36351 2.48851C2.99645 1.85558 3.85489 1.5 4.75 1.5H18.25Z" stroke="white" stroke-opacity="0.6" stroke-width="2" stroke-linecap="round" stroke-linejoin="round"/>
</svg>
