<svg width="34" height="34" viewBox="0 0 34 34" fill="none" xmlns="http://www.w3.org/2000/svg">
<path fill-rule="evenodd" clip-rule="evenodd" d="M17 31.5C25.0081 31.5 31.5 25.0081 31.5 17C31.5 8.99187 25.0081 2.5 17 2.5C8.99187 2.5 2.5 8.99187 2.5 17C2.5 25.0081 8.99187 31.5 17 31.5ZM17 34C26.3888 34 34 26.3888 34 17C34 7.61116 26.3888 0 17 0C7.61116 0 0 7.61116 0 17C0 26.3888 7.61116 34 17 34ZM27.8966 26.5666C25.2392 29.5911 21.3425 31.5 17 31.5C12.7615 31.5 8.94766 29.6814 6.29638 26.7819L4.61719 28.6476C7.7177 31.9426 12.1186 34 17 34C21.8726 34 26.2663 31.9501 29.3659 28.6656L27.8966 26.5666Z" fill="#FFCA35"/>
<circle cx="17" cy="17" r="13" fill="#FFCA35" fill-opacity="0.2"/>
<circle cx="17" cy="17" r="12.5" stroke="#FFCA35" stroke-opacity="0.8"/>
</svg>
