<svg width="16" height="16" viewBox="0 0 16 16" fill="none" xmlns="http://www.w3.org/2000/svg">
<path d="M6 13.3333H12.6667C13.5504 13.3323 14.3976 12.9807 15.0225 12.3559C15.6474 11.731 15.9989 10.8837 16 10V3.33333C15.9989 2.4496 15.6474 1.60237 15.0225 0.97748C14.3976 0.352588 13.5504 0.00105857 12.6667 0L6 0C5.11627 0.00105857 4.26904 0.352588 3.64415 0.97748C3.01925 1.60237 2.66772 2.4496 2.66667 3.33333V10C2.66772 10.8837 3.01925 11.731 3.64415 12.3559C4.26904 12.9807 5.11627 13.3323 6 13.3333ZM12.6667 1.33333C13.1971 1.33333 13.7058 1.54405 14.0809 1.91912C14.456 2.29419 14.6667 2.8029 14.6667 3.33333V10C14.6667 10.5304 14.456 11.0391 14.0809 11.4142C13.7058 11.7893 13.1971 12 12.6667 12H6C5.46957 12 4.96086 11.7893 4.58579 11.4142C4.21071 11.0391 4 10.5304 4 10V3.33333C4 2.8029 4.21071 2.29419 4.58579 1.91912C4.96086 1.54405 5.46957 1.33333 6 1.33333H12.6667ZM0 12.6667V4C0 3.82319 0.0702372 3.65362 0.195261 3.5286C0.320286 3.40357 0.489855 3.33333 0.666666 3.33333C0.843477 3.33333 1.01305 3.40357 1.13807 3.5286C1.2631 3.65362 1.33333 3.82319 1.33333 4V12.6667C1.33333 13.1971 1.54405 13.7058 1.91912 14.0809C2.29419 14.456 2.8029 14.6667 3.33333 14.6667H12C12.1768 14.6667 12.3464 14.7369 12.4714 14.8619C12.5964 14.987 12.6667 15.1565 12.6667 15.3333C12.6667 15.5101 12.5964 15.6797 12.4714 15.8047C12.3464 15.9298 12.1768 16 12 16H3.33333C2.4496 15.9989 1.60237 15.6474 0.977479 15.0225C0.352587 14.3976 0.00105762 13.5504 0 12.6667Z" fill="white"/>
</svg>
