<svg width="17" height="16" viewBox="0 0 17 16" fill="none" xmlns="http://www.w3.org/2000/svg">
<path d="M16.3503 5.201C16.3503 6.34444 16.3305 7.48852 16.3559 8.63132C16.3806 9.73308 15.5769 10.4847 14.6204 10.4295C13.9114 10.3885 13.198 10.4199 12.4865 10.4218C11.8109 10.4238 11.3209 10.1082 11.0276 9.48361C10.9428 9.30341 10.8921 9.28417 10.7548 9.4259C9.01619 11.2267 7.48737 13.1865 6.43124 15.5074C6.23387 15.9415 6.12374 16.0185 5.67023 15.9967C4.21875 15.9261 3.35689 14.7583 3.57158 13.1801C3.7077 12.179 4.06717 11.2696 4.54914 10.4026C4.71186 10.1095 4.71062 10.1082 4.38271 10.1063C3.80545 10.1038 3.22697 10.1211 2.65095 10.0967C1.48902 10.048 0.474347 9.05843 0.364836 7.88485C0.320289 7.409 0.463828 6.95304 0.543641 6.49322C0.774418 5.1606 1.02499 3.83118 1.27124 2.50112C1.36343 2.00347 1.53233 1.53532 1.80456 1.11206C2.27168 0.38418 2.91204 -0.00444884 3.77328 4.02007e-05C5.67023 0.00965957 7.5678 0.00581168 9.46475 0.0013224C10.0327 3.97414e-05 10.5432 0.163572 10.9824 0.53681C11.1068 0.642624 11.1804 0.667635 11.3035 0.522701C11.6147 0.158441 12.0206 3.91348e-05 12.489 0.001963C13.2314 0.00516945 13.9739 -0.00573163 14.7163 0.00452914C15.6908 0.0186377 16.3392 0.692004 16.3472 1.70526C16.3571 2.86987 16.3497 4.03511 16.3497 5.19972L16.3503 5.201ZM6.61994 1.1236C5.7024 1.1236 4.78486 1.13707 3.86732 1.11847C3.28203 1.10693 2.89039 1.38012 2.62187 1.89445C2.47833 2.16956 2.38429 2.46328 2.32922 2.76726C2.04462 4.32819 1.7693 5.89104 1.48036 7.45069C1.40055 7.88036 1.51563 8.22987 1.80518 8.52872C2.1133 8.84552 2.49071 8.99045 2.92194 8.99109C3.81907 8.99109 4.71557 8.99494 5.61269 8.98917C5.87441 8.98725 6.11137 9.01931 6.2413 9.29251C6.36813 9.55865 6.27533 9.78054 6.1157 10.0018C5.67642 10.6104 5.29344 11.2543 5.01379 11.9603C4.76445 12.5894 4.59616 13.2339 4.66917 13.9227C4.71124 14.321 4.88448 14.6243 5.26374 14.7821C5.44069 14.8558 5.52979 14.8289 5.62383 14.641C6.89836 12.0873 8.61341 9.8902 10.6774 7.97912C10.7888 7.87587 10.8704 7.78352 10.8698 7.60781C10.8624 5.95132 10.8735 4.29484 10.8605 2.639C10.8531 1.71488 10.2598 1.12681 9.37194 1.12424C8.4544 1.12168 7.53686 1.12424 6.61933 1.1236L6.61994 1.1236ZM11.9668 5.22986C11.9668 6.37202 11.9662 7.51418 11.9668 8.65633C11.9668 9.11807 12.1357 9.30469 12.5725 9.30854C13.2624 9.31495 13.9528 9.31431 14.6427 9.30854C15.0789 9.30469 15.2546 9.11615 15.2546 8.6589C15.2558 6.36368 15.2558 4.06846 15.2546 1.77324C15.2546 1.30573 15.0882 1.12745 14.6445 1.12488C13.9547 1.12039 13.2642 1.12039 12.5744 1.12488C12.1289 1.12809 11.9668 1.30317 11.9662 1.77067C11.9649 2.92374 11.9662 4.0768 11.9662 5.22922L11.9668 5.22986Z" fill="white"/>
</svg>
