<svg width="24" height="30" viewBox="0 0 24 30" fill="none" xmlns="http://www.w3.org/2000/svg">
<path d="M5.32029 9.3641C10.7123 6.10623 8.18375 1.50797 8.07524 1.31684C7.91783 1.04484 7.9183 0.710215 8.07654 0.438691C8.23472 0.167168 8.52666 0 8.84254 0C11.6181 0 13.7915 0.783164 15.3025 2.32781C17.8843 4.96717 17.7645 9.075 17.7134 10.8292C17.7077 11.0235 17.7028 11.1914 17.7028 11.3161C17.7028 12.6185 17.4925 13.8209 17.3068 14.8818C17.1871 15.5654 17.0838 16.1558 17.0655 16.6199C17.0458 17.1168 17.1372 17.2307 17.141 17.2353C17.1541 17.2506 17.2626 17.308 17.5562 17.308C17.8909 17.308 18.1377 17.1994 18.3564 16.9559C19.2105 16.0048 19.2695 13.4078 19.1062 11.995C19.077 11.7458 19.1564 11.4962 19.3243 11.3089C19.4923 11.1217 19.7327 11.0146 19.9853 11.0146C22.283 11.0146 24 14.7463 24 18.0829C24 19.6513 23.6823 21.1879 23.0558 22.6496C22.4501 24.0628 21.5864 25.3383 20.4886 26.4404C18.2022 28.7358 15.1877 30 12.0003 30C8.80006 30 5.78633 28.7537 3.51423 26.4908C1.24803 24.2338 0 21.2477 0 18.0827C5.91278e-05 14.0443 3.18171 10.6562 5.32029 9.3641ZM12.0003 28.2422C17.5453 28.2422 22.2299 23.5898 22.2299 18.0827C22.2299 16.7435 21.9081 15.3376 21.3471 14.2258C21.2161 13.9661 21.0816 13.7432 20.9489 13.5555C20.9341 15.0055 20.7028 16.9822 19.6789 18.1242C19.1265 18.7402 18.3925 19.0658 17.5561 19.0658C16.7748 19.0658 16.1793 18.8306 15.7865 18.3667C15.0521 17.4997 15.2775 16.2115 15.5628 14.5807C15.7362 13.5899 15.9328 12.4668 15.9328 11.316C15.9328 11.1659 15.938 10.9863 15.944 10.7782C15.9925 9.1166 16.0933 5.65904 14.0329 3.55266C13.1079 2.60701 11.8165 2.0315 10.1828 1.83457C10.3672 2.44277 10.5262 3.21486 10.5324 4.07936C10.5459 5.98412 9.81233 8.70762 6.24022 10.8659C4.51193 11.9101 1.77001 14.7927 1.77001 18.0828C1.77007 23.6847 6.35934 28.2422 12.0003 28.2422Z" fill="#000428"/>
</svg>
