<svg width="13" height="15" viewBox="0 0 13 15" fill="none" xmlns="http://www.w3.org/2000/svg">
<path d="M2.37937 4.85183C3.24937 3.99246 4 3.25058 4 1.24996C4 1.07246 4.07562 0.903709 4.20687 0.784959C4.33875 0.666834 4.515 0.611209 4.69062 0.628084C6.18125 0.786209 9 1.90371 9 4.99996C9 5.12433 8.92437 7.30308 9.305 7.69683C9.36 7.75371 9.44125 7.81246 9.625 7.81246C9.73875 7.81246 9.81312 7.77996 9.88875 7.69558C10.2569 7.28996 10.3231 6.09558 10.2531 5.37746C10.2375 5.21683 10.2844 5.06308 10.375 4.94183C10.4137 4.88996 10.4612 4.84308 10.5169 4.80433C10.7369 4.65058 11.0275 4.65496 11.2419 4.80933C11.3331 4.87558 11.4081 4.96683 11.4544 5.07746L11.5662 5.34683C11.955 6.27308 12.4381 7.42683 12.4375 8.43746C12.4356 12.155 10.2162 14.375 6.5 14.375C2.67125 14.375 0.562499 12.3775 0.562499 8.74996C0.562499 6.64558 1.5275 5.69246 2.37937 4.85183Z" fill="#FFCA35"/>
</svg>
