<svg width="24" height="24" viewBox="0 0 24 24" fill="none" xmlns="http://www.w3.org/2000/svg">
<path d="M22.0833 19.4121V11.8266C22.0833 10.8494 21.7708 9.8988 21.1923 9.11137L16.0874 2.17301C15.2184 0.930907 13.5006 0.625652 12.2585 1.4965C12.1641 1.5625 12.0843 1.64133 12.0009 1.7165C11.9166 1.64133 11.8368 1.56158 11.7433 1.4965C10.5003 0.628402 8.78342 0.930907 7.92633 2.15559L2.80767 9.1132C2.22925 9.89971 1.91667 10.8512 1.91667 11.8284V19.4121L1 20.3288V22.9212L3.75 20.1711V11.8275C3.75 11.2417 3.937 10.6706 4.28442 10.1986L9.415 3.22353C9.70375 2.8101 10.2776 2.70927 10.6919 2.99802C10.8927 3.13827 11.0265 3.34819 11.0687 3.5902C11.1118 3.83129 11.0577 4.07421 10.9321 4.25479C10.9321 4.25479 7.02433 9.50371 6.94367 9.63113C6.698 9.97763 6.5 10.3626 6.5 10.9548V16.5832H8.33333V11.0831C8.33333 10.5771 8.744 10.1665 9.25 10.1665C9.756 10.1665 10.1667 10.5771 10.1667 11.0831V17.1442C10.1667 19.4286 9.13267 21.5636 7.3305 23H9.91733C11.2557 21.3555 12 19.3058 12 17.1442C12 19.3049 12.7443 21.3546 14.0827 23H16.6695C14.8673 21.5645 13.8333 19.4286 13.8333 17.1442V11.0831C13.8333 10.5771 14.244 10.1665 14.75 10.1665C15.256 10.1665 15.6667 10.5771 15.6667 11.0831V16.5832H17.5V10.9548C17.5 10.359 17.2983 9.97305 17.0545 9.62929C16.9748 9.50096 13.0826 4.27496 13.0826 4.27496C12.9423 4.07421 12.8883 3.83129 12.9313 3.5902C12.9735 3.34819 13.1073 3.13919 13.3081 2.99802C13.7242 2.71018 14.2963 2.8101 14.5978 3.24186L19.7156 10.1976C20.063 10.6697 20.25 11.2408 20.25 11.8275V20.1711L23 22.9212V20.3288L22.0833 19.4121ZM13.9085 8.46602C13.5675 8.57511 13.2476 8.75111 12.9698 8.98762C12.3538 9.51104 12 10.2746 12 11.0831C12 10.2746 11.6471 9.51104 11.0302 8.98762C10.7515 8.7502 10.4316 8.57511 10.0906 8.46602L11.9991 5.8929L13.9085 8.46602Z" fill="white"/>
</svg>
