<svg width="38" height="38" viewBox="0 0 38 38" fill="none" xmlns="http://www.w3.org/2000/svg">
<path d="M30.0837 22.1667C32.4428 19.855 34.8337 17.0842 34.8337 13.4583C34.8337 11.1487 33.9162 8.93374 32.283 7.30061C30.6499 5.66748 28.4349 4.75 26.1253 4.75C23.3387 4.75 21.3753 5.54167 19.0003 7.91667C16.6253 5.54167 14.662 4.75 11.8753 4.75C9.56573 4.75 7.35073 5.66748 5.7176 7.30061C4.08447 8.93374 3.16699 11.1487 3.16699 13.4583C3.16699 17.1 5.54199 19.8708 7.91699 22.1667L19.0003 33.25L30.0837 22.1667Z" stroke="#FF8064" stroke-width="3" stroke-linecap="round" stroke-linejoin="round"/>
<path d="M19.0007 7.91663L14.314 12.6033C13.9923 12.9227 13.737 13.3025 13.5628 13.721C13.3885 14.1395 13.2988 14.5883 13.2988 15.0416C13.2988 15.4949 13.3885 15.9438 13.5628 16.3622C13.737 16.7807 13.9923 17.1606 14.314 17.48C15.6124 18.7783 17.6865 18.8258 19.064 17.5908L22.3415 14.5825C23.163 13.837 24.2326 13.4241 25.3419 13.4241C26.4513 13.4241 27.5208 13.837 28.3424 14.5825L33.029 18.7941M28.5007 23.75L25.334 20.5833M23.7507 28.5L20.584 25.3333" stroke="#FF8064" stroke-width="3" stroke-linecap="round" stroke-linejoin="round"/>
</svg>
