<svg width="261" height="92" viewBox="0 0 261 92" fill="none" xmlns="http://www.w3.org/2000/svg">
<path d="M113.897 86.6426C129.732 82.8005 172.131 76.753 215.04 83.2998" stroke="#00A6FB" stroke-width="3" stroke-linecap="round"/>
<g filter="url(#filter0_d_277_3082)">
<path d="M14.3719 35.28C13.2252 34.5333 12.4519 33.88 12.0519 33.32C11.6519 32.7867 11.8119 32.2933 12.5319 31.84C12.6919 31.7333 12.9452 31.8267 13.2919 32.12C13.6652 32.3867 13.9719 32.64 14.2119 32.88C14.7452 33.36 15.3985 33.6533 16.1719 33.76C16.9719 33.8933 17.8652 33.8267 18.8519 33.56C19.9719 33.2133 20.9452 32.7333 21.7719 32.12C22.6252 31.48 23.4252 30.7067 24.1719 29.8C24.7319 29.08 25.1185 28.3067 25.3319 27.48C25.5452 26.6267 25.6252 25.84 25.5719 25.12C25.5452 24.4 25.3985 23.8933 25.1319 23.6C24.4652 22.6667 23.5319 22.0267 22.3319 21.68C21.1585 21.3067 19.7719 21.3333 18.1719 21.76C17.9852 21.7867 17.7052 21.84 17.3319 21.92C16.9585 22 16.6252 22.08 16.3319 22.16C16.0385 22.2133 15.8785 22.24 15.8519 22.24C15.6652 22.2933 15.5185 22.36 15.4119 22.44C15.3052 22.4933 15.1719 22.6933 15.0119 23.04C14.8785 23.36 14.6652 23.9467 14.3719 24.8C14.0785 25.6267 13.6385 26.8533 13.0519 28.48C12.4919 30.1067 12.0385 31.2667 11.6919 31.96C11.3719 32.6267 11.0785 32.9333 10.8119 32.88C10.5719 32.8 10.2652 32.5067 9.89188 32C9.67854 31.6267 9.54521 31.2667 9.49188 30.92C9.43854 30.5467 9.54521 30.12 9.81188 29.64C9.94521 29.4 10.0519 29.1867 10.1319 29C10.2119 28.7867 10.3185 28.4267 10.4519 27.92C10.5852 27.52 10.8385 26.8267 11.2119 25.84C11.6119 24.8267 12.0785 23.6533 12.6119 22.32C13.1452 20.96 13.7052 19.56 14.2919 18.12C14.8785 16.68 15.4385 15.32 15.9719 14.04C16.5319 12.76 16.9985 11.68 17.3719 10.8C17.7452 9.97333 17.9719 9.37333 18.0519 9C18.1319 8.62667 18.1052 8.42667 17.9719 8.4C17.9719 8.26667 17.9319 8.14667 17.8519 8.04C17.7719 7.90667 17.7452 7.78667 17.7719 7.68C17.7719 7.57333 17.9452 7.42667 18.2919 7.24C18.6652 7.05333 19.0652 6.88 19.4919 6.72C19.9452 6.56 20.2919 6.50667 20.5319 6.56C20.6652 6.56 20.8252 6.56 21.0119 6.56C21.1985 6.53333 21.2919 6.46666 21.2919 6.36C21.3719 6.36 21.6252 6.33333 22.0519 6.28C22.4785 6.22667 22.9452 6.22667 23.4519 6.28C25.2385 6.44 26.6252 6.96 27.6119 7.84C28.5985 8.69333 29.0785 9.86667 29.0519 11.36C29.0252 11.8133 28.7852 12.4267 28.3319 13.2C27.9052 13.9733 27.3719 14.7467 26.7319 15.52C26.1185 16.2933 25.5185 16.9467 24.9319 17.48C24.5852 17.7733 24.2119 18.08 23.8119 18.4C23.4385 18.6933 23.1052 18.9467 22.8119 19.16C22.5452 19.3467 22.4119 19.44 22.4119 19.44C22.4119 19.44 22.5185 19.48 22.7319 19.56C22.9452 19.64 23.1719 19.72 23.4119 19.8C24.6385 20.2533 25.6519 20.8267 26.4519 21.52C27.2519 22.2133 27.7985 23.1733 28.0919 24.4C28.1985 24.8 28.1985 25.2933 28.0919 25.88C28.0119 26.4667 27.8919 27.0533 27.7319 27.64C27.5719 28.2 27.3985 28.68 27.2119 29.08C27.0252 29.2667 26.8785 29.4667 26.7719 29.68C26.6652 29.8667 26.6119 29.96 26.6119 29.96C26.6119 30.0133 26.5052 30.2267 26.2919 30.6C26.0785 30.9467 25.8252 31.3333 25.5319 31.76C25.2385 32.1867 24.9585 32.56 24.6919 32.88C24.4252 33.0933 24.1052 33.3467 23.7319 33.64C23.3852 33.9333 22.9852 34.2133 22.5319 34.48C22.1052 34.7467 21.6385 34.9733 21.1319 35.16C20.3852 35.48 19.5719 35.6933 18.6919 35.8C17.8385 35.9333 17.0252 35.9467 16.2519 35.84C15.4785 35.76 14.8519 35.5733 14.3719 35.28ZM16.3319 19.88C16.3319 19.88 16.5719 19.84 17.0519 19.76C17.5585 19.6533 18.1052 19.5467 18.6919 19.44C19.2785 19.3067 19.7052 19.1867 19.9719 19.08C20.1052 19 20.2919 18.8933 20.5319 18.76C20.7985 18.6267 21.0652 18.4267 21.3319 18.16C21.7052 17.8133 22.1719 17.32 22.7319 16.68C23.3185 16.0133 23.8919 15.32 24.4519 14.6C25.0119 13.8533 25.4385 13.1867 25.7319 12.6C26.3452 11.64 26.6785 10.9333 26.7319 10.48C26.7852 10 26.6385 9.58667 26.2919 9.24C26.0519 8.94667 25.6385 8.76 25.0519 8.68C24.4919 8.57333 23.8919 8.54667 23.2519 8.6C22.6119 8.62667 22.0652 8.70667 21.6119 8.84C21.2652 8.94667 20.9985 9.08 20.8119 9.24C20.6252 9.37333 20.5319 9.58667 20.5319 9.88C20.5319 10.12 20.4519 10.36 20.2919 10.6C20.1585 10.8133 20.0252 10.9867 19.8919 11.12C19.8652 11.3067 19.7985 11.48 19.6919 11.64C19.5852 11.7733 19.5319 11.84 19.5319 11.84C19.5319 11.9467 19.3452 12.3867 18.9719 13.16C18.5985 13.9333 18.2252 14.8267 17.8519 15.84C17.3719 16.9867 16.9985 17.92 16.7319 18.64C16.4652 19.3333 16.3319 19.7467 16.3319 19.88ZM31.7131 31.6C31.4731 31.4133 31.2998 31.2267 31.1931 31.04C31.1131 30.8533 31.1131 30.4933 31.1931 29.96C31.2731 29.2133 31.3798 28.56 31.5131 28C31.6465 27.4133 31.8065 26.7467 31.9931 26C32.0465 25.68 32.1931 25.1333 32.4331 24.36C32.6998 23.5867 33.0198 22.7467 33.3931 21.84C33.7665 20.9333 34.1398 20.08 34.5131 19.28C34.8865 18.4533 35.2065 17.84 35.4731 17.44C35.6865 17.28 35.9398 17.2133 36.2331 17.24C36.5531 17.2667 36.8198 17.3867 37.0331 17.6C37.3265 17.84 37.3665 18.2667 37.1531 18.88C36.9665 19.4667 36.5665 20.4 35.9531 21.68C35.6331 22.4 35.3931 22.9467 35.2331 23.32C35.0731 23.6667 35.0065 23.88 35.0331 23.96C35.0598 24.0133 35.1798 23.9733 35.3931 23.84C35.5531 23.5467 35.8465 23.2133 36.2731 22.84C36.6998 22.44 37.1531 22.0533 37.6331 21.68C38.1131 21.3067 38.5665 20.9733 38.9931 20.68C39.4198 20.3867 39.7131 20.2 39.8731 20.12C40.0865 19.9867 40.3265 19.88 40.5931 19.8C40.8865 19.6933 41.0865 19.6133 41.1931 19.56C41.8065 19.2667 42.4331 19.16 43.0731 19.24C43.7131 19.32 44.1131 19.56 44.2731 19.96C44.2998 20.1733 44.3798 20.3333 44.5131 20.44C44.6731 20.5467 44.7531 20.6 44.7531 20.6C44.8598 20.6 44.9131 20.64 44.9131 20.72C44.9398 20.8 44.9531 20.84 44.9531 20.84C44.9531 21.0267 44.8065 21.1467 44.5131 21.2C44.2465 21.2267 43.8998 21.2533 43.4731 21.28C43.1265 21.3067 42.8198 21.3733 42.5531 21.48C42.2865 21.5867 41.9665 21.72 41.5931 21.88C40.5798 22.4667 39.6065 23.04 38.6731 23.6C37.7665 24.16 36.8865 24.9067 36.0331 25.84C35.8465 26.0533 35.6598 26.3067 35.4731 26.6C35.2865 26.8933 35.0865 27.2133 34.8731 27.56C34.7398 27.6933 34.6065 27.9867 34.4731 28.44C34.3398 28.8933 34.2198 29.3333 34.1131 29.76C34.0331 30.16 33.9931 30.4 33.9931 30.48C33.9931 30.48 33.9531 30.6133 33.8731 30.88C33.7931 31.12 33.6598 31.36 33.4731 31.6C33.1531 32.0267 32.8865 32.24 32.6731 32.24C32.4598 32.24 32.1398 32.0267 31.7131 31.6ZM52.4072 31.6C51.8472 32.08 51.1939 32.36 50.4472 32.44C49.7272 32.52 49.0205 32.4133 48.3272 32.12C47.6339 31.8 47.0605 31.32 46.6072 30.68C46.1539 30.0933 45.8605 29.4267 45.7272 28.68C45.5939 27.9067 45.5805 26.9067 45.6872 25.68C45.7672 24.64 46.1005 23.6 46.6872 22.56C47.2739 21.4933 47.9805 20.5467 48.8072 19.72C49.6605 18.8933 50.5005 18.32 51.3272 18C51.7272 17.7333 52.0605 17.6133 52.3272 17.64C52.6205 17.64 53.0605 17.6667 53.6472 17.72C54.2605 17.8 54.7139 17.92 55.0072 18.08C55.3272 18.24 55.5805 18.4533 55.7672 18.72C56.1672 19.12 56.4339 19.52 56.5672 19.92C56.7005 20.2933 56.7672 20.6667 56.7672 21.04C56.6605 21.6267 56.2605 22.3467 55.5672 23.2C54.9005 24.0267 54.0205 24.7067 52.9272 25.24C52.3405 25.4267 51.7005 25.5067 51.0072 25.48C50.3139 25.4533 49.7405 25.28 49.2872 24.96C48.7805 24.7467 48.4472 24.7867 48.2872 25.08C48.1272 25.3467 47.9805 26.0133 47.8472 27.08C47.7405 28.0933 47.8205 28.84 48.0872 29.32C48.3539 29.7733 48.7139 30.04 49.1672 30.12C49.7005 30.2267 50.1139 30.3067 50.4072 30.36C50.7272 30.3867 51.1139 30.2667 51.5672 30C51.9939 29.7333 52.2605 29.5867 52.3672 29.56C52.4739 29.5067 52.5539 29.4533 52.6072 29.4C52.6872 29.32 52.8605 29.1467 53.1272 28.88C53.3139 28.6933 53.4605 28.56 53.5672 28.48C53.6739 28.3733 53.7939 28.32 53.9272 28.32C54.0605 28.32 54.1805 28.3867 54.2872 28.52C54.3939 28.6267 54.5005 28.7067 54.6072 28.76C54.8739 28.76 54.9272 28.92 54.7672 29.24C54.6339 29.56 54.3539 29.9467 53.9272 30.4C53.5005 30.8267 52.9939 31.2267 52.4072 31.6ZM52.3672 23.12C52.6605 22.9867 52.9672 22.8 53.2872 22.56C53.6072 22.2933 53.8739 22.0133 54.0872 21.72C54.3272 21.4 54.4472 21.1333 54.4472 20.92C54.4472 20.5467 54.2739 20.24 53.9272 20C53.5805 19.7333 53.0605 19.6933 52.3672 19.88C52.0739 19.96 51.7405 20.16 51.3672 20.48C50.9939 20.7733 50.6339 21.1067 50.2872 21.48C49.9672 21.8533 49.7005 22.1867 49.4872 22.48C49.3005 22.7733 49.2339 22.9467 49.2872 23C49.3672 23.1333 49.5939 23.24 49.9672 23.32C50.3405 23.3733 50.7539 23.3867 51.2072 23.36C51.6872 23.3333 52.0739 23.2533 52.3672 23.12ZM61.775 31.84C61.5617 31.8933 61.2817 31.92 60.935 31.92C60.5883 31.8933 60.2817 31.8533 60.015 31.8C59.775 31.72 59.655 31.64 59.655 31.56C59.655 31.4267 59.5883 31.36 59.455 31.36C59.455 31.36 59.3883 31.3067 59.255 31.2C59.1483 31.0933 58.975 30.9867 58.735 30.88C58.495 30.5067 58.375 30.1067 58.375 29.68C58.375 29.2267 58.495 28.52 58.735 27.56C58.815 26.8933 59.0683 26.12 59.495 25.24C59.9483 24.3333 60.495 23.4133 61.135 22.48C61.775 21.5467 62.4417 20.7067 63.135 19.96C63.855 19.2133 64.5083 18.6667 65.095 18.32C65.4683 17.9467 65.9217 17.7467 66.455 17.72C66.9883 17.6933 67.495 17.8133 67.975 18.08C68.2417 18.2133 68.5083 18.4267 68.775 18.72C69.0417 19.0133 69.295 19.3333 69.535 19.68C69.775 20.0267 69.975 20.3733 70.135 20.72C70.215 21.0133 70.255 21.28 70.255 21.52C70.2817 21.7333 70.2817 22 70.255 22.32C70.255 22.64 70.215 23.12 70.135 23.76C70.0017 24.24 69.8817 24.8267 69.775 25.52C69.695 26.2133 69.655 26.8133 69.655 27.32C69.6017 27.8267 69.655 28.1867 69.815 28.4C70.0017 28.6133 70.2683 28.6267 70.615 28.44C70.935 28.28 71.2417 28.2133 71.535 28.24C71.8283 28.24 72.055 28.32 72.215 28.48C72.4017 28.64 72.495 28.88 72.495 29.2C72.495 29.52 72.335 29.8533 72.015 30.2C71.7217 30.52 71.3483 30.8 70.895 31.04C70.4683 31.2533 70.055 31.36 69.655 31.36C69.3617 31.36 69.0817 31.1867 68.815 30.84C68.5483 30.4667 68.3083 30.0267 68.095 29.52C67.9083 28.9867 67.735 28.48 67.575 28L67.335 27.08L65.615 28.72C65.2683 29.0933 64.9217 29.44 64.575 29.76C64.255 30.0533 64.055 30.2667 63.975 30.4C63.8417 30.64 63.5883 30.88 63.215 31.12C62.8683 31.36 62.3883 31.6 61.775 31.84ZM61.895 29.48C62.3483 29.2133 62.8683 28.8267 63.455 28.32C64.0417 27.7867 64.615 27.2133 65.175 26.6C65.735 25.96 66.2017 25.3733 66.575 24.84C67.0283 24.2267 67.375 23.6533 67.615 23.12C67.855 22.5867 68.0283 22.08 68.135 21.6C68.0283 21.3067 67.855 21 67.615 20.68C67.375 20.3333 67.1617 20.1467 66.975 20.12C66.3883 20.12 65.7617 20.4933 65.095 21.24C64.455 21.96 63.8283 22.7467 63.215 23.6C63.1083 23.7333 62.9617 23.9467 62.775 24.24C62.5883 24.5333 62.4017 24.8133 62.215 25.08C62.055 25.32 61.9483 25.48 61.895 25.56C61.815 25.6667 61.655 25.9733 61.415 26.48C61.2017 26.96 60.9883 27.4533 60.775 27.96C60.5617 28.44 60.455 28.76 60.455 28.92C60.455 29.08 60.4683 29.2533 60.495 29.44C60.5483 29.6267 60.6817 29.7467 60.895 29.8C61.1083 29.8533 61.4417 29.7467 61.895 29.48ZM74.7097 32.12C74.443 31.9333 74.243 31.76 74.1097 31.6C73.9764 31.44 73.923 31.2133 73.9497 30.92C74.003 30.52 74.083 30.1067 74.1897 29.68C74.2964 29.2267 74.4297 28.7867 74.5897 28.36C74.6697 27.88 74.763 27.4 74.8697 26.92C75.003 26.44 75.2164 25.9867 75.5097 25.56C75.8564 24.5733 76.2164 23.6 76.5897 22.64C76.963 21.6533 77.283 20.6267 77.5497 19.56C77.9497 18.6 78.3097 17.7467 78.6297 17C78.9764 16.2533 79.3897 15.2933 79.8697 14.12C80.1364 13.5067 80.363 12.8267 80.5497 12.08C80.763 11.3067 81.083 10.6267 81.5097 10.04C81.6964 9.8 81.8297 9.6 81.9097 9.44C82.0164 9.25333 82.123 9.08 82.2297 8.92C82.283 8.76 82.4564 8.70667 82.7497 8.76C83.0697 8.81333 83.2964 8.93333 83.4297 9.12C83.563 9.09333 83.723 9.26666 83.9097 9.64C84.0964 10.0133 84.163 10.3067 84.1097 10.52C84.1097 10.8133 84.003 11.1333 83.7897 11.48C83.683 11.5867 83.5764 11.7467 83.4697 11.96C83.363 12.1467 83.203 12.4 82.9897 12.72C82.883 13.0667 82.7764 13.4133 82.6697 13.76C82.563 14.1067 82.443 14.4267 82.3097 14.72C82.1764 15.0133 82.0297 15.3067 81.8697 15.6C81.7097 15.8933 81.603 16.1333 81.5497 16.32C81.3097 16.9333 81.043 17.5333 80.7497 18.12C80.483 18.68 80.243 19.28 80.0297 19.92C79.8164 20.5333 79.5897 21.1867 79.3497 21.88C79.1364 22.5467 78.843 23.1867 78.4697 23.8C78.283 24.0667 78.1364 24.4267 78.0297 24.88C77.923 25.3333 77.8164 25.7733 77.7097 26.2C77.523 26.68 77.3497 27.12 77.1897 27.52C77.0564 27.92 76.9897 28.1733 76.9897 28.28C76.803 28.8667 76.6564 29.4533 76.5497 30.04C76.443 30.6 76.2697 31.0933 76.0297 31.52C76.003 31.92 75.883 32.1867 75.6697 32.32C75.483 32.4533 75.163 32.3867 74.7097 32.12ZM84.2697 32.76C83.843 32.7067 83.523 32.6267 83.3097 32.52C83.0964 32.3867 82.6964 32.1067 82.1097 31.68C81.7897 31.36 81.3497 30.8667 80.7897 30.2C80.2297 29.5333 79.6697 28.8267 79.1097 28.08C78.5497 27.3067 78.083 26.6533 77.7097 26.12L79.3497 23.92C79.6964 24.3467 79.9764 24.7467 80.1897 25.12C80.403 25.4933 80.5764 25.7467 80.7097 25.88C81.323 26.7867 81.803 27.52 82.1497 28.08C82.523 28.64 82.8564 29.0933 83.1497 29.44C83.443 29.7867 83.7497 30.0933 84.0697 30.36C84.4164 30.6267 84.843 30.9067 85.3497 31.2C85.4297 31.2533 85.5097 31.3333 85.5897 31.44C85.6697 31.5467 85.6964 31.7067 85.6697 31.92C85.563 32.2133 85.443 32.4 85.3097 32.48C85.203 32.5333 84.8564 32.6267 84.2697 32.76ZM77.5897 25.68C77.4297 25.2267 77.483 24.7733 77.7497 24.32C78.043 23.84 78.363 23.5067 78.7097 23.32C78.8164 23.1333 78.923 23.0133 79.0297 22.96C79.163 22.88 79.243 22.7867 79.2697 22.68C79.323 22.5733 79.4564 22.4267 79.6697 22.24C79.9097 22.0533 80.123 21.88 80.3097 21.72C80.7364 21.4533 81.2164 21.1333 81.7497 20.76C82.3097 20.36 82.843 19.96 83.3497 19.56C83.8564 19.16 84.283 18.8133 84.6297 18.52C85.003 18.2267 85.2297 18.04 85.3097 17.96C85.3897 17.8533 85.4964 17.7867 85.6297 17.76C85.7897 17.7067 85.9897 17.7333 86.2297 17.84C86.5497 17.92 86.763 18.0533 86.8697 18.24C86.9764 18.4 87.0297 18.72 87.0297 19.2C87.1097 19.4933 86.9897 19.8133 86.6697 20.16C86.3764 20.48 85.923 20.84 85.3097 21.24C85.0964 21.3733 84.803 21.5733 84.4297 21.84C84.083 22.1067 83.7764 22.36 83.5097 22.6C83.323 22.7067 83.043 22.8933 82.6697 23.16C82.323 23.4 82.0164 23.64 81.7497 23.88C81.5364 24.0133 81.2564 24.2533 80.9097 24.6C80.563 24.92 80.2164 25.16 79.8697 25.32C79.0164 26.12 78.4564 26.5467 78.1897 26.6C77.923 26.6533 77.723 26.3467 77.5897 25.68ZM107.647 32.88C107.353 32.9867 107.14 33.0267 107.007 33C106.9 32.9467 106.62 32.7467 106.167 32.4C105.98 32.08 105.86 31.8 105.807 31.56C105.78 31.2933 105.767 30.8267 105.767 30.16C105.82 29.76 105.927 29.1867 106.087 28.44C106.273 27.6933 106.487 26.9067 106.727 26.08C106.967 25.2533 107.18 24.5067 107.367 23.84C107.58 23.1733 107.74 22.72 107.847 22.48C108.033 21.84 108.073 21.4533 107.967 21.32C107.86 21.16 107.54 21.0533 107.007 21C105.94 20.8667 104.98 21.2133 104.127 22.04C103.273 22.8667 102.42 23.9467 101.567 25.28C100.927 26.2667 100.54 27.12 100.407 27.84C100.3 28.5333 100.287 29.0133 100.367 29.28C100.447 29.4933 100.633 29.6133 100.927 29.64C101.22 29.64 101.54 29.5733 101.887 29.44C102.26 29.3067 102.58 29.1733 102.847 29.04C103.033 28.9333 103.26 28.8267 103.527 28.72C103.82 28.5867 104.1 28.4667 104.367 28.36C104.527 28.36 104.633 28.4133 104.687 28.52C104.767 28.6 104.807 28.7733 104.807 29.04C104.807 29.1467 104.847 29.24 104.927 29.32C105.007 29.4 105.1 29.4667 105.207 29.52C105.313 29.6267 105.153 29.8667 104.727 30.24C104.327 30.6133 103.7 31.04 102.847 31.52C102.047 31.7067 101.393 31.8 100.887 31.8C100.407 31.8 99.9399 31.6267 99.4866 31.28C98.7399 30.8267 98.3132 30.0933 98.2066 29.08C98.1266 28.04 98.3399 26.7733 98.8466 25.28C99.3532 24.08 99.9132 23.1067 100.527 22.36C101.14 21.5867 101.793 20.84 102.487 20.12C102.593 20.0133 102.833 19.8533 103.207 19.64C103.607 19.4 104.1 19.1867 104.687 19C105.353 18.7867 105.98 18.6533 106.567 18.6C107.153 18.5467 107.66 18.6667 108.087 18.96C108.567 19.0667 108.873 19.0533 109.007 18.92C109.14 18.76 109.367 18.28 109.687 17.48C110.22 16.1467 110.74 14.8 111.247 13.44C111.753 12.0533 112.3 10.6533 112.887 9.24C113.153 8.73333 113.313 8.34667 113.367 8.08C113.447 7.78667 113.54 7.58667 113.647 7.48H114.407C114.513 7.48 114.7 7.57333 114.967 7.76C115.233 7.94667 115.42 8.2 115.527 8.52C115.527 8.76 115.42 9.29333 115.207 10.12C114.993 10.92 114.647 11.88 114.167 13C113.74 13.9867 113.313 14.9867 112.887 16C112.487 16.9867 112.1 18.04 111.727 19.16C111.433 19.9867 111.167 20.6533 110.927 21.16C110.687 21.6667 110.527 22.1067 110.447 22.48C110.287 23.1733 110.087 23.8 109.847 24.36C109.633 24.8933 109.487 25.2667 109.407 25.48C109.06 26.4933 108.78 27.32 108.567 27.96C108.353 28.5733 108.193 29.0933 108.087 29.52C107.98 29.92 107.913 30.3333 107.887 30.76C107.887 31.16 107.927 31.64 108.007 32.2C108.007 32.3067 107.993 32.4133 107.967 32.52C107.94 32.6267 107.833 32.7467 107.647 32.88ZM118.47 32.76C118.123 32.7867 117.843 32.76 117.63 32.68C117.416 32.5733 117.15 32.4267 116.83 32.24C116.243 31.7867 115.803 31.3333 115.51 30.88C115.243 30.4 115.123 29.9333 115.15 29.48C115.203 29.24 115.203 29.0267 115.15 28.84C115.123 28.6533 115.11 28.56 115.11 28.56C114.95 28.4267 114.896 28.3467 114.95 28.32C115.003 28.2667 115.043 28.1867 115.07 28.08C115.283 28.0267 115.31 27.88 115.15 27.64C115.07 27.4267 115.11 26.9467 115.27 26.2C115.456 25.4267 115.696 24.7067 115.99 24.04C116.123 23.7467 116.31 23.36 116.55 22.88C116.816 22.4 117.11 21.92 117.43 21.44C117.75 20.9333 118.043 20.5333 118.31 20.24C118.896 19.5733 119.416 19.08 119.87 18.76C120.35 18.4133 120.883 18.1333 121.47 17.92C122.003 17.7067 122.39 17.5867 122.63 17.56C122.87 17.5333 123.203 17.6933 123.63 18.04C124.27 18.2267 124.75 18.4933 125.07 18.84C125.416 19.16 125.683 19.6667 125.87 20.36C126.083 21.1333 126.15 22.0533 126.07 23.12C126.016 24.16 125.563 25.5067 124.71 27.16C124.203 28.2 123.696 28.9867 123.19 29.52C122.71 30.0533 122.123 30.6133 121.43 31.2C120.923 31.6267 120.456 31.96 120.03 32.2C119.603 32.44 119.083 32.6267 118.47 32.76ZM121.67 28C122.203 27.2 122.616 26.4667 122.91 25.8C123.23 25.1067 123.483 24.24 123.67 23.2C123.723 22.9067 123.736 22.5467 123.71 22.12C123.683 21.6667 123.616 21.2533 123.51 20.88C123.43 20.5067 123.31 20.3067 123.15 20.28C122.803 20.1467 122.416 20.1467 121.99 20.28C121.563 20.3867 121.096 20.7067 120.59 21.24C120.136 21.7733 119.723 22.3733 119.35 23.04C119.003 23.7067 118.683 24.44 118.39 25.24C118.096 26.04 117.816 26.8933 117.55 27.8C117.283 28.8133 117.296 29.5867 117.59 30.12C117.91 30.6533 118.43 30.7867 119.15 30.52C119.87 30.2267 120.71 29.3867 121.67 28ZM131.611 31.2C131.211 31.2 130.838 30.96 130.491 30.48C130.171 29.9733 129.931 29.3333 129.771 28.56C129.638 27.76 129.598 26.9333 129.651 26.08C129.651 25.2267 129.691 24.5467 129.771 24.04C129.878 23.5067 129.985 22.9867 130.091 22.48C130.171 22.32 130.211 22.1867 130.211 22.08C130.238 21.9733 130.265 21.8 130.291 21.56C130.345 21.32 130.438 20.92 130.571 20.36C130.678 19.9067 130.785 19.5333 130.891 19.24C130.998 18.9467 131.105 18.7467 131.211 18.64C131.345 18.48 131.518 18.3867 131.731 18.36C131.945 18.3067 132.158 18.32 132.371 18.4C132.585 18.48 132.758 18.6267 132.891 18.84C133.051 18.9733 133.131 19.28 133.131 19.76C133.158 20.2133 133.131 20.6933 133.051 21.2C132.971 21.68 132.851 22.0267 132.691 22.24C132.638 22.3733 132.571 22.72 132.491 23.28C132.438 23.84 132.371 24.4267 132.291 25.04C132.238 25.6533 132.171 26.1467 132.091 26.52C132.011 27 132.051 27.3867 132.211 27.68C132.398 27.9733 132.731 27.9867 133.211 27.72C133.718 27.4267 134.385 26.68 135.211 25.48C135.771 24.68 136.198 24.0267 136.491 23.52C136.785 23.0133 137.011 22.5467 137.171 22.12C137.358 21.6667 137.545 21.1867 137.731 20.68C137.865 20.2533 137.985 19.9067 138.091 19.64C138.225 19.3467 138.345 19.16 138.451 19.08C138.638 18.9467 138.851 18.8933 139.091 18.92C139.358 18.9467 139.651 19.0667 139.971 19.28C140.291 19.6 140.451 19.9867 140.451 20.44C140.451 20.8667 140.291 21.4 139.971 22.04C139.758 22.4667 139.545 23.0133 139.331 23.68C139.145 24.3467 138.985 25.0267 138.851 25.72C138.745 26.3867 138.691 26.9333 138.691 27.36C138.691 27.8933 138.758 28.2133 138.891 28.32C139.051 28.4 139.238 28.44 139.451 28.44C139.771 28.44 140.158 28.32 140.611 28.08C141.065 27.84 141.571 27.4267 142.131 26.84C142.371 26.6 142.665 26.2533 143.011 25.8C143.358 25.32 143.691 24.8267 144.011 24.32C144.358 23.7867 144.638 23.32 144.851 22.92C145.091 22.52 145.211 22.2667 145.211 22.16C145.211 22 145.331 21.7733 145.571 21.48C145.731 21.2667 145.851 21.1067 145.931 21C146.038 20.8667 146.225 20.7333 146.491 20.6C146.705 20.4933 146.891 20.48 147.051 20.56C147.211 20.6133 147.385 20.7467 147.571 20.96C147.705 21.0667 147.771 21.2267 147.771 21.44C147.798 21.6533 147.811 21.92 147.811 22.24C147.731 22.5333 147.598 22.92 147.411 23.4C147.251 23.8533 147.065 24.2933 146.851 24.72C146.665 25.12 146.505 25.4 146.371 25.56C146.265 25.6667 146.078 25.8667 145.811 26.16C145.545 26.4267 145.305 26.72 145.091 27.04C144.425 27.84 143.945 28.36 143.651 28.6C143.358 28.84 143.105 29.0667 142.891 29.28C142.331 29.84 141.745 30.2667 141.131 30.56C140.518 30.8267 139.931 30.96 139.371 30.96C138.838 30.96 138.385 30.8267 138.011 30.56C137.185 30.1333 136.771 29.4133 136.771 28.4C136.771 28.1867 136.731 28 136.651 27.84C136.598 27.6533 136.571 27.56 136.571 27.56C136.465 27.56 136.318 27.5867 136.131 27.64C135.971 27.6933 135.798 27.88 135.611 28.2C135.371 28.6533 134.985 29.12 134.451 29.6C133.945 30.0533 133.425 30.44 132.891 30.76C132.358 31.0533 131.931 31.2 131.611 31.2ZM161.595 32.52C161.329 32.52 161.049 32.3733 160.755 32.08C160.489 31.7867 160.249 31.4267 160.035 31C159.849 30.5467 159.755 30.12 159.755 29.72C159.755 29.32 159.849 28.5733 160.035 27.48C160.249 26.3867 160.502 25.28 160.795 24.16C161.009 23.4667 161.075 23.0667 160.995 22.96C160.915 22.8533 160.555 23 159.915 23.4C159.542 23.5867 159.209 23.7867 158.915 24C158.622 24.1867 158.369 24.4 158.155 24.64C158.022 24.7467 157.822 24.92 157.555 25.16C157.289 25.4 157.009 25.6267 156.715 25.84C156.369 26.1067 155.929 26.48 155.395 26.96C154.862 27.44 154.329 27.92 153.795 28.4C153.289 28.88 152.902 29.2533 152.635 29.52C152.582 29.6267 152.502 29.72 152.395 29.8C152.289 29.88 152.169 29.9333 152.035 29.96C151.902 29.96 151.755 29.9333 151.595 29.88C151.302 29.8 151.022 29.6267 150.755 29.36C150.515 29.0933 150.395 28.7867 150.395 28.44C150.395 28.1733 150.502 27.72 150.715 27.08C150.929 26.4133 151.209 25.6133 151.555 24.68C151.929 23.7467 152.355 22.76 152.835 21.72C152.915 21.5867 152.982 21.4267 153.035 21.24C153.089 21.0267 153.129 20.8 153.155 20.56C153.209 20.32 153.235 20.0933 153.235 19.88C153.235 19.7467 153.249 19.6133 153.275 19.48C153.329 19.32 153.382 19.1733 153.435 19.04C153.515 18.88 153.582 18.7733 153.635 18.72C153.742 18.5067 153.929 18.4533 154.195 18.56C154.462 18.64 154.689 18.8267 154.875 19.12C155.275 19.4933 155.475 19.96 155.475 20.52C155.502 21.08 155.369 21.7733 155.075 22.6C154.969 22.7867 154.875 22.9733 154.795 23.16C154.742 23.32 154.689 23.4667 154.635 23.6C154.582 23.7067 154.542 23.8 154.515 23.88C154.489 23.9333 154.475 23.96 154.475 23.96C154.582 23.96 154.822 23.84 155.195 23.6C155.569 23.36 156.009 23.0933 156.515 22.8C156.915 22.5067 157.262 22.24 157.555 22C157.875 21.7333 158.142 21.5333 158.355 21.4C158.569 21.24 158.702 21.16 158.755 21.16C158.862 21.16 158.995 21.12 159.155 21.04C159.315 20.96 159.449 20.8667 159.555 20.76C159.662 20.6533 159.742 20.6 159.795 20.6C159.875 20.5733 159.915 20.56 159.915 20.56C159.915 20.56 159.969 20.56 160.075 20.56C160.182 20.5333 160.289 20.4667 160.395 20.36C160.609 20.2 160.889 20.16 161.235 20.24C161.582 20.2933 161.902 20.4267 162.195 20.64C162.489 20.8533 162.635 21.0933 162.635 21.36C162.635 21.4667 162.662 21.56 162.715 21.64C162.795 21.6933 162.835 21.72 162.835 21.72C163.049 21.72 163.182 22.0533 163.235 22.72C163.315 23.3867 163.249 24.0267 163.035 24.64C163.035 25.04 162.955 25.52 162.795 26.08C162.662 26.64 162.542 27.1733 162.435 27.68C162.222 28.3467 162.075 28.9333 161.995 29.44C161.915 29.9467 161.902 30.3733 161.955 30.72C162.009 31.0667 162.102 31.3467 162.235 31.56C162.342 31.7467 162.342 31.96 162.235 32.2C162.129 32.4133 161.915 32.52 161.595 32.52ZM181.051 31.72C180.837 31.7467 180.531 31.6267 180.131 31.36C179.757 31.0933 179.411 30.7867 179.091 30.44C178.904 30.1467 178.731 29.7067 178.571 29.12C178.411 28.5333 178.291 27.88 178.211 27.16C178.131 26.44 178.091 25.7467 178.091 25.08C178.117 24.4133 178.184 23.68 178.291 22.88C178.424 22.0533 178.544 21.2933 178.651 20.6C178.784 19.9067 178.877 19.44 178.931 19.2C179.171 18.9333 179.397 18.7467 179.611 18.64C179.851 18.5333 180.064 18.5067 180.251 18.56C180.437 18.6133 180.611 18.76 180.771 19C181.144 19.1867 181.317 19.48 181.291 19.88C181.291 20.28 181.171 20.7467 180.931 21.28C180.931 21.4133 180.904 21.6 180.851 21.84C180.797 22.0533 180.744 22.2533 180.691 22.44C180.477 22.8133 180.357 23.1467 180.331 23.44C180.331 23.7067 180.371 24.0133 180.451 24.36C180.531 24.7067 180.464 25.0267 180.251 25.32V25.28C180.224 25.4667 180.211 25.7867 180.211 26.24C180.237 26.6933 180.277 27.1467 180.331 27.6C180.411 28.0267 180.517 28.3333 180.651 28.52C180.677 28.76 180.811 28.88 181.051 28.88C181.317 28.8533 181.651 28.6667 182.051 28.32C182.371 28 182.731 27.6 183.131 27.12C183.557 26.64 183.944 26.1467 184.291 25.64C184.664 25.1333 184.957 24.6933 185.171 24.32C185.411 23.9467 185.504 23.7067 185.451 23.6C185.344 23.3867 185.397 23.2133 185.611 23.08C185.851 22.92 186.051 22.7733 186.211 22.64C186.344 22.48 186.424 22.32 186.451 22.16C186.477 21.9733 186.544 21.7867 186.651 21.6C186.784 21.4667 186.891 21.28 186.971 21.04C186.891 20.8533 186.944 20.6933 187.131 20.56C187.344 20.4 187.477 20.24 187.531 20.08C187.584 19.8133 187.677 19.6267 187.811 19.52C187.971 19.4133 188.144 19.3867 188.331 19.44C188.517 19.4667 188.677 19.56 188.811 19.72C188.971 19.8533 189.064 20.0533 189.091 20.32C189.091 20.64 188.971 21.1067 188.731 21.72C188.517 22.3333 188.237 22.9867 187.891 23.68C187.544 24.3733 187.171 25 186.771 25.56C186.637 25.7733 186.517 25.9867 186.411 26.2C186.304 26.4133 186.131 26.6933 185.891 27.04C185.677 27.3867 185.304 27.8933 184.771 28.56C184.557 28.7733 184.344 29 184.131 29.24C183.917 29.4533 183.704 29.6533 183.491 29.84C182.984 30.4267 182.544 30.88 182.171 31.2C181.797 31.52 181.424 31.6933 181.051 31.72ZM197.173 31.6C196.613 32.08 195.959 32.36 195.213 32.44C194.493 32.52 193.786 32.4133 193.093 32.12C192.399 31.8 191.826 31.32 191.373 30.68C190.919 30.0933 190.626 29.4267 190.493 28.68C190.359 27.9067 190.346 26.9067 190.453 25.68C190.533 24.64 190.866 23.6 191.453 22.56C192.039 21.4933 192.746 20.5467 193.573 19.72C194.426 18.8933 195.266 18.32 196.093 18C196.493 17.7333 196.826 17.6133 197.093 17.64C197.386 17.64 197.826 17.6667 198.413 17.72C199.026 17.8 199.479 17.92 199.773 18.08C200.093 18.24 200.346 18.4533 200.533 18.72C200.933 19.12 201.199 19.52 201.333 19.92C201.466 20.2933 201.533 20.6667 201.533 21.04C201.426 21.6267 201.026 22.3467 200.333 23.2C199.666 24.0267 198.786 24.7067 197.693 25.24C197.106 25.4267 196.466 25.5067 195.773 25.48C195.079 25.4533 194.506 25.28 194.053 24.96C193.546 24.7467 193.213 24.7867 193.053 25.08C192.893 25.3467 192.746 26.0133 192.613 27.08C192.506 28.0933 192.586 28.84 192.853 29.32C193.119 29.7733 193.479 30.04 193.933 30.12C194.466 30.2267 194.879 30.3067 195.173 30.36C195.493 30.3867 195.879 30.2667 196.333 30C196.759 29.7333 197.026 29.5867 197.133 29.56C197.239 29.5067 197.319 29.4533 197.373 29.4C197.453 29.32 197.626 29.1467 197.893 28.88C198.079 28.6933 198.226 28.56 198.333 28.48C198.439 28.3733 198.559 28.32 198.693 28.32C198.826 28.32 198.946 28.3867 199.053 28.52C199.159 28.6267 199.266 28.7067 199.373 28.76C199.639 28.76 199.693 28.92 199.533 29.24C199.399 29.56 199.119 29.9467 198.693 30.4C198.266 30.8267 197.759 31.2267 197.173 31.6ZM197.133 23.12C197.426 22.9867 197.733 22.8 198.053 22.56C198.373 22.2933 198.639 22.0133 198.853 21.72C199.093 21.4 199.213 21.1333 199.213 20.92C199.213 20.5467 199.039 20.24 198.693 20C198.346 19.7333 197.826 19.6933 197.133 19.88C196.839 19.96 196.506 20.16 196.133 20.48C195.759 20.7733 195.399 21.1067 195.053 21.48C194.733 21.8533 194.466 22.1867 194.253 22.48C194.066 22.7733 193.999 22.9467 194.053 23C194.133 23.1333 194.359 23.24 194.733 23.32C195.106 23.3733 195.519 23.3867 195.973 23.36C196.453 23.3333 196.839 23.2533 197.133 23.12ZM203.901 31.6C203.661 31.4133 203.487 31.2267 203.381 31.04C203.301 30.8533 203.301 30.4933 203.381 29.96C203.461 29.2133 203.567 28.56 203.701 28C203.834 27.4133 203.994 26.7467 204.181 26C204.234 25.68 204.381 25.1333 204.621 24.36C204.887 23.5867 205.207 22.7467 205.581 21.84C205.954 20.9333 206.327 20.08 206.701 19.28C207.074 18.4533 207.394 17.84 207.661 17.44C207.874 17.28 208.127 17.2133 208.421 17.24C208.741 17.2667 209.007 17.3867 209.221 17.6C209.514 17.84 209.554 18.2667 209.341 18.88C209.154 19.4667 208.754 20.4 208.141 21.68C207.821 22.4 207.581 22.9467 207.421 23.32C207.261 23.6667 207.194 23.88 207.221 23.96C207.247 24.0133 207.367 23.9733 207.581 23.84C207.741 23.5467 208.034 23.2133 208.461 22.84C208.887 22.44 209.341 22.0533 209.821 21.68C210.301 21.3067 210.754 20.9733 211.181 20.68C211.607 20.3867 211.901 20.2 212.061 20.12C212.274 19.9867 212.514 19.88 212.781 19.8C213.074 19.6933 213.274 19.6133 213.381 19.56C213.994 19.2667 214.621 19.16 215.261 19.24C215.901 19.32 216.301 19.56 216.461 19.96C216.487 20.1733 216.567 20.3333 216.701 20.44C216.861 20.5467 216.941 20.6 216.941 20.6C217.047 20.6 217.101 20.64 217.101 20.72C217.127 20.8 217.141 20.84 217.141 20.84C217.141 21.0267 216.994 21.1467 216.701 21.2C216.434 21.2267 216.087 21.2533 215.661 21.28C215.314 21.3067 215.007 21.3733 214.741 21.48C214.474 21.5867 214.154 21.72 213.781 21.88C212.767 22.4667 211.794 23.04 210.861 23.6C209.954 24.16 209.074 24.9067 208.221 25.84C208.034 26.0533 207.847 26.3067 207.661 26.6C207.474 26.8933 207.274 27.2133 207.061 27.56C206.927 27.6933 206.794 27.9867 206.661 28.44C206.527 28.8933 206.407 29.3333 206.301 29.76C206.221 30.16 206.181 30.4 206.181 30.48C206.181 30.48 206.141 30.6133 206.061 30.88C205.981 31.12 205.847 31.36 205.661 31.6C205.341 32.0267 205.074 32.24 204.861 32.24C204.647 32.24 204.327 32.0267 203.901 31.6ZM221.355 32.64C220.688 32.6933 220.048 32.6533 219.435 32.52C218.848 32.3867 218.341 32.16 217.915 31.84C217.515 31.4933 217.235 31.08 217.075 30.6C216.888 30.2267 216.795 29.9733 216.795 29.84C216.795 29.68 216.888 29.5467 217.075 29.44C217.288 29.44 217.475 29.5067 217.635 29.64C217.821 29.7467 218.061 29.8667 218.355 30C218.755 30.3467 219.235 30.5333 219.795 30.56C220.381 30.5867 220.915 30.4933 221.395 30.28C221.875 30.0667 222.141 29.8 222.195 29.48C222.195 29.3733 222.155 29.1867 222.075 28.92C221.995 28.6533 221.901 28.3733 221.795 28.08C221.075 27.0667 220.541 26.0667 220.195 25.08C219.875 24.0667 219.715 23.24 219.715 22.6C219.715 22.12 219.861 21.6133 220.155 21.08C220.448 20.52 220.848 20.0533 221.355 19.68C221.835 19.1733 222.368 18.72 222.955 18.32C223.541 17.92 224.128 17.5733 224.715 17.28C225.328 16.9867 225.875 16.7733 226.355 16.64C226.648 16.64 227.035 16.68 227.515 16.76C227.995 16.84 228.328 16.9333 228.515 17.04C228.808 17.1467 229.088 17.44 229.355 17.92C229.621 18.3733 229.755 18.8267 229.755 19.28C229.755 19.4667 229.701 19.7067 229.595 20C229.488 20.2933 229.315 20.64 229.075 21.04C228.968 21.3333 228.848 21.6133 228.715 21.88C228.581 22.12 228.515 22.2933 228.515 22.4C228.381 22.6933 228.195 22.84 227.955 22.84C227.741 22.8133 227.515 22.6933 227.275 22.48C227.061 22.24 226.888 21.96 226.755 21.64C226.648 21.24 226.608 20.92 226.635 20.68C226.661 20.4133 226.768 20.1333 226.955 19.84C227.248 19.5467 227.395 19.3467 227.395 19.24C227.395 19.1333 227.248 19.08 226.955 19.08C226.768 19.08 226.421 19.2 225.915 19.44C225.435 19.6533 224.915 19.9467 224.355 20.32C223.821 20.6667 223.355 21.04 222.955 21.44C222.448 21.92 222.141 22.2667 222.035 22.48C221.955 22.6933 221.915 23.0267 221.915 23.48C221.915 23.8533 221.995 24.32 222.155 24.88C222.341 25.44 222.528 25.8133 222.715 26C222.715 26 222.808 26.1867 222.995 26.56C223.181 26.9067 223.408 27.28 223.675 27.68C224.448 29.3867 224.648 30.6133 224.275 31.36C223.901 32.1067 222.928 32.5333 221.355 32.64ZM235.028 33.12C233.854 33.12 232.894 32.68 232.148 31.8C231.401 30.8933 231.041 29.7733 231.068 28.44C231.121 27.48 231.308 26.4533 231.628 25.36C231.974 24.24 232.428 23.1733 232.988 22.16C233.548 21.12 234.161 20.2133 234.828 19.44C235.494 18.6667 236.188 18.12 236.908 17.8C237.174 17.6667 237.454 17.56 237.747 17.48C238.068 17.4 238.388 17.36 238.708 17.36C239.001 17.36 239.308 17.4133 239.628 17.52C239.948 17.6 240.214 17.6933 240.428 17.8C240.881 17.9867 241.228 18.2133 241.468 18.48C241.708 18.7467 241.921 19.16 242.108 19.72C242.188 20.2267 242.228 20.5867 242.228 20.8C242.228 21.0133 242.161 21.3333 242.028 21.76C241.708 22.72 241.294 23.5467 240.788 24.24C240.281 24.9333 239.601 25.52 238.748 26C238.534 26.1333 238.281 26.24 237.988 26.32C237.721 26.3733 237.441 26.4 237.148 26.4C236.614 26.4 236.094 26.3067 235.588 26.12C235.108 25.9067 234.721 25.6 234.428 25.2L234.148 24.88L234.028 25.2C233.761 25.92 233.548 26.5867 233.388 27.2C233.254 27.8133 233.188 28.3733 233.188 28.88C233.188 29.2 233.214 29.5067 233.268 29.8C233.348 30.0933 233.454 30.3467 233.588 30.56C233.694 30.72 233.868 30.84 234.108 30.92C234.374 30.9733 234.654 31 234.948 31C235.134 31 235.321 31 235.508 31C235.721 30.9733 235.921 30.92 236.108 30.84C236.561 30.68 236.921 30.5067 237.188 30.32C237.481 30.1333 237.774 29.9333 238.068 29.72L238.228 29.64H238.188C238.508 29.48 238.788 29.32 239.028 29.16C239.294 29 239.428 28.92 239.428 28.92C239.534 28.92 239.641 28.8533 239.748 28.72C239.961 28.6133 240.228 28.6533 240.548 28.84C240.894 29.0267 241.068 29.2667 241.068 29.56C241.041 29.6933 240.921 29.9067 240.708 30.2C240.494 30.4667 240.254 30.72 239.988 30.96C239.748 31.2 239.548 31.3333 239.388 31.36C239.361 31.3867 239.268 31.44 239.108 31.52C238.948 31.5733 238.841 31.6267 238.788 31.68H238.828C238.588 32 238.348 32.16 238.108 32.16H237.788C237.681 32.3467 237.334 32.56 236.748 32.8C236.161 33.0133 235.588 33.12 235.028 33.12ZM236.828 24.32C237.308 24.32 237.721 24.1867 238.068 23.92C238.441 23.6267 238.761 23.3067 239.028 22.96C239.561 22.24 239.868 21.5467 239.948 20.88C240.054 20.1867 239.974 19.7067 239.708 19.44C239.548 19.36 239.401 19.32 239.268 19.32C239.161 19.2933 238.934 19.3333 238.588 19.44C238.348 19.4933 238.014 19.6933 237.588 20.04C237.161 20.3867 236.734 20.7733 236.308 21.2C235.908 21.6267 235.601 21.9867 235.388 22.28L234.868 23.12C235.081 23.04 235.281 23 235.468 23C235.681 22.9733 235.801 22.9867 235.828 23.04C235.828 23.28 235.868 23.5067 235.948 23.72C236.054 23.9067 236.174 24.0533 236.308 24.16C236.468 24.2667 236.641 24.32 236.828 24.32ZM247.875 32.44C246.542 32.44 245.569 31.96 244.955 31C244.769 30.7333 244.675 30.4667 244.675 30.2C244.702 29.9067 244.782 29.7067 244.915 29.6C245.075 29.4933 245.262 29.5867 245.475 29.88C245.849 30.0933 246.382 30.2 247.075 30.2C247.422 30.2 247.782 30.1733 248.155 30.12C248.529 30.04 248.902 29.9333 249.275 29.8C249.675 29.6133 249.942 29.4533 250.075 29.32C250.209 29.16 250.182 29.0267 249.995 28.92H250.035C249.342 28.7333 248.635 28.44 247.915 28.04C247.222 27.6133 246.622 27.16 246.115 26.68C245.609 26.1733 245.315 25.72 245.235 25.32C245.022 24.4933 245.075 23.6533 245.395 22.8C245.715 21.92 246.169 21.1467 246.755 20.48C246.969 20.3467 247.235 20.1867 247.555 20C247.875 19.7867 248.129 19.6667 248.315 19.64V19.68C248.822 19.1467 249.435 18.72 250.155 18.4C250.902 18.08 251.689 17.7867 252.515 17.52L253.115 17.44C253.435 17.3867 253.702 17.36 253.915 17.36C253.889 17.36 253.942 17.3867 254.075 17.44C254.209 17.4667 254.329 17.4933 254.435 17.52C254.595 17.6 254.729 17.64 254.835 17.64C255.182 17.6933 255.502 17.8533 255.795 18.12C256.089 18.3867 256.315 18.7067 256.475 19.08C256.662 19.4267 256.729 19.76 256.675 20.08C256.622 20.5867 256.462 21.04 256.195 21.44C255.955 21.84 255.662 22.0667 255.315 22.12C255.369 22.0933 255.329 22.0533 255.195 22C255.089 21.92 254.969 21.84 254.835 21.76L254.715 21.84C254.715 21.84 254.702 21.8133 254.675 21.76C254.675 21.68 254.649 21.5867 254.595 21.48C254.515 21.32 254.475 21.1467 254.475 20.96C254.475 20.7467 254.489 20.52 254.515 20.28C254.569 19.9867 254.569 19.8133 254.515 19.76C254.489 19.7067 254.315 19.6667 253.995 19.64C253.622 19.56 253.075 19.6267 252.355 19.84C251.662 20.0533 251.075 20.3467 250.595 20.72C250.009 21.0933 249.515 21.4533 249.115 21.8C248.715 22.12 248.395 22.44 248.155 22.76C247.915 23.0533 247.702 23.4 247.515 23.8C247.382 23.9867 247.262 24.1733 247.155 24.36C247.075 24.52 247.035 24.6667 247.035 24.8C247.035 25.0933 247.249 25.4 247.675 25.72C248.129 26.0133 248.795 26.36 249.675 26.76C250.369 27.0533 250.955 27.3733 251.435 27.72C251.915 28.0667 252.249 28.4667 252.435 28.92C252.489 29.0267 252.502 29.16 252.475 29.32C252.475 29.4533 252.449 29.5467 252.395 29.6C252.449 29.6533 252.475 29.6933 252.475 29.72V29.68C252.689 30 252.689 30.3333 252.475 30.68C252.289 31.0267 251.955 31.3333 251.475 31.6C251.022 31.84 250.462 32.0267 249.795 32.16H249.835C249.489 32.2667 249.142 32.3467 248.795 32.4C248.475 32.4267 248.169 32.44 247.875 32.44ZM38.4863 71.2C38.0863 71.2 37.7129 70.96 37.3663 70.48C37.0463 69.9733 36.8063 69.3333 36.6463 68.56C36.5129 67.76 36.4729 66.9333 36.5263 66.08C36.5263 65.2267 36.5663 64.5467 36.6463 64.04C36.7529 63.5067 36.8596 62.9867 36.9663 62.48C37.0463 62.32 37.0863 62.1867 37.0863 62.08C37.1129 61.9733 37.1396 61.8 37.1663 61.56C37.2196 61.32 37.3129 60.92 37.4463 60.36C37.5529 59.9067 37.6596 59.5333 37.7663 59.24C37.8729 58.9467 37.9796 58.7467 38.0863 58.64C38.2196 58.48 38.3929 58.3867 38.6063 58.36C38.8196 58.3067 39.0329 58.32 39.2463 58.4C39.4596 58.48 39.6329 58.6267 39.7663 58.84C39.9263 58.9733 40.0063 59.28 40.0063 59.76C40.0329 60.2133 40.0063 60.6933 39.9263 61.2C39.8463 61.68 39.7263 62.0267 39.5663 62.24C39.5129 62.3733 39.4463 62.72 39.3663 63.28C39.3129 63.84 39.2463 64.4267 39.1663 65.04C39.1129 65.6533 39.0463 66.1467 38.9663 66.52C38.8863 67 38.9263 67.3867 39.0863 67.68C39.2729 67.9733 39.6063 67.9867 40.0863 67.72C40.5929 67.4267 41.2596 66.68 42.0863 65.48C42.6463 64.68 43.0729 64.0267 43.3663 63.52C43.6596 63.0133 43.8863 62.5467 44.0463 62.12C44.2329 61.6667 44.4196 61.1867 44.6063 60.68C44.7396 60.2533 44.8596 59.9067 44.9663 59.64C45.0996 59.3467 45.2196 59.16 45.3263 59.08C45.5129 58.9467 45.7263 58.8933 45.9663 58.92C46.2329 58.9467 46.5263 59.0667 46.8463 59.28C47.1663 59.6 47.3263 59.9867 47.3263 60.44C47.3263 60.8667 47.1663 61.4 46.8463 62.04C46.6329 62.4667 46.4196 63.0133 46.2063 63.68C46.0196 64.3467 45.8596 65.0267 45.7263 65.72C45.6196 66.3867 45.5663 66.9333 45.5663 67.36C45.5663 67.8933 45.6329 68.2133 45.7663 68.32C45.9263 68.4 46.1129 68.44 46.3263 68.44C46.6463 68.44 47.0329 68.32 47.4863 68.08C47.9396 67.84 48.4463 67.4267 49.0063 66.84C49.2463 66.6 49.5396 66.2533 49.8863 65.8C50.2329 65.32 50.5663 64.8267 50.8863 64.32C51.2329 63.7867 51.5129 63.32 51.7263 62.92C51.9663 62.52 52.0863 62.2667 52.0863 62.16C52.0863 62 52.2063 61.7733 52.4463 61.48C52.6063 61.2667 52.7263 61.1067 52.8063 61C52.9129 60.8667 53.0996 60.7333 53.3663 60.6C53.5796 60.4933 53.7663 60.48 53.9263 60.56C54.0863 60.6133 54.2596 60.7467 54.4463 60.96C54.5796 61.0667 54.6463 61.2267 54.6463 61.44C54.6729 61.6533 54.6863 61.92 54.6863 62.24C54.6063 62.5333 54.4729 62.92 54.2863 63.4C54.1263 63.8533 53.9396 64.2933 53.7263 64.72C53.5396 65.12 53.3796 65.4 53.2463 65.56C53.1396 65.6667 52.9529 65.8667 52.6863 66.16C52.4196 66.4267 52.1796 66.72 51.9662 67.04C51.2996 67.84 50.8196 68.36 50.5263 68.6C50.2329 68.84 49.9796 69.0667 49.7663 69.28C49.2063 69.84 48.6196 70.2667 48.0063 70.56C47.3929 70.8267 46.8063 70.96 46.2463 70.96C45.7129 70.96 45.2596 70.8267 44.8863 70.56C44.0596 70.1333 43.6463 69.4133 43.6463 68.4C43.6463 68.1867 43.6063 68 43.5263 67.84C43.4729 67.6533 43.4463 67.56 43.4463 67.56C43.3396 67.56 43.1929 67.5867 43.0063 67.64C42.8463 67.6933 42.6729 67.88 42.4863 68.2C42.2463 68.6533 41.8596 69.12 41.3263 69.6C40.8196 70.0533 40.2996 70.44 39.7663 70.76C39.2329 71.0533 38.8063 71.2 38.4863 71.2ZM56.8303 71.04C56.7236 71.04 56.5903 71.0133 56.4303 70.96C56.297 70.88 56.2303 70.84 56.2303 70.84C56.2303 70.7333 56.1903 70.6 56.1103 70.44C56.057 70.28 56.0303 70.1467 56.0303 70.04C55.8436 69.9333 55.737 69.8267 55.7103 69.72C55.6836 69.5867 55.7236 69.3733 55.8303 69.08C55.9903 68.8133 56.2036 68.3867 56.4703 67.8C56.737 67.1867 57.017 66.5333 57.3103 65.84C57.6036 65.12 57.8836 64.4133 58.1503 63.72C58.417 63.0267 58.6436 62.44 58.8303 61.96C59.017 61.4533 59.1236 61.1467 59.1503 61.04C59.1503 60.9333 59.1903 60.8 59.2703 60.64C59.3503 60.48 59.4436 60.3467 59.5503 60.24C59.7636 60.0533 59.9903 60.04 60.2303 60.2C60.4703 60.3333 60.6703 60.5733 60.8303 60.92C61.017 61.24 61.1103 61.6 61.1103 62C61.1103 62.1867 60.977 62.6667 60.7103 63.44C60.4436 64.1867 60.0836 65.08 59.6303 66.12C59.2036 67.16 58.7236 68.2133 58.1903 69.28C57.7903 70.0533 57.537 70.5467 57.4303 70.76C57.3236 70.9467 57.1236 71.04 56.8303 71.04ZM62.7103 55.88C62.3903 55.88 62.0436 55.76 61.6703 55.52C61.3236 55.2533 61.017 54.9333 60.7503 54.56C60.5103 54.16 60.3903 53.76 60.3903 53.36C60.3903 53.2267 60.4703 53.04 60.6303 52.8C60.7903 52.56 60.9503 52.32 61.1103 52.08C61.2703 51.84 61.3503 51.6933 61.3503 51.64C61.5636 51.64 61.7236 51.6533 61.8303 51.68C61.9636 51.68 62.1236 51.7333 62.3103 51.84C62.6036 52.5067 62.9636 53.0533 63.3903 53.48C63.8436 53.9067 64.0703 54.2667 64.0703 54.56C64.0703 55.1467 64.017 55.52 63.9103 55.68C63.8036 55.8133 63.4036 55.88 62.7103 55.88ZM68.5313 72.92C68.1579 72.8133 67.8513 72.6933 67.6113 72.56C67.3713 72.4 67.0513 72.1467 66.6513 71.8C66.3313 71.3733 66.0779 70.9733 65.8913 70.6C65.7313 70.2267 65.6246 69.8 65.5713 69.32C65.5179 68.8133 65.4913 68.1733 65.4913 67.4C65.4913 67.08 65.5446 66.6 65.6513 65.96C65.7846 65.32 65.9313 64.6533 66.0913 63.96C66.2779 63.24 66.4379 62.6 66.5713 62.04C66.7313 61.48 66.8246 61.12 66.8513 60.96C66.9313 60.6133 66.7979 60.4133 66.4513 60.36C66.1046 60.3067 65.7179 60.2933 65.2913 60.32C64.8913 60.32 64.6246 60.28 64.4913 60.2C64.3846 60.1733 64.3313 60.1333 64.3313 60.08C64.3313 60 64.3313 59.96 64.3313 59.96C64.3313 59.8533 64.3179 59.7867 64.2913 59.76C64.2913 59.7067 64.2513 59.6133 64.1713 59.48C64.1179 59.3733 64.1446 59.2267 64.2513 59.04C64.3846 58.8267 64.5979 58.6933 64.8913 58.64C65.1313 58.5867 65.4513 58.5467 65.8513 58.52C66.2779 58.4667 66.7046 58.3733 67.1313 58.24C67.5579 58.08 67.9046 57.84 68.1713 57.52C68.4113 56.9333 68.6913 56.28 69.0113 55.56C69.3313 54.84 69.6379 54.2 69.9313 53.64C70.2513 53.0533 70.4646 52.6933 70.5713 52.56C71.0246 52.32 71.3579 52.2267 71.5713 52.28C71.7846 52.3067 72.0246 52.5333 72.2913 52.96C72.4246 53.1467 72.5179 53.2933 72.5713 53.4C72.6513 53.5067 72.6646 53.6667 72.6113 53.88C72.5579 54.0933 72.4113 54.4267 72.1713 54.88C71.9579 55.3333 71.6246 55.9867 71.1713 56.84C71.0379 57.1067 70.9179 57.3467 70.8113 57.56C70.7046 57.7467 70.6513 57.84 70.6513 57.84C70.7579 57.8667 70.9179 57.88 71.1313 57.88C71.3446 57.88 71.6113 57.8667 71.9313 57.84C72.2246 57.7867 72.5979 57.7467 73.0513 57.72C73.5046 57.6667 73.8646 57.6667 74.1313 57.72C74.7446 57.72 75.1979 57.84 75.4913 58.08C75.7846 58.2933 75.9446 58.6667 75.9713 59.2C76.0246 59.4933 75.9579 59.6667 75.7713 59.72C75.6113 59.7733 75.1713 59.8 74.4513 59.8C74.2113 59.8 73.8379 59.8133 73.3313 59.84C72.8246 59.8667 72.2913 59.8933 71.7313 59.92C71.1979 59.9467 70.7313 59.9867 70.3313 60.04C69.9579 60.0667 69.7713 60.1067 69.7713 60.16C69.6913 60.2133 69.5579 60.4667 69.3713 60.92C69.2113 61.3733 69.0379 61.8933 68.8513 62.48C68.6913 63.04 68.5446 63.5467 68.4113 64C68.2246 64.9067 68.0779 65.8133 67.9713 66.72C67.8913 67.6267 67.8779 68.4133 67.9313 69.08C67.9846 69.7467 68.1313 70.2133 68.3713 70.48C68.6113 70.72 69.0779 70.7733 69.7713 70.64C70.4646 70.48 71.0246 70.2267 71.4513 69.88C71.9313 69.48 72.3179 69.28 72.6113 69.28C72.9313 69.28 73.1046 69.4267 73.1313 69.72C73.1846 69.9867 73.0379 70.3733 72.6913 70.88C72.3713 71.36 71.9713 71.7867 71.4913 72.16C71.0113 72.5067 70.5046 72.76 69.9713 72.92C69.4646 73.0533 68.9846 73.0533 68.5313 72.92ZM90.6934 72.12C90.1868 72.2533 89.8134 72.3067 89.5734 72.28C89.3334 72.2267 89.0134 72 88.6134 71.6C88.3734 71.2267 88.1601 70.8933 87.9734 70.6C87.7868 70.3067 87.6668 69.7867 87.6134 69.04C87.5868 68.5333 87.6134 67.9867 87.6934 67.4C87.8001 66.7867 87.8401 66.3467 87.8134 66.08C88.0268 65.0933 88.1068 64.3067 88.0534 63.72C88.0268 63.1067 87.9468 62.8 87.8134 62.8C87.5201 62.7467 86.9868 63.04 86.2134 63.68C85.4668 64.2933 84.6001 65.1067 83.6134 66.12C82.6534 67.1067 81.6934 68.1467 80.7334 69.24C80.2268 69.9333 79.8668 70.4533 79.6534 70.8C79.4401 71.12 79.2801 71.28 79.1734 71.28C78.9868 71.28 78.7334 71.2133 78.4134 71.08C78.0934 70.9467 77.8134 70.7867 77.5734 70.6C77.3334 70.3867 77.2001 70.2 77.1734 70.04C77.1734 69.9333 77.2401 69.6533 77.3734 69.2C77.5068 68.72 77.6668 68.1733 77.8534 67.56C78.0668 66.9467 78.2534 66.3733 78.4134 65.84C78.5734 65.3067 78.6934 64.9333 78.7734 64.72C79.0134 64.0267 79.2934 63.1867 79.6134 62.2C79.9601 61.1867 80.2668 60.2933 80.5334 59.52C80.6401 59.1733 80.8268 58.68 81.0934 58.04C81.3601 57.3733 81.6268 56.7067 81.8934 56.04C82.1601 55.3733 82.3468 54.88 82.4534 54.56C82.5334 54.3467 82.6801 53.9733 82.8934 53.44C83.1068 52.88 83.3334 52.2667 83.5734 51.6C83.8401 50.9333 84.0801 50.32 84.2934 49.76C84.5334 49.1733 84.6934 48.7467 84.7734 48.48C84.7468 48.24 84.7601 48.0267 84.8134 47.84C84.8934 47.6267 84.9734 47.4667 85.0534 47.36C85.1601 47.36 85.2801 47.36 85.4134 47.36C85.5468 47.3333 85.6134 47.32 85.6134 47.32C85.6134 47.2667 85.7201 47.32 85.9334 47.48C86.1468 47.64 86.3468 47.84 86.5334 48.08C86.7468 48.2933 86.8534 48.48 86.8534 48.64C86.9868 48.9867 87.0001 49.44 86.8934 50C86.7868 50.5333 86.5068 51.3467 86.0534 52.44C85.7601 52.8667 85.4668 53.5067 85.1734 54.36C84.9068 55.2133 84.6401 55.9333 84.3734 56.52C84.2668 56.7067 84.0668 57.1067 83.7734 57.72C83.5068 58.3333 83.1868 59.0533 82.8134 59.88C82.4668 60.7067 82.1334 61.5467 81.8134 62.4C81.4934 63.2267 81.2401 63.9733 81.0534 64.64C80.7868 65.28 80.6934 65.7067 80.7734 65.92C80.8534 66.1333 81.1734 65.8933 81.7334 65.2C82.4801 64.4 83.2668 63.5867 84.0934 62.76C84.9201 61.9333 85.6934 61.24 86.4134 60.68C87.1601 60.0933 87.7601 59.8267 88.2134 59.88C88.4534 59.9333 88.7068 60.0933 88.9734 60.36C89.2668 60.6267 89.5468 60.9333 89.8134 61.28C90.0801 61.6267 90.2668 61.96 90.3734 62.28C90.4801 62.68 90.5468 63.0267 90.5734 63.32C90.6268 63.6133 90.6401 64.0533 90.6134 64.64C90.5868 65.2 90.5201 66.0933 90.4134 67.32C90.2534 68.2267 90.1468 68.88 90.0934 69.28C90.0401 69.6533 90.0534 69.92 90.1334 70.08C90.2401 70.24 90.4001 70.4133 90.6134 70.6C91.0134 70.92 91.2134 71.2 91.2134 71.44C91.2401 71.68 91.0668 71.9067 90.6934 72.12ZM109.865 75.84C109.465 75.76 109.025 75.6 108.545 75.36C108.065 75.12 107.625 74.8133 107.225 74.44C106.825 74.0933 106.532 73.7333 106.345 73.36C105.678 72 105.305 70.56 105.225 69.04C105.172 67.4933 105.372 65.6267 105.825 63.44C105.958 62.9867 106.132 62.3733 106.345 61.6C106.585 60.8267 106.838 60.0533 107.105 59.28C107.372 58.5067 107.612 57.8533 107.825 57.32C108.038 56.7867 108.172 56.52 108.225 56.52C108.305 56.44 108.345 56.2133 108.345 55.84C108.345 55.7067 108.452 55.4267 108.665 55C108.905 54.5467 109.198 54.04 109.545 53.48C109.918 52.92 110.292 52.3867 110.665 51.88C111.065 51.3467 111.438 50.9333 111.785 50.64C112.318 49.9467 112.918 49.36 113.585 48.88C114.278 48.3733 114.958 47.9467 115.625 47.6C115.785 47.4933 116.012 47.3733 116.305 47.24C116.625 47.1067 116.972 46.9867 117.345 46.88C117.718 46.7733 118.052 46.7067 118.345 46.68C119.678 46.6 120.678 46.76 121.345 47.16C122.012 47.56 122.598 48.28 123.105 49.32C123.638 49.9067 123.932 50.4667 123.985 51C124.038 51.5333 124.118 52.1867 124.225 52.96C124.225 53.68 124.145 54.5333 123.985 55.52C123.852 56.48 123.665 57.44 123.425 58.4C123.185 59.3333 122.918 60.12 122.625 60.76C122.332 61.3733 122.052 61.68 121.785 61.68C121.785 61.68 121.745 61.6933 121.665 61.72C121.585 61.72 121.545 61.7867 121.545 61.92C121.598 62.1067 121.545 62.5333 121.385 63.2C121.225 63.84 120.945 64.5467 120.545 65.32C119.692 67.72 118.678 69.7333 117.505 71.36C116.358 72.96 115.132 74.1467 113.825 74.92C112.518 75.6933 111.198 76 109.865 75.84ZM118.105 78.04C117.678 78.0667 117.252 77.9067 116.825 77.56C116.398 77.24 116.132 76.9067 116.025 76.56C115.838 76.4 115.745 76.24 115.745 76.08C115.745 75.9467 115.718 75.8533 115.665 75.8C115.558 75.7467 115.412 75.6 115.225 75.36C115.038 75.1467 114.905 74.8933 114.825 74.6C114.638 74.2267 114.358 73.6933 113.985 73C113.638 72.28 113.265 71.5467 112.865 70.8C112.465 70.0267 112.105 69.36 111.785 68.8C111.492 68.2133 111.318 67.88 111.265 67.8C111.052 67.5867 111.078 67.32 111.345 67C111.478 66.68 111.625 66.4933 111.785 66.44C111.972 66.3867 112.318 66.4267 112.825 66.56C113.438 66.56 113.998 67.2 114.505 68.48C114.532 68.6133 114.652 68.9333 114.865 69.44C115.078 69.9467 115.318 70.4533 115.585 70.96C115.852 71.44 116.065 71.7467 116.225 71.88C116.358 72.1733 116.505 72.5067 116.665 72.88C116.825 73.2533 116.998 73.56 117.185 73.8C117.265 74.0933 117.438 74.4133 117.705 74.76C117.972 75.1067 118.158 75.4667 118.265 75.84C118.878 76.8 119.172 77.4133 119.145 77.68C119.145 77.9467 118.798 78.0667 118.105 78.04ZM110.185 73.52C111.305 73.3867 112.412 72.76 113.505 71.64C114.625 70.4933 115.678 69 116.665 67.16C117.678 65.2933 118.585 63.2267 119.385 60.96C119.625 60.2933 119.918 59.56 120.265 58.76C120.612 57.9333 120.918 57.0267 121.185 56.04C121.452 55.0533 121.585 54.0133 121.585 52.92C121.745 51.7467 121.705 50.88 121.465 50.32C121.225 49.76 120.785 49.3333 120.145 49.04C119.292 48.72 118.345 48.7867 117.305 49.24C116.292 49.6667 115.292 50.4533 114.305 51.6C113.318 52.7467 112.438 54.2533 111.665 56.12C110.572 58.44 109.705 60.52 109.065 62.36C108.425 64.2 108.012 65.8533 107.825 67.32C107.638 68.7867 107.678 70.12 107.945 71.32C107.998 72.1467 108.212 72.76 108.585 73.16C108.985 73.5867 109.518 73.7067 110.185 73.52ZM134.263 72.92C133.996 72.6533 133.73 72.2933 133.463 71.84C133.196 71.36 132.983 70.8133 132.823 70.2C132.77 69.9867 132.743 69.6933 132.743 69.32C132.77 68.9467 132.77 68.68 132.743 68.52C132.663 68.7067 132.53 68.9067 132.343 69.12C132.183 69.3067 132.023 69.4667 131.863 69.6C131.756 69.7067 131.516 69.92 131.143 70.24C130.77 70.5333 130.396 70.7733 130.023 70.96C129.143 71.52 128.41 71.8267 127.823 71.88C127.263 71.9333 126.73 71.64 126.223 71C125.796 70.6533 125.49 70.2667 125.303 69.84C125.143 69.4133 125.143 68.8267 125.303 68.08C125.356 67.1467 125.49 66.24 125.703 65.36C125.916 64.4533 126.356 63.2533 127.023 61.76C127.583 60.6667 128.01 59.8667 128.303 59.36C128.596 58.8267 128.783 58.5067 128.863 58.4C129.263 58.2667 129.596 58.28 129.863 58.44C130.13 58.5733 130.29 58.8267 130.343 59.2C130.503 59.4667 130.476 59.92 130.263 60.56C130.076 61.2 129.743 61.9867 129.263 62.92C128.89 63.8267 128.543 64.7333 128.223 65.64C127.93 66.5467 127.756 67.32 127.703 67.96C127.65 68.6 127.81 68.9867 128.183 69.12C128.423 69.2533 128.836 69.2133 129.423 69C130.036 68.7867 130.716 68.2533 131.463 67.4C132.236 66.5467 132.983 65.2533 133.703 63.52C133.916 62.9867 134.076 62.52 134.183 62.12C134.29 61.6933 134.356 61.2267 134.383 60.72C134.33 60.4 134.343 60.12 134.423 59.88C134.53 59.6133 134.743 59.3867 135.063 59.2C135.17 59.0667 135.316 58.9467 135.503 58.84C135.69 58.7067 135.81 58.7067 135.863 58.84L136.503 58.8C136.61 58.7733 136.676 58.84 136.703 59C136.756 59.1333 136.85 59.2533 136.983 59.36C137.276 59.6 137.356 60.12 137.223 60.92C137.09 61.72 136.716 62.84 136.103 64.28C135.596 65.3733 135.25 66.2 135.063 66.76C134.903 67.32 134.81 67.8667 134.783 68.4C134.783 68.88 134.876 69.3333 135.063 69.76C135.25 70.1867 135.543 70.5733 135.943 70.92C136.236 71.1067 136.396 71.32 136.423 71.56C136.476 71.8 136.49 72.08 136.463 72.4C136.41 72.64 136.25 72.84 135.983 73C135.743 73.1333 135.463 73.2 135.143 73.2C134.823 73.2 134.53 73.1067 134.263 72.92ZM143.348 73.12C142.174 73.12 141.214 72.68 140.468 71.8C139.721 70.8933 139.361 69.7733 139.388 68.44C139.441 67.48 139.628 66.4533 139.948 65.36C140.294 64.24 140.748 63.1733 141.308 62.16C141.868 61.12 142.481 60.2133 143.148 59.44C143.814 58.6667 144.508 58.12 145.228 57.8C145.494 57.6667 145.774 57.56 146.068 57.48C146.388 57.4 146.708 57.36 147.028 57.36C147.321 57.36 147.628 57.4133 147.948 57.52C148.268 57.6 148.534 57.6933 148.748 57.8C149.201 57.9867 149.548 58.2133 149.788 58.48C150.028 58.7467 150.241 59.16 150.428 59.72C150.508 60.2267 150.548 60.5867 150.548 60.8C150.548 61.0133 150.481 61.3333 150.348 61.76C150.028 62.72 149.614 63.5467 149.108 64.24C148.601 64.9333 147.921 65.52 147.068 66C146.854 66.1333 146.601 66.24 146.308 66.32C146.041 66.3733 145.761 66.4 145.468 66.4C144.934 66.4 144.414 66.3067 143.908 66.12C143.428 65.9067 143.041 65.6 142.748 65.2L142.468 64.88L142.348 65.2C142.081 65.92 141.868 66.5867 141.708 67.2C141.574 67.8133 141.508 68.3733 141.508 68.88C141.508 69.2 141.534 69.5067 141.588 69.8C141.668 70.0933 141.774 70.3467 141.908 70.56C142.014 70.72 142.188 70.84 142.428 70.92C142.694 70.9733 142.974 71 143.268 71C143.454 71 143.641 71 143.828 71C144.041 70.9733 144.241 70.92 144.428 70.84C144.881 70.68 145.241 70.5067 145.508 70.32C145.801 70.1333 146.094 69.9333 146.388 69.72L146.548 69.64H146.508C146.828 69.48 147.108 69.32 147.348 69.16C147.614 69 147.748 68.92 147.748 68.92C147.854 68.92 147.961 68.8533 148.068 68.72C148.281 68.6133 148.548 68.6533 148.868 68.84C149.214 69.0267 149.388 69.2667 149.388 69.56C149.361 69.6933 149.241 69.9067 149.028 70.2C148.814 70.4667 148.574 70.72 148.308 70.96C148.068 71.2 147.868 71.3333 147.708 71.36C147.681 71.3867 147.588 71.44 147.428 71.52C147.268 71.5733 147.161 71.6267 147.108 71.68H147.148C146.908 72 146.668 72.16 146.428 72.16H146.108C146.001 72.3467 145.654 72.56 145.068 72.8C144.481 73.0133 143.908 73.12 143.348 73.12ZM145.148 64.32C145.628 64.32 146.041 64.1867 146.388 63.92C146.761 63.6267 147.081 63.3067 147.348 62.96C147.881 62.24 148.188 61.5467 148.268 60.88C148.374 60.1867 148.294 59.7067 148.028 59.44C147.868 59.36 147.721 59.32 147.588 59.32C147.481 59.2933 147.254 59.3333 146.908 59.44C146.668 59.4933 146.334 59.6933 145.908 60.04C145.481 60.3867 145.054 60.7733 144.628 61.2C144.228 61.6267 143.921 61.9867 143.708 62.28L143.188 63.12C143.401 63.04 143.601 63 143.788 63C144.001 62.9733 144.121 62.9867 144.148 63.04C144.148 63.28 144.188 63.5067 144.268 63.72C144.374 63.9067 144.494 64.0533 144.628 64.16C144.788 64.2667 144.961 64.32 145.148 64.32ZM154.956 73.16C154.449 72.9467 153.969 72.6667 153.516 72.32C153.062 71.9467 152.769 71.64 152.636 71.4C152.636 71.16 152.676 71 152.756 70.92C152.836 70.8133 153.062 70.7733 153.436 70.8C153.836 70.8 154.476 70.8533 155.356 70.96C155.676 70.96 156.076 70.9333 156.556 70.88C157.036 70.8267 157.476 70.7467 157.876 70.64C158.302 70.5333 158.542 70.4 158.596 70.24C158.729 70.24 158.756 70.2 158.676 70.12C158.596 70.0133 158.502 69.9067 158.396 69.8C158.289 69.8 158.169 69.76 158.036 69.68C157.902 69.5733 157.782 69.52 157.676 69.52C157.676 69.3867 157.542 69.24 157.276 69.08C157.036 68.8933 156.782 68.7467 156.516 68.64C155.929 68.16 155.422 67.7333 154.996 67.36C154.569 66.96 154.409 66.6933 154.516 66.56C154.516 66.4533 154.516 66.4 154.516 66.4C154.516 66.3733 154.516 66.36 154.516 66.36C154.329 66.36 154.116 66.0933 153.876 65.56C153.662 65.0267 153.556 64.5467 153.556 64.12C153.556 63.8 153.649 63.4 153.836 62.92C154.022 62.4133 154.276 61.8933 154.596 61.36C154.916 60.8267 155.249 60.3867 155.596 60.04C156.076 59.5867 156.676 59.1067 157.396 58.6C158.116 58.0667 158.822 57.6 159.516 57.2C160.236 56.7733 160.836 56.4933 161.316 56.36C161.796 56.1733 162.236 56.08 162.636 56.08C163.062 56.08 163.436 56.1733 163.756 56.36C164.022 56.4933 164.262 56.6933 164.476 56.96C164.716 57.2 164.916 57.4533 165.076 57.72C165.262 57.96 165.382 58.1733 165.436 58.36C165.436 58.68 165.409 59.04 165.356 59.44C165.302 59.8133 165.222 60.1467 165.116 60.44C165.036 60.7333 164.902 60.88 164.716 60.88C164.716 60.88 164.676 60.8933 164.596 60.92C164.542 60.92 164.516 60.9867 164.516 61.12C164.516 61.3867 164.316 61.6933 163.916 62.04C163.409 62.3867 162.969 62.6 162.596 62.68C162.222 62.7333 161.996 62.5867 161.916 62.24C161.836 62.1333 161.782 62.04 161.756 61.96C161.729 61.88 161.662 61.84 161.556 61.84C161.556 61.84 161.516 61.8 161.436 61.72C161.356 61.64 161.316 61.5067 161.316 61.32C161.316 61.2133 161.356 61.12 161.436 61.04C161.516 60.9333 161.556 60.88 161.556 60.88C161.689 60.88 161.862 60.7333 162.076 60.44C162.289 60.12 162.476 59.7867 162.636 59.44C162.822 59.0667 162.916 58.8133 162.916 58.68C162.916 58.52 162.889 58.4267 162.836 58.4C162.809 58.3733 162.689 58.36 162.476 58.36C162.102 58.52 161.649 58.7333 161.116 59C160.582 59.2667 160.076 59.5333 159.596 59.8C159.142 60.04 158.809 60.2667 158.596 60.48C158.489 60.6667 158.422 60.7867 158.396 60.84C158.369 60.8667 158.302 60.88 158.196 60.88C158.196 60.7733 158.102 60.8267 157.916 61.04C157.756 61.2267 157.542 61.4933 157.276 61.84C157.036 62.1867 156.796 62.5333 156.556 62.88C156.342 63.2 156.182 63.44 156.076 63.6C156.022 63.6533 155.956 63.8133 155.876 64.08C155.822 64.32 155.796 64.5467 155.796 64.76C155.689 65.08 155.702 65.3067 155.836 65.44C155.969 65.5467 156.262 65.7867 156.716 66.16C157.649 66.8533 158.382 67.4267 158.916 67.88C159.449 68.3333 159.849 68.7067 160.116 69C160.382 69.2933 160.542 69.56 160.596 69.8C161.076 70.6 161.222 71.2133 161.036 71.64C160.849 72.0667 160.396 72.44 159.676 72.76C159.409 72.8933 158.969 73 158.356 73.08C157.742 73.16 157.116 73.2 156.476 73.2C155.836 73.2267 155.329 73.2133 154.956 73.16ZM171.148 72.92C170.775 72.8133 170.468 72.6933 170.228 72.56C169.988 72.4 169.668 72.1467 169.268 71.8C168.948 71.3733 168.695 70.9733 168.508 70.6C168.348 70.2267 168.242 69.8 168.188 69.32C168.135 68.8133 168.108 68.1733 168.108 67.4C168.108 67.08 168.162 66.6 168.268 65.96C168.402 65.32 168.548 64.6533 168.708 63.96C168.895 63.24 169.055 62.6 169.188 62.04C169.348 61.48 169.442 61.12 169.468 60.96C169.548 60.6133 169.415 60.4133 169.068 60.36C168.722 60.3067 168.335 60.2933 167.908 60.32C167.508 60.32 167.242 60.28 167.108 60.2C167.002 60.1733 166.948 60.1333 166.948 60.08C166.948 60 166.948 59.96 166.948 59.96C166.948 59.8533 166.935 59.7867 166.908 59.76C166.908 59.7067 166.868 59.6133 166.788 59.48C166.735 59.3733 166.762 59.2267 166.868 59.04C167.002 58.8267 167.215 58.6933 167.508 58.64C167.748 58.5867 168.068 58.5467 168.468 58.52C168.895 58.4667 169.322 58.3733 169.748 58.24C170.175 58.08 170.522 57.84 170.788 57.52C171.028 56.9333 171.308 56.28 171.628 55.56C171.948 54.84 172.255 54.2 172.548 53.64C172.868 53.0533 173.082 52.6933 173.188 52.56C173.642 52.32 173.975 52.2267 174.188 52.28C174.402 52.3067 174.642 52.5333 174.908 52.96C175.042 53.1467 175.135 53.2933 175.188 53.4C175.268 53.5067 175.282 53.6667 175.228 53.88C175.175 54.0933 175.028 54.4267 174.788 54.88C174.575 55.3333 174.242 55.9867 173.788 56.84C173.655 57.1067 173.535 57.3467 173.428 57.56C173.322 57.7467 173.268 57.84 173.268 57.84C173.375 57.8667 173.535 57.88 173.748 57.88C173.962 57.88 174.228 57.8667 174.548 57.84C174.842 57.7867 175.215 57.7467 175.668 57.72C176.122 57.6667 176.482 57.6667 176.748 57.72C177.362 57.72 177.815 57.84 178.108 58.08C178.402 58.2933 178.562 58.6667 178.588 59.2C178.642 59.4933 178.575 59.6667 178.388 59.72C178.228 59.7733 177.788 59.8 177.068 59.8C176.828 59.8 176.455 59.8133 175.948 59.84C175.442 59.8667 174.908 59.8933 174.348 59.92C173.815 59.9467 173.348 59.9867 172.948 60.04C172.575 60.0667 172.388 60.1067 172.388 60.16C172.308 60.2133 172.175 60.4667 171.988 60.92C171.828 61.3733 171.655 61.8933 171.468 62.48C171.308 63.04 171.162 63.5467 171.028 64C170.842 64.9067 170.695 65.8133 170.588 66.72C170.508 67.6267 170.495 68.4133 170.548 69.08C170.602 69.7467 170.748 70.2133 170.988 70.48C171.228 70.72 171.695 70.7733 172.388 70.64C173.082 70.48 173.642 70.2267 174.068 69.88C174.548 69.48 174.935 69.28 175.228 69.28C175.548 69.28 175.722 69.4267 175.748 69.72C175.802 69.9867 175.655 70.3733 175.308 70.88C174.988 71.36 174.588 71.7867 174.108 72.16C173.628 72.5067 173.122 72.76 172.588 72.92C172.082 73.0533 171.602 73.0533 171.148 72.92ZM180.151 71.04C180.044 71.04 179.911 71.0133 179.751 70.96C179.617 70.88 179.551 70.84 179.551 70.84C179.551 70.7333 179.511 70.6 179.431 70.44C179.377 70.28 179.351 70.1467 179.351 70.04C179.164 69.9333 179.057 69.8267 179.031 69.72C179.004 69.5867 179.044 69.3733 179.151 69.08C179.311 68.8133 179.524 68.3867 179.791 67.8C180.057 67.1867 180.337 66.5333 180.631 65.84C180.924 65.12 181.204 64.4133 181.471 63.72C181.737 63.0267 181.964 62.44 182.151 61.96C182.337 61.4533 182.444 61.1467 182.471 61.04C182.471 60.9333 182.511 60.8 182.591 60.64C182.671 60.48 182.764 60.3467 182.871 60.24C183.084 60.0533 183.311 60.04 183.551 60.2C183.791 60.3333 183.991 60.5733 184.151 60.92C184.337 61.24 184.431 61.6 184.431 62C184.431 62.1867 184.297 62.6667 184.031 63.44C183.764 64.1867 183.404 65.08 182.951 66.12C182.524 67.16 182.044 68.2133 181.511 69.28C181.111 70.0533 180.857 70.5467 180.751 70.76C180.644 70.9467 180.444 71.04 180.151 71.04ZM186.031 55.88C185.711 55.88 185.364 55.76 184.991 55.52C184.644 55.2533 184.337 54.9333 184.071 54.56C183.831 54.16 183.711 53.76 183.711 53.36C183.711 53.2267 183.791 53.04 183.951 52.8C184.111 52.56 184.271 52.32 184.431 52.08C184.591 51.84 184.671 51.6933 184.671 51.64C184.884 51.64 185.044 51.6533 185.151 51.68C185.284 51.68 185.444 51.7333 185.631 51.84C185.924 52.5067 186.284 53.0533 186.711 53.48C187.164 53.9067 187.391 54.2667 187.391 54.56C187.391 55.1467 187.337 55.52 187.231 55.68C187.124 55.8133 186.724 55.88 186.031 55.88ZM189.612 72.4C189.265 72.4 188.985 72.3333 188.772 72.2C188.585 72.0667 188.345 71.88 188.052 71.64C187.545 71.1067 187.185 70.6 186.972 70.12C186.758 69.6133 186.692 69.1333 186.772 68.68C186.852 68.4667 186.878 68.2667 186.852 68.08C186.852 67.8667 186.852 67.76 186.852 67.76C186.718 67.6267 186.678 67.5467 186.732 67.52C186.785 67.4667 186.838 67.3867 186.892 67.28C187.052 67.28 187.105 67.1333 187.052 66.84C186.998 66.6267 187.105 66.16 187.372 65.44C187.638 64.72 187.972 64.04 188.372 63.4C188.532 63.1333 188.772 62.7867 189.092 62.36C189.412 61.9067 189.758 61.4667 190.132 61.04C190.532 60.5867 190.892 60.2267 191.212 59.96C191.878 59.4 192.465 58.9867 192.972 58.72C193.478 58.4533 194.025 58.2533 194.612 58.12C195.198 57.9867 195.598 57.92 195.812 57.92C196.052 57.92 196.372 58.1333 196.772 58.56C197.385 58.8267 197.825 59.1467 198.092 59.52C198.385 59.8933 198.572 60.44 198.652 61.16C198.732 61.96 198.665 62.88 198.452 63.92C198.265 64.9333 197.638 66.2 196.572 67.72C195.905 68.68 195.292 69.4 194.732 69.88C194.172 70.3333 193.505 70.7867 192.732 71.24C192.172 71.6133 191.665 71.8933 191.212 72.08C190.758 72.24 190.225 72.3467 189.612 72.4ZM193.452 68.16C194.092 67.44 194.598 66.76 194.972 66.12C195.372 65.48 195.745 64.6667 196.092 63.68C196.198 63.3867 196.265 63.0267 196.292 62.6C196.318 62.1467 196.305 61.7333 196.252 61.36C196.225 60.96 196.132 60.7333 195.972 60.68C195.652 60.4933 195.265 60.44 194.812 60.52C194.358 60.5733 193.865 60.8267 193.332 61.28C192.505 61.9733 191.785 62.84 191.172 63.88C190.558 64.8933 189.958 66.0533 189.372 67.36C188.972 68.32 188.878 69.0933 189.092 69.68C189.332 70.24 189.825 70.44 190.572 70.28C191.345 70.0933 192.305 69.3867 193.452 68.16ZM202.873 71.24C202.766 71.24 202.606 71.1733 202.393 71.04C202.206 70.88 202.06 70.7467 201.953 70.64C201.766 70.4267 201.646 70.2133 201.593 70C201.566 69.7867 201.553 69.3067 201.553 68.56C201.553 67.7067 201.726 66.7867 202.073 65.8C202.42 64.7867 203.006 63.3733 203.833 61.56L205.153 58.76C205.26 58.5467 205.353 58.3867 205.433 58.28C205.54 58.1733 205.633 58.0667 205.713 57.96C205.82 57.96 205.913 57.96 205.993 57.96C206.073 57.96 206.113 57.96 206.113 57.96C206.326 57.96 206.54 58.0933 206.753 58.36C206.966 58.6 207.126 58.8667 207.233 59.16C207.233 59.5067 207.18 59.8667 207.073 60.24C206.993 60.6133 206.673 61.1733 206.113 61.92C205.926 62.2133 205.673 62.7067 205.353 63.4C205.06 64.0933 204.86 64.6933 204.753 65.2C204.726 65.2267 204.673 65.3467 204.593 65.56C204.513 65.7467 204.42 65.96 204.313 66.2C204.233 66.44 204.14 66.6667 204.033 66.88L203.833 67.76L206.513 65C207.766 63.7467 208.78 62.8533 209.553 62.32C210.326 61.7867 210.94 61.56 211.393 61.64C211.846 61.72 212.233 62.08 212.553 62.72C212.74 63.0133 212.873 63.28 212.953 63.52C213.06 63.7333 213.126 64.0267 213.153 64.4C213.18 64.7733 213.153 65.3333 213.073 66.08V68.56C213.473 68.4533 213.793 68.36 214.033 68.28C214.273 68.1733 214.526 68.0667 214.793 67.96C215.033 67.8533 215.313 67.76 215.633 67.68C215.953 67.5733 216.353 67.5067 216.833 67.48C216.806 67.8267 216.686 68.2 216.473 68.6C216.26 68.9733 215.993 69.3333 215.673 69.68C215.353 70.0267 214.993 70.3067 214.593 70.52C214.22 70.7333 213.846 70.84 213.473 70.84C213.126 70.84 212.74 70.6667 212.313 70.32C211.886 69.9733 211.58 69.5867 211.393 69.16C211.286 68.8667 211.22 68.5467 211.193 68.2C211.193 67.8533 211.193 67.2133 211.193 66.28V64.8C211.193 64.3733 211.06 64.2533 210.793 64.44C210.553 64.6 210.353 64.7467 210.193 64.88C209.793 65.2267 209.366 65.6267 208.913 66.08C208.486 66.5333 208.046 67 207.593 67.48C206.366 68.76 205.34 69.7067 204.513 70.32C203.713 70.9333 203.166 71.24 202.873 71.24ZM221.401 73.16C220.894 72.9467 220.414 72.6667 219.961 72.32C219.508 71.9467 219.214 71.64 219.081 71.4C219.081 71.16 219.121 71 219.201 70.92C219.281 70.8133 219.508 70.7733 219.881 70.8C220.281 70.8 220.921 70.8533 221.801 70.96C222.121 70.96 222.521 70.9333 223.001 70.88C223.481 70.8267 223.921 70.7467 224.321 70.64C224.748 70.5333 224.988 70.4 225.041 70.24C225.174 70.24 225.201 70.2 225.121 70.12C225.041 70.0133 224.948 69.9067 224.841 69.8C224.734 69.8 224.614 69.76 224.481 69.68C224.348 69.5733 224.228 69.52 224.121 69.52C224.121 69.3867 223.988 69.24 223.721 69.08C223.481 68.8933 223.228 68.7467 222.961 68.64C222.374 68.16 221.868 67.7333 221.441 67.36C221.014 66.96 220.854 66.6933 220.961 66.56C220.961 66.4533 220.961 66.4 220.961 66.4C220.961 66.3733 220.961 66.36 220.961 66.36C220.774 66.36 220.561 66.0933 220.321 65.56C220.108 65.0267 220.001 64.5467 220.001 64.12C220.001 63.8 220.094 63.4 220.281 62.92C220.468 62.4133 220.721 61.8933 221.041 61.36C221.361 60.8267 221.694 60.3867 222.041 60.04C222.521 59.5867 223.121 59.1067 223.841 58.6C224.561 58.0667 225.268 57.6 225.961 57.2C226.681 56.7733 227.281 56.4933 227.761 56.36C228.241 56.1733 228.681 56.08 229.081 56.08C229.508 56.08 229.881 56.1733 230.201 56.36C230.468 56.4933 230.708 56.6933 230.921 56.96C231.161 57.2 231.361 57.4533 231.521 57.72C231.708 57.96 231.828 58.1733 231.881 58.36C231.881 58.68 231.854 59.04 231.801 59.44C231.748 59.8133 231.668 60.1467 231.561 60.44C231.481 60.7333 231.348 60.88 231.161 60.88C231.161 60.88 231.121 60.8933 231.041 60.92C230.988 60.92 230.961 60.9867 230.961 61.12C230.961 61.3867 230.761 61.6933 230.361 62.04C229.854 62.3867 229.414 62.6 229.041 62.68C228.668 62.7333 228.441 62.5867 228.361 62.24C228.281 62.1333 228.228 62.04 228.201 61.96C228.174 61.88 228.108 61.84 228.001 61.84C228.001 61.84 227.961 61.8 227.881 61.72C227.801 61.64 227.761 61.5067 227.761 61.32C227.761 61.2133 227.801 61.12 227.881 61.04C227.961 60.9333 228.001 60.88 228.001 60.88C228.134 60.88 228.308 60.7333 228.521 60.44C228.734 60.12 228.921 59.7867 229.081 59.44C229.268 59.0667 229.361 58.8133 229.361 58.68C229.361 58.52 229.334 58.4267 229.281 58.4C229.254 58.3733 229.134 58.36 228.921 58.36C228.548 58.52 228.094 58.7333 227.561 59C227.028 59.2667 226.521 59.5333 226.041 59.8C225.588 60.04 225.254 60.2667 225.041 60.48C224.934 60.6667 224.868 60.7867 224.841 60.84C224.814 60.8667 224.748 60.88 224.641 60.88C224.641 60.7733 224.548 60.8267 224.361 61.04C224.201 61.2267 223.988 61.4933 223.721 61.84C223.481 62.1867 223.241 62.5333 223.001 62.88C222.788 63.2 222.628 63.44 222.521 63.6C222.468 63.6533 222.401 63.8133 222.321 64.08C222.268 64.32 222.241 64.5467 222.241 64.76C222.134 65.08 222.148 65.3067 222.281 65.44C222.414 65.5467 222.708 65.7867 223.161 66.16C224.094 66.8533 224.828 67.4267 225.361 67.88C225.894 68.3333 226.294 68.7067 226.561 69C226.828 69.2933 226.988 69.56 227.041 69.8C227.521 70.6 227.668 71.2133 227.481 71.64C227.294 72.0667 226.841 72.44 226.121 72.76C225.854 72.8933 225.414 73 224.801 73.08C224.188 73.16 223.561 73.2 222.921 73.2C222.281 73.2267 221.774 73.2133 221.401 73.16Z" fill="white"/>
</g>
<defs>
<filter id="filter0_d_277_3082" x="5.41211" y="6.19995" width="255.343" height="79.8801" filterUnits="userSpaceOnUse" color-interpolation-filters="sRGB">
<feFlood flood-opacity="0" result="BackgroundImageFix"/>
<feColorMatrix in="SourceAlpha" type="matrix" values="0 0 0 0 0 0 0 0 0 0 0 0 0 0 0 0 0 0 127 0" result="hardAlpha"/>
<feOffset dy="4"/>
<feGaussianBlur stdDeviation="2"/>
<feComposite in2="hardAlpha" operator="out"/>
<feColorMatrix type="matrix" values="0 0 0 0 0 0 0 0 0 0 0 0 0 0 0 0 0 0 0.25 0"/>
<feBlend mode="normal" in2="BackgroundImageFix" result="effect1_dropShadow_277_3082"/>
<feBlend mode="normal" in="SourceGraphic" in2="effect1_dropShadow_277_3082" result="shape"/>
</filter>
</defs>
</svg>
