<svg width="305" height="95" viewBox="0 0 305 95" fill="none" xmlns="http://www.w3.org/2000/svg">
<path d="M105.897 89.6426C121.732 85.8005 164.131 79.753 207.04 86.2998" stroke="#00A6FB" stroke-width="3" stroke-linecap="round"/>
<g filter="url(#filter0_d_277_3083)">
<path d="M38.9227 22.32L37.5227 20.56C36.9893 19.76 36.5627 19.0133 36.2427 18.32C35.9227 17.6267 35.696 16.7733 35.5627 15.76C35.376 15.12 35.256 14.52 35.2027 13.96C35.1493 13.4 35.1227 12.76 35.1227 12.04C35.1493 11.2933 35.176 10.3733 35.2027 9.28C35.2293 8.26666 35.336 7.53333 35.5227 7.08C35.736 6.62667 35.896 6.29333 36.0027 6.08C36.2693 5.76 36.5093 5.72 36.7227 5.96C36.9627 6.2 37.1493 6.61333 37.2827 7.2C37.4427 7.76 37.5093 8.42667 37.4827 9.2C37.5627 12.0533 37.7627 14.32 38.0827 16C38.4293 17.68 38.896 18.7067 39.4827 19.08C39.8027 19.16 40.0827 19.1467 40.3227 19.04C40.5893 18.9067 40.9627 18.5867 41.4427 18.08C41.9493 17.5467 42.696 16.7467 43.6827 15.68C44.4027 14.9067 45.136 14.08 45.8827 13.2C46.656 12.32 47.376 11.48 48.0427 10.68C48.736 9.88 49.3493 9.2 49.8827 8.64C50.4427 8.05333 50.8827 7.66667 51.2027 7.48C51.3093 7.32 51.416 7.2 51.5227 7.12C51.656 7.04 51.776 7 51.8827 7C51.9893 6.97333 52.0427 6.96 52.0427 6.96C52.256 7.01333 52.376 7.18667 52.4027 7.48C52.4293 7.74667 52.536 8.01333 52.7227 8.28C52.776 8.38667 52.816 8.50667 52.8427 8.64C52.8693 8.74667 52.8693 8.86667 52.8427 9C52.8427 9.08 52.7893 9.18667 52.6827 9.32C52.576 9.42667 52.456 9.54667 52.3227 9.68C52.216 9.78667 52.096 9.90667 51.9627 10.04C51.616 10.3333 51.0693 10.8533 50.3227 11.6C49.6027 12.32 48.856 13.1067 48.0827 13.96C47.3093 14.7867 46.656 15.5333 46.1227 16.2C44.9493 17.56 43.896 18.7333 42.9627 19.72C42.056 20.7067 41.496 21.2933 41.2827 21.48C41.256 21.5333 41.0693 21.72 40.7227 22.04C40.376 22.36 40.136 22.6267 40.0027 22.84L38.9227 22.32ZM36.0827 35.72C35.976 35.6933 35.816 35.6 35.6027 35.44C35.3893 35.3067 35.1493 35.1467 34.8827 34.96C34.696 34.7467 34.576 34.5467 34.5227 34.36C34.496 34.1733 34.536 33.9067 34.6427 33.56C34.7493 33.2133 34.896 32.68 35.0827 31.96C35.1093 31.3467 35.2293 30.6 35.4427 29.72C35.6827 28.84 35.9627 28.1067 36.2827 27.52C36.2827 27.2267 36.3493 26.8267 36.4827 26.32C36.616 25.8133 36.776 25.2933 36.9627 24.76C37.176 24.2 37.3627 23.72 37.5227 23.32L38.2427 21.24L39.8427 19.88L40.9627 21.12C40.856 21.28 40.7627 21.4667 40.6827 21.68C40.6027 21.8933 40.496 22.2533 40.3627 22.76C40.2293 23.2667 40.0293 24.0533 39.7627 25.12C39.5493 25.84 39.3093 26.6133 39.0427 27.44C38.8027 28.2667 38.576 29.04 38.3627 29.76C38.1493 30.48 37.9627 31.0667 37.8027 31.52C37.4827 32.72 37.2427 33.64 37.0827 34.28C36.9227 34.92 36.776 35.3333 36.6427 35.52C36.536 35.7333 36.3493 35.8 36.0827 35.72ZM50.2561 32.4C49.9094 32.4 49.6294 32.3333 49.4161 32.2C49.2294 32.0667 48.9894 31.88 48.6961 31.64C48.1894 31.1067 47.8294 30.6 47.6161 30.12C47.4028 29.6133 47.3361 29.1333 47.4161 28.68C47.4961 28.4667 47.5228 28.2667 47.4961 28.08C47.4961 27.8667 47.4961 27.76 47.4961 27.76C47.3628 27.6267 47.3228 27.5467 47.3761 27.52C47.4294 27.4667 47.4828 27.3867 47.5361 27.28C47.6961 27.28 47.7494 27.1333 47.6961 26.84C47.6428 26.6267 47.7494 26.16 48.0161 25.44C48.2828 24.72 48.6161 24.04 49.0161 23.4C49.1761 23.1333 49.4161 22.7867 49.7361 22.36C50.0561 21.9067 50.4028 21.4667 50.7761 21.04C51.1761 20.5867 51.5361 20.2267 51.8561 19.96C52.5228 19.4 53.1094 18.9867 53.6161 18.72C54.1228 18.4533 54.6694 18.2533 55.2561 18.12C55.8428 17.9867 56.2428 17.92 56.4561 17.92C56.6961 17.92 57.0161 18.1333 57.4161 18.56C58.0294 18.8267 58.4694 19.1467 58.7361 19.52C59.0294 19.8933 59.2161 20.44 59.2961 21.16C59.3761 21.96 59.3094 22.88 59.0961 23.92C58.9094 24.9333 58.2828 26.2 57.2161 27.72C56.5494 28.68 55.9361 29.4 55.3761 29.88C54.8161 30.3333 54.1494 30.7867 53.3761 31.24C52.8161 31.6133 52.3094 31.8933 51.8561 32.08C51.4028 32.24 50.8694 32.3467 50.2561 32.4ZM54.0961 28.16C54.7361 27.44 55.2428 26.76 55.6161 26.12C56.0161 25.48 56.3894 24.6667 56.7361 23.68C56.8428 23.3867 56.9094 23.0267 56.9361 22.6C56.9628 22.1467 56.9494 21.7333 56.8961 21.36C56.8694 20.96 56.7761 20.7333 56.6161 20.68C56.2961 20.4933 55.9094 20.44 55.4561 20.52C55.0028 20.5733 54.5094 20.8267 53.9761 21.28C53.1494 21.9733 52.4294 22.84 51.8161 23.88C51.2028 24.8933 50.6028 26.0533 50.0161 27.36C49.6161 28.32 49.5228 29.0933 49.7361 29.68C49.9761 30.24 50.4694 30.44 51.2161 30.28C51.9894 30.0933 52.9494 29.3867 54.0961 28.16ZM70.9977 32.92C70.811 33.0267 70.5577 32.9867 70.2377 32.8C69.9443 32.6133 69.651 32.3333 69.3577 31.96C69.171 31.64 69.0377 31.2933 68.9577 30.92C68.9043 30.5467 68.8777 30.0267 68.8777 29.36C68.9043 28.8267 68.8777 28.48 68.7977 28.32C68.7443 28.16 68.5977 28.1867 68.3577 28.4C68.1177 28.5867 67.7043 28.9733 67.1177 29.56C66.451 30.2267 65.811 30.7467 65.1977 31.12C64.611 31.4933 64.131 31.6667 63.7577 31.64C63.571 31.64 63.3577 31.5467 63.1177 31.36C62.9043 31.1467 62.7043 30.8933 62.5177 30.6C62.331 30.28 62.171 29.96 62.0377 29.64C61.8777 29.0533 61.851 28.3067 61.9577 27.4C62.091 26.4667 62.3043 25.4933 62.5977 24.48C62.891 23.4667 63.2243 22.5067 63.5977 21.6C63.9977 20.6933 64.3977 19.96 64.7977 19.4C65.2243 18.84 65.5977 18.56 65.9177 18.56C66.131 18.56 66.3177 18.6667 66.4777 18.88C66.6643 19.0933 66.851 19.4267 67.0377 19.88C67.1443 20.0667 67.1843 20.2267 67.1577 20.36C67.1577 20.4933 67.051 20.6533 66.8377 20.84C66.5977 21.16 66.3177 21.64 65.9977 22.28C65.7043 22.92 65.411 23.6133 65.1177 24.36C64.851 25.1067 64.611 25.8267 64.3977 26.52C64.1843 27.2133 64.0377 27.7867 63.9577 28.24C63.8777 28.6667 63.891 28.88 63.9977 28.88C64.371 28.88 64.811 28.7333 65.3177 28.44C65.851 28.12 66.3577 27.7333 66.8377 27.28C67.3977 26.72 67.891 26.1067 68.3177 25.44C68.771 24.7733 69.2243 24.0667 69.6777 23.32C70.0243 22.7867 70.3843 22.2 70.7577 21.56C71.1577 20.92 71.411 20.4667 71.5177 20.2C71.891 19.5067 72.171 19.04 72.3577 18.8C72.5443 18.5333 72.771 18.36 73.0377 18.28C73.171 18.28 73.291 18.28 73.3977 18.28C73.531 18.28 73.5977 18.28 73.5977 18.28C73.7577 18.3067 73.9443 18.4267 74.1577 18.64C74.371 18.7467 74.491 18.8533 74.5177 18.96C74.5443 19.04 74.5577 19.1467 74.5577 19.28C74.451 19.5467 74.2777 19.9467 74.0377 20.48C73.8243 20.9867 73.6643 21.36 73.5577 21.6C73.051 22.7467 72.5443 23.88 72.0377 25C71.5577 26.0933 71.211 27.2133 70.9977 28.36C70.9443 28.7333 70.931 29.1733 70.9577 29.68C71.011 30.16 71.091 30.5067 71.1977 30.72C71.2777 30.88 71.371 31.0667 71.4777 31.28C71.611 31.4667 71.7577 31.6267 71.9177 31.76C72.1577 31.92 72.1977 32.0933 72.0377 32.28C71.9043 32.4667 71.7177 32.6267 71.4777 32.76C71.2377 32.8667 71.0777 32.92 70.9977 32.92ZM77.1623 31.6C76.9223 31.4133 76.749 31.2267 76.6423 31.04C76.5623 30.8533 76.5623 30.4933 76.6423 29.96C76.7223 29.2133 76.829 28.56 76.9623 28C77.0957 27.4133 77.2557 26.7467 77.4423 26C77.4957 25.68 77.6423 25.1333 77.8823 24.36C78.149 23.5867 78.469 22.7467 78.8423 21.84C79.2157 20.9333 79.589 20.08 79.9623 19.28C80.3357 18.4533 80.6557 17.84 80.9223 17.44C81.1357 17.28 81.389 17.2133 81.6823 17.24C82.0023 17.2667 82.269 17.3867 82.4823 17.6C82.7757 17.84 82.8157 18.2667 82.6023 18.88C82.4157 19.4667 82.0157 20.4 81.4023 21.68C81.0823 22.4 80.8423 22.9467 80.6823 23.32C80.5223 23.6667 80.4557 23.88 80.4823 23.96C80.509 24.0133 80.629 23.9733 80.8423 23.84C81.0023 23.5467 81.2957 23.2133 81.7223 22.84C82.149 22.44 82.6023 22.0533 83.0823 21.68C83.5623 21.3067 84.0157 20.9733 84.4423 20.68C84.869 20.3867 85.1623 20.2 85.3223 20.12C85.5357 19.9867 85.7757 19.88 86.0423 19.8C86.3357 19.6933 86.5357 19.6133 86.6423 19.56C87.2557 19.2667 87.8823 19.16 88.5223 19.24C89.1623 19.32 89.5623 19.56 89.7223 19.96C89.749 20.1733 89.829 20.3333 89.9623 20.44C90.1223 20.5467 90.2023 20.6 90.2023 20.6C90.309 20.6 90.3623 20.64 90.3623 20.72C90.389 20.8 90.4023 20.84 90.4023 20.84C90.4023 21.0267 90.2557 21.1467 89.9623 21.2C89.6957 21.2267 89.349 21.2533 88.9223 21.28C88.5757 21.3067 88.269 21.3733 88.0023 21.48C87.7357 21.5867 87.4157 21.72 87.0423 21.88C86.029 22.4667 85.0557 23.04 84.1223 23.6C83.2157 24.16 82.3357 24.9067 81.4823 25.84C81.2957 26.0533 81.109 26.3067 80.9223 26.6C80.7357 26.8933 80.5357 27.2133 80.3223 27.56C80.189 27.6933 80.0557 27.9867 79.9223 28.44C79.789 28.8933 79.669 29.3333 79.5623 29.76C79.4823 30.16 79.4423 30.4 79.4423 30.48C79.4423 30.48 79.4023 30.6133 79.3223 30.88C79.2423 31.12 79.109 31.36 78.9223 31.6C78.6023 32.0267 78.3357 32.24 78.1223 32.24C77.909 32.24 77.589 32.0267 77.1623 31.6ZM100.664 40C100.344 40.2133 100.011 40.2 99.6639 39.96C99.3439 39.72 99.1039 39.36 98.9439 38.88C98.7839 38.4 98.7972 37.8933 98.9839 37.36C99.0372 37.2 99.1172 36.9333 99.2239 36.56C99.3306 36.2133 99.3972 35.9067 99.4239 35.64C99.4506 35.4533 99.5306 35.1333 99.6639 34.68C99.7972 34.2533 99.9439 33.8267 100.104 33.4C100.291 32.9733 100.437 32.6667 100.544 32.48C100.704 32.2133 100.811 31.9067 100.864 31.56C100.944 31.2133 100.984 30.9467 100.984 30.76C101.037 30.5733 101.104 30.36 101.184 30.12C101.291 29.88 101.397 29.6933 101.504 29.56C101.557 29.3467 101.637 29.12 101.744 28.88C101.851 28.6133 101.971 28.3867 102.104 28.2C102.157 28.0133 102.197 27.7867 102.224 27.52C102.277 27.2533 102.357 27.1067 102.464 27.08C102.491 26.9733 102.504 26.8667 102.504 26.76C102.531 26.6533 102.584 26.5067 102.664 26.32C102.717 26.0267 102.837 25.6 103.024 25.04C103.211 24.48 103.437 23.8667 103.704 23.2C103.997 22.4267 104.131 21.6933 104.104 21C104.104 20.28 103.904 19.84 103.504 19.68C103.291 19.5733 103.157 19.4267 103.104 19.24C103.051 19.0267 103.077 18.8133 103.184 18.6C103.291 18.3867 103.451 18.24 103.664 18.16C103.904 18.0533 104.157 18.0133 104.424 18.04C104.717 18.0667 104.971 18.12 105.184 18.2C105.397 18.2533 105.491 18.3067 105.464 18.36C105.464 18.4933 105.531 18.5733 105.664 18.6C105.717 18.52 105.824 18.6133 105.984 18.88C106.171 19.12 106.344 19.4 106.504 19.72C106.664 20.04 106.744 20.2667 106.744 20.4C106.691 20.5067 106.664 20.5733 106.664 20.6C106.664 20.6 106.717 20.6 106.824 20.6C106.824 20.6 106.971 20.5333 107.264 20.4C107.557 20.24 107.864 20.0667 108.184 19.88C108.531 19.6667 108.757 19.5067 108.864 19.4C108.864 19.4 108.931 19.3733 109.064 19.32C109.224 19.24 109.357 19.1467 109.464 19.04C109.997 18.8267 110.571 18.7867 111.184 18.92C111.824 19.0533 112.331 19.2933 112.704 19.64C113.237 20.3067 113.504 20.9467 113.504 21.56C113.531 22.1733 113.357 22.9467 112.984 23.88C112.931 24.0133 112.811 24.24 112.624 24.56C112.464 24.8533 112.304 25.1333 112.144 25.4C111.984 25.64 111.904 25.76 111.904 25.76C111.291 26.72 110.571 27.52 109.744 28.16C108.917 28.8 108.077 29.36 107.224 29.84C106.957 30.0267 106.677 30.1733 106.384 30.28C106.117 30.36 105.877 30.4133 105.664 30.44C105.451 30.44 105.304 30.4133 105.224 30.36C104.931 30.1467 104.664 29.6933 104.424 29C104.291 29.3467 104.157 29.6933 104.024 30.04C103.917 30.36 103.851 30.5733 103.824 30.68C103.797 30.8667 103.771 31.0267 103.744 31.16C103.717 31.2667 103.651 31.36 103.544 31.44C103.544 31.44 103.531 31.4933 103.504 31.6C103.477 31.7067 103.384 31.8667 103.224 32.08C102.957 32.8533 102.717 33.52 102.504 34.08C102.291 34.6667 102.117 35.16 101.984 35.56C101.851 35.9867 101.744 36.36 101.664 36.68C101.611 37.4 101.464 38.1067 101.224 38.8C100.984 39.52 100.797 39.92 100.664 40ZM105.424 28.6C105.531 28.5467 105.757 28.4 106.104 28.16C106.477 27.8933 106.891 27.5867 107.344 27.24C107.797 26.8667 108.211 26.52 108.584 26.2C108.984 25.88 109.251 25.64 109.384 25.48C109.597 25.24 109.797 24.9867 109.984 24.72C110.171 24.4267 110.317 24.1067 110.424 23.76C110.504 23.5467 110.597 23.3067 110.704 23.04C110.811 22.7733 110.904 22.52 110.984 22.28C111.091 22.0667 111.131 21.8533 111.104 21.64C111.104 21.4 111.024 21.2 110.864 21.04C110.757 21.0133 110.437 21.0933 109.904 21.28C109.371 21.44 108.784 21.72 108.144 22.12C107.504 22.4933 106.944 22.9867 106.464 23.6C105.904 24.32 105.491 25.0667 105.224 25.84C104.984 26.6133 104.877 27.2667 104.904 27.8C104.957 28.3333 105.131 28.6 105.424 28.6ZM118.421 32.04C117.381 31.6133 116.701 31.0267 116.381 30.28C116.088 29.5067 116.034 28.32 116.221 26.72C116.274 25.8933 116.301 25.3467 116.301 25.08C116.301 24.8133 116.154 24.5467 115.861 24.28C115.781 24.1733 115.634 24.0267 115.421 23.84C115.234 23.6533 115.154 23.4933 115.181 23.36C115.154 23.1733 115.168 22.9733 115.221 22.76C115.274 22.52 115.354 22.4 115.461 22.4C115.568 22.4 115.674 22.3733 115.781 22.32C115.914 22.2667 116.034 22.2667 116.141 22.32C116.248 22.32 116.368 22.3333 116.501 22.36C116.634 22.3867 116.701 22.4533 116.701 22.56C116.808 22.7467 116.981 22.7733 117.221 22.64C117.461 22.48 117.714 22.1333 117.981 21.6C118.248 21.1733 118.594 20.7467 119.021 20.32C119.474 19.8933 119.914 19.5067 120.341 19.16C120.794 18.7867 121.168 18.52 121.461 18.36C121.594 18.3067 121.794 18.24 122.061 18.16C122.328 18.08 122.608 18.0133 122.901 17.96C123.221 17.9067 123.488 17.8933 123.701 17.92C124.181 17.9467 124.581 18.08 124.901 18.32C125.248 18.56 125.568 18.84 125.861 19.16C126.208 19.4 126.421 19.72 126.501 20.12C126.608 20.52 126.634 20.9467 126.581 21.4C126.528 21.8533 126.408 22.2667 126.221 22.64C126.141 22.9067 125.914 23.2267 125.541 23.6C125.168 23.9733 124.741 24.3333 124.261 24.68C123.781 25.0267 123.341 25.28 122.941 25.44C122.594 25.52 122.141 25.5867 121.581 25.64C121.048 25.6933 120.541 25.72 120.061 25.72C119.608 25.6933 119.301 25.64 119.141 25.56C118.954 25.4533 118.808 25.6 118.701 26C118.594 26.4 118.514 26.9733 118.461 27.72C118.408 28.3067 118.408 28.7333 118.461 29C118.514 29.2667 118.568 29.4533 118.621 29.56C118.808 29.7467 119.061 29.9867 119.381 30.28C119.728 30.5467 120.208 30.5867 120.821 30.4C121.328 30.2667 121.821 29.92 122.301 29.36C122.808 28.8 123.274 28.3467 123.701 28C123.808 27.8133 123.981 27.7067 124.221 27.68C124.488 27.6267 124.768 27.64 125.061 27.72C125.354 27.9067 125.474 28.1333 125.421 28.4C125.394 28.64 125.261 29.0133 125.021 29.52C124.941 29.7067 124.754 29.9467 124.461 30.24C124.194 30.5067 123.888 30.7867 123.541 31.08C123.221 31.3467 122.928 31.56 122.661 31.72C121.861 32.1467 121.114 32.3733 120.421 32.4C119.728 32.4 119.061 32.28 118.421 32.04ZM120.781 23.92C121.368 23.7867 121.834 23.6933 122.181 23.64C122.528 23.5867 122.861 23.44 123.181 23.2C123.501 22.9333 123.901 22.44 124.381 21.72C124.488 21.4267 124.514 21.1333 124.461 20.84C124.434 20.5467 124.368 20.3467 124.261 20.24C124.021 19.9733 123.728 19.8933 123.381 20C123.061 20.08 122.754 20.2267 122.461 20.44C122.274 20.52 121.994 20.72 121.621 21.04C121.274 21.3333 120.928 21.68 120.581 22.08C120.234 22.4533 119.954 22.8 119.741 23.12C119.528 23.44 119.474 23.6267 119.581 23.68C119.528 23.7867 119.674 23.8533 120.021 23.88C120.394 23.9067 120.648 23.92 120.781 23.92ZM130.629 32.08C130.496 32.3467 130.296 32.4267 130.029 32.32C129.789 32.2133 129.589 32.1067 129.429 32C129.242 32 129.082 31.9467 128.949 31.84C128.816 31.7333 128.722 31.5733 128.669 31.36C128.616 31.2 128.602 31.0133 128.629 30.8C128.656 30.56 128.709 30.2933 128.789 30C128.896 29.68 129.002 29.3333 129.109 28.96C129.322 28.08 129.469 27.44 129.549 27.04C129.629 26.64 129.709 26.2933 129.789 26C129.869 25.7067 129.976 25.28 130.109 24.72C130.322 24.1867 130.496 23.6667 130.629 23.16C130.762 22.6533 130.962 22.1467 131.229 21.64C131.416 20.9467 131.642 20.2933 131.909 19.68C132.202 19.04 132.482 18.5067 132.749 18.08C132.802 18 132.896 17.8933 133.029 17.76C133.189 17.6267 133.322 17.56 133.429 17.56C133.642 17.3467 133.829 17.2667 133.989 17.32C134.176 17.3467 134.402 17.4667 134.669 17.68C134.989 18.0267 135.109 18.4267 135.029 18.88C134.976 19.3333 134.656 20 134.069 20.88C133.749 21.7067 133.456 22.4267 133.189 23.04C132.922 23.6267 132.736 24.1867 132.629 24.72C132.922 24.2933 133.242 23.9067 133.589 23.56C133.962 23.1867 134.269 22.88 134.509 22.64C135.096 22.0533 135.576 21.6267 135.949 21.36C136.349 21.0933 136.816 20.7867 137.349 20.44C137.669 20.2267 137.976 20.04 138.269 19.88C138.562 19.6933 138.882 19.56 139.229 19.48C139.602 19.4 140.002 19.4 140.429 19.48C140.696 19.4533 140.909 19.5333 141.069 19.72C141.256 19.9067 141.402 20.16 141.509 20.48C141.616 20.8 141.682 21.1733 141.709 21.6C141.096 21.4667 140.549 21.4933 140.069 21.68C139.589 21.84 139.176 22.04 138.829 22.28C138.509 22.52 138.256 22.7067 138.069 22.84C137.669 23.1067 137.162 23.4667 136.549 23.92C135.936 24.3467 135.322 24.8667 134.709 25.48C134.229 26.0133 133.816 26.4667 133.469 26.84C133.149 27.2133 132.882 27.5467 132.669 27.84C132.482 28.1333 132.336 28.44 132.229 28.76C131.962 29.3733 131.682 30.04 131.389 30.76C131.096 31.48 130.842 31.92 130.629 32.08ZM145.483 33.16C144.976 32.9467 144.496 32.6667 144.043 32.32C143.59 31.9467 143.296 31.64 143.163 31.4C143.163 31.16 143.203 31 143.283 30.92C143.363 30.8133 143.59 30.7733 143.963 30.8C144.363 30.8 145.003 30.8533 145.883 30.96C146.203 30.96 146.603 30.9333 147.083 30.88C147.563 30.8267 148.003 30.7467 148.403 30.64C148.83 30.5333 149.07 30.4 149.123 30.24C149.256 30.24 149.283 30.2 149.203 30.12C149.123 30.0133 149.03 29.9067 148.923 29.8C148.816 29.8 148.696 29.76 148.563 29.68C148.43 29.5733 148.31 29.52 148.203 29.52C148.203 29.3867 148.07 29.24 147.803 29.08C147.563 28.8933 147.31 28.7467 147.043 28.64C146.456 28.16 145.95 27.7333 145.523 27.36C145.096 26.96 144.936 26.6933 145.043 26.56C145.043 26.4533 145.043 26.4 145.043 26.4C145.043 26.3733 145.043 26.36 145.043 26.36C144.856 26.36 144.643 26.0933 144.403 25.56C144.19 25.0267 144.083 24.5467 144.083 24.12C144.083 23.8 144.176 23.4 144.363 22.92C144.55 22.4133 144.803 21.8933 145.123 21.36C145.443 20.8267 145.776 20.3867 146.123 20.04C146.603 19.5867 147.203 19.1067 147.923 18.6C148.643 18.0667 149.35 17.6 150.043 17.2C150.763 16.7733 151.363 16.4933 151.843 16.36C152.323 16.1733 152.763 16.08 153.163 16.08C153.59 16.08 153.963 16.1733 154.283 16.36C154.55 16.4933 154.79 16.6933 155.003 16.96C155.243 17.2 155.443 17.4533 155.603 17.72C155.79 17.96 155.91 18.1733 155.963 18.36C155.963 18.68 155.936 19.04 155.883 19.44C155.83 19.8133 155.75 20.1467 155.643 20.44C155.563 20.7333 155.43 20.88 155.243 20.88C155.243 20.88 155.203 20.8933 155.123 20.92C155.07 20.92 155.043 20.9867 155.043 21.12C155.043 21.3867 154.843 21.6933 154.443 22.04C153.936 22.3867 153.496 22.6 153.123 22.68C152.75 22.7333 152.523 22.5867 152.443 22.24C152.363 22.1333 152.31 22.04 152.283 21.96C152.256 21.88 152.19 21.84 152.083 21.84C152.083 21.84 152.043 21.8 151.963 21.72C151.883 21.64 151.843 21.5067 151.843 21.32C151.843 21.2133 151.883 21.12 151.963 21.04C152.043 20.9333 152.083 20.88 152.083 20.88C152.216 20.88 152.39 20.7333 152.603 20.44C152.816 20.12 153.003 19.7867 153.163 19.44C153.35 19.0667 153.443 18.8133 153.443 18.68C153.443 18.52 153.416 18.4267 153.363 18.4C153.336 18.3733 153.216 18.36 153.003 18.36C152.63 18.52 152.176 18.7333 151.643 19C151.11 19.2667 150.603 19.5333 150.123 19.8C149.67 20.04 149.336 20.2667 149.123 20.48C149.016 20.6667 148.95 20.7867 148.923 20.84C148.896 20.8667 148.83 20.88 148.723 20.88C148.723 20.7733 148.63 20.8267 148.443 21.04C148.283 21.2267 148.07 21.4933 147.803 21.84C147.563 22.1867 147.323 22.5333 147.083 22.88C146.87 23.2 146.71 23.44 146.603 23.6C146.55 23.6533 146.483 23.8133 146.403 24.08C146.35 24.32 146.323 24.5467 146.323 24.76C146.216 25.08 146.23 25.3067 146.363 25.44C146.496 25.5467 146.79 25.7867 147.243 26.16C148.176 26.8533 148.91 27.4267 149.443 27.88C149.976 28.3333 150.376 28.7067 150.643 29C150.91 29.2933 151.07 29.56 151.123 29.8C151.603 30.6 151.75 31.2133 151.563 31.64C151.376 32.0667 150.923 32.44 150.203 32.76C149.936 32.8933 149.496 33 148.883 33.08C148.27 33.16 147.643 33.2 147.003 33.2C146.363 33.2267 145.856 33.2133 145.483 33.16ZM159.436 32.4C159.089 32.4 158.809 32.3333 158.596 32.2C158.409 32.0667 158.169 31.88 157.876 31.64C157.369 31.1067 157.009 30.6 156.796 30.12C156.582 29.6133 156.516 29.1333 156.596 28.68C156.676 28.4667 156.702 28.2667 156.676 28.08C156.676 27.8667 156.676 27.76 156.676 27.76C156.542 27.6267 156.502 27.5467 156.556 27.52C156.609 27.4667 156.662 27.3867 156.716 27.28C156.876 27.28 156.929 27.1333 156.876 26.84C156.822 26.6267 156.929 26.16 157.196 25.44C157.462 24.72 157.796 24.04 158.196 23.4C158.356 23.1333 158.596 22.7867 158.916 22.36C159.236 21.9067 159.582 21.4667 159.956 21.04C160.356 20.5867 160.716 20.2267 161.036 19.96C161.702 19.4 162.289 18.9867 162.796 18.72C163.302 18.4533 163.849 18.2533 164.436 18.12C165.022 17.9867 165.422 17.92 165.636 17.92C165.876 17.92 166.196 18.1333 166.596 18.56C167.209 18.8267 167.649 19.1467 167.916 19.52C168.209 19.8933 168.396 20.44 168.476 21.16C168.556 21.96 168.489 22.88 168.276 23.92C168.089 24.9333 167.462 26.2 166.396 27.72C165.729 28.68 165.116 29.4 164.556 29.88C163.996 30.3333 163.329 30.7867 162.556 31.24C161.996 31.6133 161.489 31.8933 161.036 32.08C160.582 32.24 160.049 32.3467 159.436 32.4ZM163.276 28.16C163.916 27.44 164.422 26.76 164.796 26.12C165.196 25.48 165.569 24.6667 165.916 23.68C166.022 23.3867 166.089 23.0267 166.116 22.6C166.142 22.1467 166.129 21.7333 166.076 21.36C166.049 20.96 165.956 20.7333 165.796 20.68C165.476 20.4933 165.089 20.44 164.636 20.52C164.182 20.5733 163.689 20.8267 163.156 21.28C162.329 21.9733 161.609 22.84 160.996 23.88C160.382 24.8933 159.782 26.0533 159.196 27.36C158.796 28.32 158.702 29.0933 158.916 29.68C159.156 30.24 159.649 30.44 160.396 30.28C161.169 30.0933 162.129 29.3867 163.276 28.16ZM183.177 32.52C182.911 32.52 182.631 32.3733 182.337 32.08C182.071 31.7867 181.831 31.4267 181.617 31C181.431 30.5467 181.337 30.12 181.337 29.72C181.337 29.32 181.431 28.5733 181.617 27.48C181.831 26.3867 182.084 25.28 182.377 24.16C182.591 23.4667 182.657 23.0667 182.577 22.96C182.497 22.8533 182.137 23 181.497 23.4C181.124 23.5867 180.791 23.7867 180.497 24C180.204 24.1867 179.951 24.4 179.737 24.64C179.604 24.7467 179.404 24.92 179.137 25.16C178.871 25.4 178.591 25.6267 178.297 25.84C177.951 26.1067 177.511 26.48 176.977 26.96C176.444 27.44 175.911 27.92 175.377 28.4C174.871 28.88 174.484 29.2533 174.217 29.52C174.164 29.6267 174.084 29.72 173.977 29.8C173.871 29.88 173.751 29.9333 173.617 29.96C173.484 29.96 173.337 29.9333 173.177 29.88C172.884 29.8 172.604 29.6267 172.337 29.36C172.097 29.0933 171.977 28.7867 171.977 28.44C171.977 28.1733 172.084 27.72 172.297 27.08C172.511 26.4133 172.791 25.6133 173.137 24.68C173.511 23.7467 173.937 22.76 174.417 21.72C174.497 21.5867 174.564 21.4267 174.617 21.24C174.671 21.0267 174.711 20.8 174.737 20.56C174.791 20.32 174.817 20.0933 174.817 19.88C174.817 19.7467 174.831 19.6133 174.857 19.48C174.911 19.32 174.964 19.1733 175.017 19.04C175.097 18.88 175.164 18.7733 175.217 18.72C175.324 18.5067 175.511 18.4533 175.777 18.56C176.044 18.64 176.271 18.8267 176.457 19.12C176.857 19.4933 177.057 19.96 177.057 20.52C177.084 21.08 176.951 21.7733 176.657 22.6C176.551 22.7867 176.457 22.9733 176.377 23.16C176.324 23.32 176.271 23.4667 176.217 23.6C176.164 23.7067 176.124 23.8 176.097 23.88C176.071 23.9333 176.057 23.96 176.057 23.96C176.164 23.96 176.404 23.84 176.777 23.6C177.151 23.36 177.591 23.0933 178.097 22.8C178.497 22.5067 178.844 22.24 179.137 22C179.457 21.7333 179.724 21.5333 179.937 21.4C180.151 21.24 180.284 21.16 180.337 21.16C180.444 21.16 180.577 21.12 180.737 21.04C180.897 20.96 181.031 20.8667 181.137 20.76C181.244 20.6533 181.324 20.6 181.377 20.6C181.457 20.5733 181.497 20.56 181.497 20.56C181.497 20.56 181.551 20.56 181.657 20.56C181.764 20.5333 181.871 20.4667 181.977 20.36C182.191 20.2 182.471 20.16 182.817 20.24C183.164 20.2933 183.484 20.4267 183.777 20.64C184.071 20.8533 184.217 21.0933 184.217 21.36C184.217 21.4667 184.244 21.56 184.297 21.64C184.377 21.6933 184.417 21.72 184.417 21.72C184.631 21.72 184.764 22.0533 184.817 22.72C184.897 23.3867 184.831 24.0267 184.617 24.64C184.617 25.04 184.537 25.52 184.377 26.08C184.244 26.64 184.124 27.1733 184.017 27.68C183.804 28.3467 183.657 28.9333 183.577 29.44C183.497 29.9467 183.484 30.3733 183.537 30.72C183.591 31.0667 183.684 31.3467 183.817 31.56C183.924 31.7467 183.924 31.96 183.817 32.2C183.711 32.4133 183.497 32.52 183.177 32.52ZM192.185 31.84C191.972 31.8933 191.692 31.92 191.345 31.92C190.998 31.8933 190.692 31.8533 190.425 31.8C190.185 31.72 190.065 31.64 190.065 31.56C190.065 31.4267 189.998 31.36 189.865 31.36C189.865 31.36 189.798 31.3067 189.665 31.2C189.558 31.0933 189.385 30.9867 189.145 30.88C188.905 30.5067 188.785 30.1067 188.785 29.68C188.785 29.2267 188.905 28.52 189.145 27.56C189.225 26.8933 189.478 26.12 189.905 25.24C190.358 24.3333 190.905 23.4133 191.545 22.48C192.185 21.5467 192.852 20.7067 193.545 19.96C194.265 19.2133 194.918 18.6667 195.505 18.32C195.878 17.9467 196.332 17.7467 196.865 17.72C197.398 17.6933 197.905 17.8133 198.385 18.08C198.652 18.2133 198.918 18.4267 199.185 18.72C199.452 19.0133 199.705 19.3333 199.945 19.68C200.185 20.0267 200.385 20.3733 200.545 20.72C200.625 21.0133 200.665 21.28 200.665 21.52C200.692 21.7333 200.692 22 200.665 22.32C200.665 22.64 200.625 23.12 200.545 23.76C200.412 24.24 200.292 24.8267 200.185 25.52C200.105 26.2133 200.065 26.8133 200.065 27.32C200.012 27.8267 200.065 28.1867 200.225 28.4C200.412 28.6133 200.678 28.6267 201.025 28.44C201.345 28.28 201.652 28.2133 201.945 28.24C202.238 28.24 202.465 28.32 202.625 28.48C202.812 28.64 202.905 28.88 202.905 29.2C202.905 29.52 202.745 29.8533 202.425 30.2C202.132 30.52 201.758 30.8 201.305 31.04C200.878 31.2533 200.465 31.36 200.065 31.36C199.772 31.36 199.492 31.1867 199.225 30.84C198.958 30.4667 198.718 30.0267 198.505 29.52C198.318 28.9867 198.145 28.48 197.985 28L197.745 27.08L196.025 28.72C195.678 29.0933 195.332 29.44 194.985 29.76C194.665 30.0533 194.465 30.2667 194.385 30.4C194.252 30.64 193.998 30.88 193.625 31.12C193.278 31.36 192.798 31.6 192.185 31.84ZM192.305 29.48C192.758 29.2133 193.278 28.8267 193.865 28.32C194.452 27.7867 195.025 27.2133 195.585 26.6C196.145 25.96 196.612 25.3733 196.985 24.84C197.438 24.2267 197.785 23.6533 198.025 23.12C198.265 22.5867 198.438 22.08 198.545 21.6C198.438 21.3067 198.265 21 198.025 20.68C197.785 20.3333 197.572 20.1467 197.385 20.12C196.798 20.12 196.172 20.4933 195.505 21.24C194.865 21.96 194.238 22.7467 193.625 23.6C193.518 23.7333 193.372 23.9467 193.185 24.24C192.998 24.5333 192.812 24.8133 192.625 25.08C192.465 25.32 192.358 25.48 192.305 25.56C192.225 25.6667 192.065 25.9733 191.825 26.48C191.612 26.96 191.398 27.4533 191.185 27.96C190.972 28.44 190.865 28.76 190.865 28.92C190.865 29.08 190.878 29.2533 190.905 29.44C190.958 29.6267 191.092 29.7467 191.305 29.8C191.518 29.8533 191.852 29.7467 192.305 29.48ZM204.88 33.36C204.533 33.2267 204.28 33.0267 204.12 32.76C203.96 32.4667 203.867 32.0533 203.84 31.52C203.84 31.2 203.893 30.7733 204 30.24C204.107 29.7067 204.227 29.0933 204.36 28.4C204.36 28.3467 204.36 28.2933 204.36 28.24C204.387 28.16 204.4 28.1067 204.4 28.08C204.427 27.9733 204.453 27.8133 204.48 27.6C204.533 27.3867 204.573 27.2267 204.6 27.12C204.627 26.9867 204.64 26.9867 204.64 27.12L204.92 26.04C205.053 25.56 205.187 25.08 205.32 24.6C205.453 24.12 205.573 23.7067 205.68 23.36C205.787 22.9867 205.853 22.7733 205.88 22.72C205.88 22.72 205.933 22.5733 206.04 22.28C206.147 21.96 206.253 21.6533 206.36 21.36C206.813 20.1067 207.227 19.0533 207.6 18.2C207.973 17.32 208.307 16.68 208.6 16.28C208.627 16.2 208.667 16.1067 208.72 16C208.773 15.8667 208.813 15.76 208.84 15.68C208.867 15.4667 208.893 15.3067 208.92 15.2C208.973 15.0667 209.04 14.9467 209.12 14.84C209.173 14.7333 209.253 14.6 209.36 14.44C209.467 14.2533 209.587 14.0267 209.72 13.76L209.88 13.32C210.04 12.9733 210.24 12.5867 210.48 12.16C210.72 11.7333 210.893 11.4267 211 11.24C211.107 11 211.267 10.72 211.48 10.4C211.693 10.0533 211.853 9.82667 211.96 9.72L211.92 9.68C212.053 9.44 212.213 9.30667 212.4 9.28C212.613 9.22667 212.84 9.2 213.08 9.2C213.453 9.2 213.667 9.25333 213.72 9.36C213.773 9.46667 213.8 9.70667 213.8 10.08C213.8 10.48 213.787 10.7733 213.76 10.96C213.76 11.12 213.653 11.3067 213.44 11.52H213.48C213.533 11.4667 213.52 11.5333 213.44 11.72C213.36 11.88 213.293 12 213.24 12.08C213.187 12.2133 213.12 12.36 213.04 12.52C212.987 12.68 212.92 12.8 212.84 12.88C212.76 12.9867 212.56 13.3467 212.24 13.96C211.947 14.5467 211.6 15.24 211.2 16.04C210.827 16.84 210.467 17.6133 210.12 18.36C209.773 19.1067 209.52 19.68 209.36 20.08L209.16 20.68C209.107 20.7867 209.08 20.8667 209.08 20.92C209 21.1067 208.92 21.2933 208.84 21.48C208.76 21.6667 208.68 21.8267 208.6 21.96L207.92 24.28L207.72 25.12L207.36 26L207.12 26.76C207.067 26.92 207.027 27.0667 207 27.2C206.973 27.3333 206.92 27.44 206.84 27.52C206.84 27.5467 206.827 27.5867 206.8 27.64C206.8 27.6667 206.8 27.6933 206.8 27.72C206.693 28.1467 206.573 28.7467 206.44 29.52C206.307 30.2933 206.213 31.1067 206.16 31.96C206.16 31.9867 206.147 32.0133 206.12 32.04C206.12 32.0667 206.12 32.0933 206.12 32.12C206.04 32.68 205.907 33.0533 205.72 33.24C205.533 33.4267 205.253 33.4667 204.88 33.36ZM225.725 32.32C225.192 32.2667 224.858 32.2 224.725 32.12C224.618 32.04 224.485 31.8267 224.325 31.48C224.112 31.24 223.978 31.0533 223.925 30.92C223.898 30.7867 223.898 30.6667 223.925 30.56C224.058 30.56 224.178 30.56 224.285 30.56C224.392 30.5333 224.458 30.48 224.485 30.4C224.485 30.32 224.525 30.2667 224.605 30.24C224.712 30.2133 224.818 30.2133 224.925 30.24C225.432 30.2667 226.072 30.1067 226.845 29.76C227.645 29.3867 228.498 28.88 229.405 28.24C230.338 27.5733 231.245 26.84 232.125 26.04C232.818 25.1333 233.325 24.4267 233.645 23.92C233.965 23.3867 234.152 22.96 234.205 22.64C234.258 22.2933 234.218 22 234.085 21.76C233.978 21.5467 233.592 21.4667 232.925 21.52C232.258 21.5467 231.512 21.8267 230.685 22.36C229.538 23.08 228.618 23.7467 227.925 24.36C227.232 24.9733 226.592 25.6667 226.005 26.44C225.792 26.7067 225.578 27.0267 225.365 27.4C225.178 27.7733 225.018 28.0933 224.885 28.36C224.752 28.6267 224.685 28.76 224.685 28.76C224.685 28.8667 224.525 29 224.205 29.16C223.912 29.32 223.658 29.4 223.445 29.4C223.338 29.3467 223.192 29.2533 223.005 29.12C222.845 28.96 222.738 28.76 222.685 28.52C222.498 28.3867 222.365 28.28 222.285 28.2C222.205 28.12 222.152 28.0267 222.125 27.92C222.098 27.76 222.138 27.5067 222.245 27.16C222.352 26.8133 222.498 26.2667 222.685 25.52C222.845 24.8267 223.018 24.1067 223.205 23.36C223.418 22.6133 223.618 21.9733 223.805 21.44C223.992 20.9067 224.125 20.6133 224.205 20.56C224.205 20.56 224.258 20.44 224.365 20.2C224.472 19.96 224.525 19.68 224.525 19.36C224.578 19.04 224.658 18.76 224.765 18.52C224.898 18.28 224.965 18.1067 224.965 18C225.072 17.92 225.232 17.6 225.445 17.04C225.658 16.48 225.925 15.7467 226.245 14.84C226.245 14.76 226.338 14.5067 226.525 14.08C226.712 13.6267 226.938 13.1067 227.205 12.52C227.472 11.9067 227.738 11.28 228.005 10.64C228.298 9.97333 228.538 9.38666 228.725 8.88C229.045 8.42667 229.285 8.01333 229.445 7.64C229.632 7.24 229.818 7 230.005 6.92C230.138 6.89333 230.298 6.90666 230.485 6.96C230.698 6.98667 230.898 7.05333 231.085 7.16C231.298 7.26667 231.472 7.42667 231.605 7.64C231.685 7.77333 231.738 7.89333 231.765 8C231.792 8.10667 231.752 8.30667 231.645 8.6C231.538 8.86667 231.325 9.33333 231.005 10C230.712 10.64 230.272 11.5733 229.685 12.8C228.938 14.4 228.325 15.8267 227.845 17.08C227.365 18.3333 226.965 19.44 226.645 20.4C226.325 21.36 226.032 22.1867 225.765 22.88L225.565 23.76L226.565 22.8C226.965 22.5067 227.405 22.1467 227.885 21.72C228.365 21.2933 228.792 20.92 229.165 20.6C229.378 20.44 229.658 20.28 230.005 20.12C230.378 19.9333 230.738 19.7733 231.085 19.64C231.432 19.5067 231.685 19.4267 231.845 19.4C231.925 19.3733 232.125 19.3333 232.445 19.28C232.765 19.2267 233.152 19.2 233.605 19.2C234.192 19.2 234.658 19.3333 235.005 19.6C235.378 19.8667 235.738 20.2933 236.085 20.88C236.378 21.44 236.498 22.08 236.445 22.8C236.392 23.4933 236.178 24.1467 235.805 24.76C235.672 24.8667 235.538 25.0133 235.405 25.2C235.272 25.36 235.205 25.4933 235.205 25.6C235.178 25.7867 234.938 26.1733 234.485 26.76C234.032 27.32 233.578 27.8533 233.125 28.36C232.645 28.8667 232.058 29.3733 231.365 29.88C230.672 30.36 229.978 30.8 229.285 31.2C228.618 31.5733 228.045 31.84 227.565 32C227.352 32.0267 227.045 32.08 226.645 32.16C226.245 32.2133 225.938 32.2667 225.725 32.32ZM239.428 31.04C239.321 31.04 239.188 31.0133 239.028 30.96C238.895 30.88 238.828 30.84 238.828 30.84C238.828 30.7333 238.788 30.6 238.708 30.44C238.655 30.28 238.628 30.1467 238.628 30.04C238.441 29.9333 238.335 29.8267 238.308 29.72C238.281 29.5867 238.321 29.3733 238.428 29.08C238.588 28.8133 238.801 28.3867 239.068 27.8C239.335 27.1867 239.615 26.5333 239.908 25.84C240.201 25.12 240.481 24.4133 240.748 23.72C241.015 23.0267 241.241 22.44 241.428 21.96C241.615 21.4533 241.721 21.1467 241.748 21.04C241.748 20.9333 241.788 20.8 241.868 20.64C241.948 20.48 242.041 20.3467 242.148 20.24C242.361 20.0533 242.588 20.04 242.828 20.2C243.068 20.3333 243.268 20.5733 243.428 20.92C243.615 21.24 243.708 21.6 243.708 22C243.708 22.1867 243.575 22.6667 243.308 23.44C243.041 24.1867 242.681 25.08 242.228 26.12C241.801 27.16 241.321 28.2133 240.788 29.28C240.388 30.0533 240.135 30.5467 240.028 30.76C239.921 30.9467 239.721 31.04 239.428 31.04ZM245.308 15.88C244.988 15.88 244.641 15.76 244.268 15.52C243.921 15.2533 243.615 14.9333 243.348 14.56C243.108 14.16 242.988 13.76 242.988 13.36C242.988 13.2267 243.068 13.04 243.228 12.8C243.388 12.56 243.548 12.32 243.708 12.08C243.868 11.84 243.948 11.6933 243.948 11.64C244.161 11.64 244.321 11.6533 244.428 11.68C244.561 11.68 244.721 11.7333 244.908 11.84C245.201 12.5067 245.561 13.0533 245.988 13.48C246.441 13.9067 246.668 14.2667 246.668 14.56C246.668 15.1467 246.615 15.52 246.508 15.68C246.401 15.8133 246.001 15.88 245.308 15.88ZM249.249 31.8C248.902 31.88 248.582 31.88 248.289 31.8C247.996 31.72 247.729 31.5867 247.489 31.4C247.249 31.2133 247.036 31.0267 246.849 30.84C246.662 30.6267 246.609 30.44 246.689 30.28C246.769 30.0933 246.902 30 247.089 30C247.196 30 247.262 29.8933 247.289 29.68C247.342 29.44 247.396 29.0133 247.449 28.4C247.502 28.0267 247.569 27.7067 247.649 27.44C247.756 27.1467 247.809 26.9467 247.809 26.84C247.836 26.76 247.862 26.5467 247.889 26.2C247.942 25.8267 248.022 25.5067 248.129 25.24C248.236 24.76 248.396 24.1467 248.609 23.4C248.822 22.6267 249.036 21.88 249.249 21.16C249.489 20.4133 249.676 19.84 249.809 19.44C249.862 19.1467 249.982 18.7733 250.169 18.32C250.356 17.8667 250.516 17.5067 250.649 17.24C250.916 16.4933 251.262 15.6 251.689 14.56C252.142 13.52 252.596 12.48 253.049 11.44C253.502 10.4 253.902 9.52 254.249 8.8C254.622 8.05333 254.862 7.6 254.969 7.44C255.182 7.22667 255.436 7.13333 255.729 7.16C256.049 7.18667 256.356 7.34667 256.649 7.64C256.889 7.93333 256.996 8.25333 256.969 8.6C256.942 8.92 256.769 9.26666 256.449 9.64C256.342 9.82667 256.222 10.0667 256.089 10.36C255.956 10.6267 255.822 10.8533 255.689 11.04C255.476 11.68 255.209 12.3067 254.889 12.92C254.596 13.5333 254.276 14.2267 253.929 15C253.582 15.7467 253.209 16.68 252.809 17.8C252.569 18.3067 252.369 18.8133 252.209 19.32C252.049 19.8 251.916 20.1067 251.809 20.24C251.649 20.8267 251.449 21.44 251.209 22.08C250.969 22.6933 250.796 23.32 250.689 23.96C250.689 23.96 250.822 23.8267 251.089 23.56C251.382 23.2933 251.729 22.96 252.129 22.56C253.169 21.44 254.209 20.52 255.249 19.8C256.316 19.08 257.196 18.7067 257.889 18.68C258.262 18.6533 258.662 18.7467 259.089 18.96C259.542 19.1733 259.956 19.44 260.329 19.76C260.702 20.0533 260.956 20.3733 261.089 20.72C261.302 21.2 261.382 21.72 261.329 22.28C261.302 22.8133 261.142 23.3867 260.849 24C260.582 24.5867 260.209 25.1867 259.729 25.8C259.436 26.3067 259.076 26.8 258.649 27.28C258.249 27.7333 257.902 28.0667 257.609 28.28C257.342 28.52 257.076 28.76 256.809 29C256.569 29.2133 256.369 29.3867 256.209 29.52C255.862 29.76 255.582 29.9467 255.369 30.08C255.156 30.1867 254.862 30.3067 254.489 30.44C253.929 30.84 253.156 31.1333 252.169 31.32C251.182 31.5067 250.209 31.6667 249.249 31.8ZM250.289 29.76C250.476 29.76 250.809 29.72 251.289 29.64C251.796 29.56 252.262 29.36 252.689 29.04C253.942 28.4 255.022 27.6133 255.929 26.68C256.836 25.72 257.516 24.7733 257.969 23.84C258.449 22.88 258.662 22.0933 258.609 21.48C258.556 20.8667 258.089 20.7333 257.209 21.08C256.329 21.4267 255.262 22.2267 254.009 23.48C253.422 24.0133 252.862 24.5867 252.329 25.2C251.822 25.7867 251.342 26.3467 250.889 26.88C250.702 27.1733 250.542 27.4267 250.409 27.64C250.302 27.8533 250.236 28.0667 250.209 28.28C249.996 29.2667 250.022 29.76 250.289 29.76ZM263.552 33.36C263.205 33.2267 262.952 33.0267 262.792 32.76C262.632 32.4667 262.538 32.0533 262.512 31.52C262.512 31.2 262.565 30.7733 262.672 30.24C262.778 29.7067 262.898 29.0933 263.032 28.4C263.032 28.3467 263.032 28.2933 263.032 28.24C263.058 28.16 263.072 28.1067 263.072 28.08C263.098 27.9733 263.125 27.8133 263.152 27.6C263.205 27.3867 263.245 27.2267 263.272 27.12C263.298 26.9867 263.312 26.9867 263.312 27.12L263.592 26.04C263.725 25.56 263.858 25.08 263.992 24.6C264.125 24.12 264.245 23.7067 264.352 23.36C264.458 22.9867 264.525 22.7733 264.552 22.72C264.552 22.72 264.605 22.5733 264.712 22.28C264.818 21.96 264.925 21.6533 265.032 21.36C265.485 20.1067 265.898 19.0533 266.272 18.2C266.645 17.32 266.978 16.68 267.272 16.28C267.298 16.2 267.338 16.1067 267.392 16C267.445 15.8667 267.485 15.76 267.512 15.68C267.538 15.4667 267.565 15.3067 267.592 15.2C267.645 15.0667 267.712 14.9467 267.792 14.84C267.845 14.7333 267.925 14.6 268.032 14.44C268.138 14.2533 268.258 14.0267 268.392 13.76L268.552 13.32C268.712 12.9733 268.912 12.5867 269.152 12.16C269.392 11.7333 269.565 11.4267 269.672 11.24C269.778 11 269.938 10.72 270.152 10.4C270.365 10.0533 270.525 9.82667 270.632 9.72L270.592 9.68C270.725 9.44 270.885 9.30667 271.072 9.28C271.285 9.22667 271.512 9.2 271.752 9.2C272.125 9.2 272.338 9.25333 272.392 9.36C272.445 9.46667 272.472 9.70667 272.472 10.08C272.472 10.48 272.458 10.7733 272.432 10.96C272.432 11.12 272.325 11.3067 272.112 11.52H272.152C272.205 11.4667 272.192 11.5333 272.112 11.72C272.032 11.88 271.965 12 271.912 12.08C271.858 12.2133 271.792 12.36 271.712 12.52C271.658 12.68 271.592 12.8 271.512 12.88C271.432 12.9867 271.232 13.3467 270.912 13.96C270.618 14.5467 270.272 15.24 269.872 16.04C269.498 16.84 269.138 17.6133 268.792 18.36C268.445 19.1067 268.192 19.68 268.032 20.08L267.832 20.68C267.778 20.7867 267.752 20.8667 267.752 20.92C267.672 21.1067 267.592 21.2933 267.512 21.48C267.432 21.6667 267.352 21.8267 267.272 21.96L266.592 24.28L266.392 25.12L266.032 26L265.792 26.76C265.738 26.92 265.698 27.0667 265.672 27.2C265.645 27.3333 265.592 27.44 265.512 27.52C265.512 27.5467 265.498 27.5867 265.472 27.64C265.472 27.6667 265.472 27.6933 265.472 27.72C265.365 28.1467 265.245 28.7467 265.112 29.52C264.978 30.2933 264.885 31.1067 264.832 31.96C264.832 31.9867 264.818 32.0133 264.792 32.04C264.792 32.0667 264.792 32.0933 264.792 32.12C264.712 32.68 264.578 33.0533 264.392 33.24C264.205 33.4267 263.925 33.4667 263.552 33.36ZM277.31 31.6C276.75 32.08 276.096 32.36 275.35 32.44C274.63 32.52 273.923 32.4133 273.23 32.12C272.536 31.8 271.963 31.32 271.51 30.68C271.056 30.0933 270.763 29.4267 270.63 28.68C270.496 27.9067 270.483 26.9067 270.59 25.68C270.67 24.64 271.003 23.6 271.59 22.56C272.176 21.4933 272.883 20.5467 273.71 19.72C274.563 18.8933 275.403 18.32 276.23 18C276.63 17.7333 276.963 17.6133 277.23 17.64C277.523 17.64 277.963 17.6667 278.55 17.72C279.163 17.8 279.616 17.92 279.91 18.08C280.23 18.24 280.483 18.4533 280.67 18.72C281.07 19.12 281.336 19.52 281.47 19.92C281.603 20.2933 281.67 20.6667 281.67 21.04C281.563 21.6267 281.163 22.3467 280.47 23.2C279.803 24.0267 278.923 24.7067 277.83 25.24C277.243 25.4267 276.603 25.5067 275.91 25.48C275.216 25.4533 274.643 25.28 274.19 24.96C273.683 24.7467 273.35 24.7867 273.19 25.08C273.03 25.3467 272.883 26.0133 272.75 27.08C272.643 28.0933 272.723 28.84 272.99 29.32C273.256 29.7733 273.616 30.04 274.07 30.12C274.603 30.2267 275.016 30.3067 275.31 30.36C275.63 30.3867 276.016 30.2667 276.47 30C276.896 29.7333 277.163 29.5867 277.27 29.56C277.376 29.5067 277.456 29.4533 277.51 29.4C277.59 29.32 277.763 29.1467 278.03 28.88C278.216 28.6933 278.363 28.56 278.47 28.48C278.576 28.3733 278.696 28.32 278.83 28.32C278.963 28.32 279.083 28.3867 279.19 28.52C279.296 28.6267 279.403 28.7067 279.51 28.76C279.776 28.76 279.83 28.92 279.67 29.24C279.536 29.56 279.256 29.9467 278.83 30.4C278.403 30.8267 277.896 31.2267 277.31 31.6ZM277.27 23.12C277.563 22.9867 277.87 22.8 278.19 22.56C278.51 22.2933 278.776 22.0133 278.99 21.72C279.23 21.4 279.35 21.1333 279.35 20.92C279.35 20.5467 279.176 20.24 278.83 20C278.483 19.7333 277.963 19.6933 277.27 19.88C276.976 19.96 276.643 20.16 276.27 20.48C275.896 20.7733 275.536 21.1067 275.19 21.48C274.87 21.8533 274.603 22.1867 274.39 22.48C274.203 22.7733 274.136 22.9467 274.19 23C274.27 23.1333 274.496 23.24 274.87 23.32C275.243 23.3733 275.656 23.3867 276.11 23.36C276.59 23.3333 276.976 23.2533 277.27 23.12ZM90.4439 73.16C89.9372 72.9467 89.4572 72.6667 89.0039 72.32C88.5506 71.9467 88.2572 71.64 88.1239 71.4C88.1239 71.16 88.1639 71 88.2439 70.92C88.3239 70.8133 88.5506 70.7733 88.9239 70.8C89.3239 70.8 89.9639 70.8533 90.8439 70.96C91.1639 70.96 91.5639 70.9333 92.0439 70.88C92.5239 70.8267 92.9639 70.7467 93.3639 70.64C93.7906 70.5333 94.0306 70.4 94.0839 70.24C94.2172 70.24 94.2439 70.2 94.1639 70.12C94.0839 70.0133 93.9906 69.9067 93.8839 69.8C93.7772 69.8 93.6572 69.76 93.5239 69.68C93.3906 69.5733 93.2706 69.52 93.1639 69.52C93.1639 69.3867 93.0306 69.24 92.7639 69.08C92.5239 68.8933 92.2706 68.7467 92.0039 68.64C91.4172 68.16 90.9106 67.7333 90.4839 67.36C90.0572 66.96 89.8972 66.6933 90.0039 66.56C90.0039 66.4533 90.0039 66.4 90.0039 66.4C90.0039 66.3733 90.0039 66.36 90.0039 66.36C89.8172 66.36 89.6039 66.0933 89.3639 65.56C89.1506 65.0267 89.0439 64.5467 89.0439 64.12C89.0439 63.8 89.1372 63.4 89.3239 62.92C89.5106 62.4133 89.7639 61.8933 90.0839 61.36C90.4039 60.8267 90.7372 60.3867 91.0839 60.04C91.5639 59.5867 92.1639 59.1067 92.8839 58.6C93.6039 58.0667 94.3106 57.6 95.0039 57.2C95.7239 56.7733 96.3239 56.4933 96.8039 56.36C97.2839 56.1733 97.7239 56.08 98.1239 56.08C98.5506 56.08 98.9239 56.1733 99.2439 56.36C99.5106 56.4933 99.7506 56.6933 99.9639 56.96C100.204 57.2 100.404 57.4533 100.564 57.72C100.751 57.96 100.871 58.1733 100.924 58.36C100.924 58.68 100.897 59.04 100.844 59.44C100.791 59.8133 100.711 60.1467 100.604 60.44C100.524 60.7333 100.391 60.88 100.204 60.88C100.204 60.88 100.164 60.8933 100.084 60.92C100.031 60.92 100.004 60.9867 100.004 61.12C100.004 61.3867 99.8039 61.6933 99.4039 62.04C98.8972 62.3867 98.4572 62.6 98.0839 62.68C97.7106 62.7333 97.4839 62.5867 97.4039 62.24C97.3239 62.1333 97.2706 62.04 97.2439 61.96C97.2172 61.88 97.1506 61.84 97.0439 61.84C97.0439 61.84 97.0039 61.8 96.9239 61.72C96.8439 61.64 96.8039 61.5067 96.8039 61.32C96.8039 61.2133 96.8439 61.12 96.9239 61.04C97.0039 60.9333 97.0439 60.88 97.0439 60.88C97.1772 60.88 97.3506 60.7333 97.5639 60.44C97.7772 60.12 97.9639 59.7867 98.1239 59.44C98.3106 59.0667 98.4039 58.8133 98.4039 58.68C98.4039 58.52 98.3772 58.4267 98.3239 58.4C98.2972 58.3733 98.1772 58.36 97.9639 58.36C97.5906 58.52 97.1372 58.7333 96.6039 59C96.0706 59.2667 95.5639 59.5333 95.0839 59.8C94.6306 60.04 94.2972 60.2667 94.0839 60.48C93.9772 60.6667 93.9106 60.7867 93.8839 60.84C93.8572 60.8667 93.7906 60.88 93.6839 60.88C93.6839 60.7733 93.5906 60.8267 93.4039 61.04C93.2439 61.2267 93.0306 61.4933 92.7639 61.84C92.5239 62.1867 92.2839 62.5333 92.0439 62.88C91.8306 63.2 91.6706 63.44 91.5639 63.6C91.5106 63.6533 91.4439 63.8133 91.3639 64.08C91.3106 64.32 91.2839 64.5467 91.2839 64.76C91.1772 65.08 91.1906 65.3067 91.3239 65.44C91.4572 65.5467 91.7506 65.7867 92.2039 66.16C93.1372 66.8533 93.8706 67.4267 94.4039 67.88C94.9372 68.3333 95.3372 68.7067 95.6039 69C95.8706 69.2933 96.0306 69.56 96.0839 69.8C96.5639 70.6 96.7106 71.2133 96.5239 71.64C96.3372 72.0667 95.8839 72.44 95.1639 72.76C94.8972 72.8933 94.4572 73 93.8439 73.08C93.2306 73.16 92.6039 73.2 91.9639 73.2C91.3239 73.2267 90.8172 73.2133 90.4439 73.16ZM106.637 72.92C106.263 72.8133 105.957 72.6933 105.717 72.56C105.477 72.4 105.157 72.1467 104.757 71.8C104.437 71.3733 104.183 70.9733 103.997 70.6C103.837 70.2267 103.73 69.8 103.677 69.32C103.623 68.8133 103.597 68.1733 103.597 67.4C103.597 67.08 103.65 66.6 103.757 65.96C103.89 65.32 104.037 64.6533 104.197 63.96C104.383 63.24 104.543 62.6 104.677 62.04C104.837 61.48 104.93 61.12 104.957 60.96C105.037 60.6133 104.903 60.4133 104.557 60.36C104.21 60.3067 103.823 60.2933 103.397 60.32C102.997 60.32 102.73 60.28 102.597 60.2C102.49 60.1733 102.437 60.1333 102.437 60.08C102.437 60 102.437 59.96 102.437 59.96C102.437 59.8533 102.423 59.7867 102.397 59.76C102.397 59.7067 102.357 59.6133 102.277 59.48C102.223 59.3733 102.25 59.2267 102.357 59.04C102.49 58.8267 102.703 58.6933 102.997 58.64C103.237 58.5867 103.557 58.5467 103.957 58.52C104.383 58.4667 104.81 58.3733 105.237 58.24C105.663 58.08 106.01 57.84 106.277 57.52C106.517 56.9333 106.797 56.28 107.117 55.56C107.437 54.84 107.743 54.2 108.037 53.64C108.357 53.0533 108.57 52.6933 108.677 52.56C109.13 52.32 109.463 52.2267 109.677 52.28C109.89 52.3067 110.13 52.5333 110.397 52.96C110.53 53.1467 110.623 53.2933 110.677 53.4C110.757 53.5067 110.77 53.6667 110.717 53.88C110.663 54.0933 110.517 54.4267 110.277 54.88C110.063 55.3333 109.73 55.9867 109.277 56.84C109.143 57.1067 109.023 57.3467 108.917 57.56C108.81 57.7467 108.757 57.84 108.757 57.84C108.863 57.8667 109.023 57.88 109.237 57.88C109.45 57.88 109.717 57.8667 110.037 57.84C110.33 57.7867 110.703 57.7467 111.157 57.72C111.61 57.6667 111.97 57.6667 112.237 57.72C112.85 57.72 113.303 57.84 113.597 58.08C113.89 58.2933 114.05 58.6667 114.077 59.2C114.13 59.4933 114.063 59.6667 113.877 59.72C113.717 59.7733 113.277 59.8 112.557 59.8C112.317 59.8 111.943 59.8133 111.437 59.84C110.93 59.8667 110.397 59.8933 109.837 59.92C109.303 59.9467 108.837 59.9867 108.437 60.04C108.063 60.0667 107.877 60.1067 107.877 60.16C107.797 60.2133 107.663 60.4667 107.477 60.92C107.317 61.3733 107.143 61.8933 106.957 62.48C106.797 63.04 106.65 63.5467 106.517 64C106.33 64.9067 106.183 65.8133 106.077 66.72C105.997 67.6267 105.983 68.4133 106.037 69.08C106.09 69.7467 106.237 70.2133 106.477 70.48C106.717 70.72 107.183 70.7733 107.877 70.64C108.57 70.48 109.13 70.2267 109.557 69.88C110.037 69.48 110.423 69.28 110.717 69.28C111.037 69.28 111.21 69.4267 111.237 69.72C111.29 69.9867 111.143 70.3733 110.797 70.88C110.477 71.36 110.077 71.7867 109.597 72.16C109.117 72.5067 108.61 72.76 108.077 72.92C107.57 73.0533 107.09 73.0533 106.637 72.92ZM124.279 72.92C124.092 73.0267 123.839 72.9867 123.519 72.8C123.226 72.6133 122.932 72.3333 122.639 71.96C122.452 71.64 122.319 71.2933 122.239 70.92C122.186 70.5467 122.159 70.0267 122.159 69.36C122.186 68.8267 122.159 68.48 122.079 68.32C122.026 68.16 121.879 68.1867 121.639 68.4C121.399 68.5867 120.986 68.9733 120.399 69.56C119.732 70.2267 119.092 70.7467 118.479 71.12C117.892 71.4933 117.412 71.6667 117.039 71.64C116.852 71.64 116.639 71.5467 116.399 71.36C116.186 71.1467 115.986 70.8933 115.799 70.6C115.612 70.28 115.452 69.96 115.319 69.64C115.159 69.0533 115.132 68.3067 115.239 67.4C115.372 66.4667 115.586 65.4933 115.879 64.48C116.172 63.4667 116.506 62.5067 116.879 61.6C117.279 60.6933 117.679 59.96 118.079 59.4C118.506 58.84 118.879 58.56 119.199 58.56C119.412 58.56 119.599 58.6667 119.759 58.88C119.946 59.0933 120.132 59.4267 120.319 59.88C120.426 60.0667 120.466 60.2267 120.439 60.36C120.439 60.4933 120.332 60.6533 120.119 60.84C119.879 61.16 119.599 61.64 119.279 62.28C118.986 62.92 118.692 63.6133 118.399 64.36C118.132 65.1067 117.892 65.8267 117.679 66.52C117.466 67.2133 117.319 67.7867 117.239 68.24C117.159 68.6667 117.172 68.88 117.279 68.88C117.652 68.88 118.092 68.7333 118.599 68.44C119.132 68.12 119.639 67.7333 120.119 67.28C120.679 66.72 121.172 66.1067 121.599 65.44C122.052 64.7733 122.506 64.0667 122.959 63.32C123.306 62.7867 123.666 62.2 124.039 61.56C124.439 60.92 124.692 60.4667 124.799 60.2C125.172 59.5067 125.452 59.04 125.639 58.8C125.826 58.5333 126.052 58.36 126.319 58.28C126.452 58.28 126.572 58.28 126.679 58.28C126.812 58.28 126.879 58.28 126.879 58.28C127.039 58.3067 127.226 58.4267 127.439 58.64C127.652 58.7467 127.772 58.8533 127.799 58.96C127.826 59.04 127.839 59.1467 127.839 59.28C127.732 59.5467 127.559 59.9467 127.319 60.48C127.106 60.9867 126.946 61.36 126.839 61.6C126.332 62.7467 125.826 63.88 125.319 65C124.839 66.0933 124.492 67.2133 124.279 68.36C124.226 68.7333 124.212 69.1733 124.239 69.68C124.292 70.16 124.372 70.5067 124.479 70.72C124.559 70.88 124.652 71.0667 124.759 71.28C124.892 71.4667 125.039 71.6267 125.199 71.76C125.439 71.92 125.479 72.0933 125.319 72.28C125.186 72.4667 124.999 72.6267 124.759 72.76C124.519 72.8667 124.359 72.92 124.279 72.92ZM138.604 72.88C138.31 72.9867 138.097 73.0267 137.964 73C137.857 72.9467 137.577 72.7467 137.124 72.4C136.937 72.08 136.817 71.8 136.764 71.56C136.737 71.2933 136.724 70.8267 136.724 70.16C136.777 69.76 136.884 69.1867 137.044 68.44C137.23 67.6933 137.444 66.9067 137.684 66.08C137.924 65.2533 138.137 64.5067 138.324 63.84C138.537 63.1733 138.697 62.72 138.804 62.48C138.99 61.84 139.03 61.4533 138.924 61.32C138.817 61.16 138.497 61.0533 137.964 61C136.897 60.8667 135.937 61.2133 135.084 62.04C134.23 62.8667 133.377 63.9467 132.524 65.28C131.884 66.2667 131.497 67.12 131.364 67.84C131.257 68.5333 131.244 69.0133 131.324 69.28C131.404 69.4933 131.59 69.6133 131.884 69.64C132.177 69.64 132.497 69.5733 132.844 69.44C133.217 69.3067 133.537 69.1733 133.804 69.04C133.99 68.9333 134.217 68.8267 134.484 68.72C134.777 68.5867 135.057 68.4667 135.324 68.36C135.484 68.36 135.59 68.4133 135.644 68.52C135.724 68.6 135.764 68.7733 135.764 69.04C135.764 69.1467 135.804 69.24 135.884 69.32C135.964 69.4 136.057 69.4667 136.164 69.52C136.27 69.6267 136.11 69.8667 135.684 70.24C135.284 70.6133 134.657 71.04 133.804 71.52C133.004 71.7067 132.35 71.8 131.844 71.8C131.364 71.8 130.897 71.6267 130.444 71.28C129.697 70.8267 129.27 70.0933 129.164 69.08C129.084 68.04 129.297 66.7733 129.804 65.28C130.31 64.08 130.87 63.1067 131.484 62.36C132.097 61.5867 132.75 60.84 133.444 60.12C133.55 60.0133 133.79 59.8533 134.164 59.64C134.564 59.4 135.057 59.1867 135.644 59C136.31 58.7867 136.937 58.6533 137.524 58.6C138.11 58.5467 138.617 58.6667 139.044 58.96C139.524 59.0667 139.83 59.0533 139.964 58.92C140.097 58.76 140.324 58.28 140.644 57.48C141.177 56.1467 141.697 54.8 142.204 53.44C142.71 52.0533 143.257 50.6533 143.844 49.24C144.11 48.7333 144.27 48.3467 144.324 48.08C144.404 47.7867 144.497 47.5867 144.604 47.48H145.364C145.47 47.48 145.657 47.5733 145.924 47.76C146.19 47.9467 146.377 48.2 146.484 48.52C146.484 48.76 146.377 49.2933 146.164 50.12C145.95 50.92 145.604 51.88 145.124 53C144.697 53.9867 144.27 54.9867 143.844 56C143.444 56.9867 143.057 58.04 142.684 59.16C142.39 59.9867 142.124 60.6533 141.884 61.16C141.644 61.6667 141.484 62.1067 141.404 62.48C141.244 63.1733 141.044 63.8 140.804 64.36C140.59 64.8933 140.444 65.2667 140.364 65.48C140.017 66.4933 139.737 67.32 139.524 67.96C139.31 68.5733 139.15 69.0933 139.044 69.52C138.937 69.92 138.87 70.3333 138.844 70.76C138.844 71.16 138.884 71.64 138.964 72.2C138.964 72.3067 138.95 72.4133 138.924 72.52C138.897 72.6267 138.79 72.7467 138.604 72.88ZM144.547 80.96C143.907 81.1467 143.2 81.1733 142.427 81.04C141.68 80.9333 141.027 80.7067 140.467 80.36C139.88 80.0133 139.547 79.6267 139.467 79.2C139.44 79.04 139.493 78.8667 139.627 78.68C139.733 78.4933 139.88 78.36 140.067 78.28C140.227 78.2267 140.373 78.28 140.507 78.44C140.72 78.5733 141.107 78.7333 141.667 78.92C142.227 79.1333 142.853 79.1733 143.547 79.04C144.16 78.9067 144.76 78.5467 145.347 77.96C145.96 77.3733 146.453 76.8267 146.827 76.32C147.04 76 147.4 75.4267 147.907 74.6C148.413 73.7733 148.933 72.8667 149.467 71.88C150.027 70.8667 150.493 69.9333 150.867 69.08C150.947 68.8667 151.04 68.6133 151.147 68.32C151.253 68.0267 151.387 67.7867 151.547 67.6C151.707 67.28 151.84 66.9867 151.947 66.72C152.08 66.4267 152.16 66.2267 152.187 66.12C152.213 65.9867 152.333 65.72 152.547 65.32C152.76 64.92 152.96 64.52 153.147 64.12C153.28 63.72 153.48 63.1333 153.747 62.36C154.013 61.5867 154.28 60.96 154.547 60.48C154.867 59.8667 155.12 59.3733 155.307 59C155.52 58.6 155.747 58.36 155.987 58.28C156.227 58.0933 156.387 58 156.467 58C156.573 58 156.773 58.08 157.067 58.24C157.387 58.56 157.587 58.88 157.667 59.2C157.747 59.4933 157.707 59.8667 157.547 60.32C157.413 60.7467 157.147 61.3333 156.747 62.08C156.533 62.72 156.293 63.3067 156.027 63.84C155.787 64.3467 155.6 64.68 155.467 64.84C155.333 65.16 155.173 65.52 154.987 65.92C154.827 66.2933 154.68 66.64 154.547 66.96C154.067 68.0267 153.653 68.8933 153.307 69.56C152.96 70.2267 152.653 70.84 152.387 71.4C152.12 71.96 151.84 72.6133 151.547 73.36C150.933 74.3467 150.333 75.28 149.747 76.16C149.187 77.0667 148.587 77.9067 147.947 78.68C147.68 78.92 147.347 79.2 146.947 79.52C146.547 79.84 146.133 80.1333 145.707 80.4C145.307 80.6667 144.92 80.8533 144.547 80.96ZM149.947 71.36C149.547 71.3067 149.147 71.0667 148.747 70.64C148.373 70.2133 148.08 69.76 147.867 69.28C147.653 68.8 147.573 68.4533 147.627 68.24C147.627 68.1067 147.627 68 147.627 67.92C147.627 67.84 147.627 67.8 147.627 67.8C147.467 67.8 147.32 67.6 147.187 67.2C147.08 66.8 147 66.28 146.947 65.64C146.893 65 146.853 64.32 146.827 63.6C146.827 62.88 146.853 62.2 146.907 61.56C147.013 61.1067 147.067 60.6133 147.067 60.08C147.067 59.52 147.08 59.08 147.107 58.76C147.08 58.3333 147.12 58.0533 147.227 57.92C147.333 57.76 147.44 57.64 147.547 57.56C148.293 57.24 148.787 57.44 149.027 58.16C149.293 58.8533 149.36 60.16 149.227 62.08C149.173 63.1467 149.173 64.2133 149.227 65.28C149.28 66.3467 149.427 67.28 149.667 68.08C149.933 68.88 150.293 69.4267 150.747 69.72C150.933 69.8267 151.027 69.9733 151.027 70.16C151.027 70.3467 150.973 70.5467 150.867 70.76C150.76 70.9467 150.613 71.1067 150.427 71.24C150.267 71.3467 150.107 71.3867 149.947 71.36ZM168.867 80C168.547 80.2133 168.214 80.2 167.867 79.96C167.547 79.72 167.307 79.36 167.147 78.88C166.987 78.4 167 77.8933 167.187 77.36C167.24 77.2 167.32 76.9333 167.427 76.56C167.534 76.2133 167.6 75.9067 167.627 75.64C167.654 75.4533 167.734 75.1333 167.867 74.68C168 74.2533 168.147 73.8267 168.307 73.4C168.494 72.9733 168.64 72.6667 168.747 72.48C168.907 72.2133 169.014 71.9067 169.067 71.56C169.147 71.2133 169.187 70.9467 169.187 70.76C169.24 70.5733 169.307 70.36 169.387 70.12C169.494 69.88 169.6 69.6933 169.707 69.56C169.76 69.3467 169.84 69.12 169.947 68.88C170.054 68.6133 170.174 68.3867 170.307 68.2C170.36 68.0133 170.4 67.7867 170.427 67.52C170.48 67.2533 170.56 67.1067 170.667 67.08C170.694 66.9733 170.707 66.8667 170.707 66.76C170.734 66.6533 170.787 66.5067 170.867 66.32C170.92 66.0267 171.04 65.6 171.227 65.04C171.414 64.48 171.64 63.8667 171.907 63.2C172.2 62.4267 172.334 61.6933 172.307 61C172.307 60.28 172.107 59.84 171.707 59.68C171.494 59.5733 171.36 59.4267 171.307 59.24C171.254 59.0267 171.28 58.8133 171.387 58.6C171.494 58.3867 171.654 58.24 171.867 58.16C172.107 58.0533 172.36 58.0133 172.627 58.04C172.92 58.0667 173.174 58.12 173.387 58.2C173.6 58.2533 173.694 58.3067 173.667 58.36C173.667 58.4933 173.734 58.5733 173.867 58.6C173.92 58.52 174.027 58.6133 174.187 58.88C174.374 59.12 174.547 59.4 174.707 59.72C174.867 60.04 174.947 60.2667 174.947 60.4C174.894 60.5067 174.867 60.5733 174.867 60.6C174.867 60.6 174.92 60.6 175.027 60.6C175.027 60.6 175.174 60.5333 175.467 60.4C175.76 60.24 176.067 60.0667 176.387 59.88C176.734 59.6667 176.96 59.5067 177.067 59.4C177.067 59.4 177.134 59.3733 177.267 59.32C177.427 59.24 177.56 59.1467 177.667 59.04C178.2 58.8267 178.774 58.7867 179.387 58.92C180.027 59.0533 180.534 59.2933 180.907 59.64C181.44 60.3067 181.707 60.9467 181.707 61.56C181.734 62.1733 181.56 62.9467 181.187 63.88C181.134 64.0133 181.014 64.24 180.827 64.56C180.667 64.8533 180.507 65.1333 180.347 65.4C180.187 65.64 180.107 65.76 180.107 65.76C179.494 66.72 178.774 67.52 177.947 68.16C177.12 68.8 176.28 69.36 175.427 69.84C175.16 70.0267 174.88 70.1733 174.587 70.28C174.32 70.36 174.08 70.4133 173.867 70.44C173.654 70.44 173.507 70.4133 173.427 70.36C173.134 70.1467 172.867 69.6933 172.627 69C172.494 69.3467 172.36 69.6933 172.227 70.04C172.12 70.36 172.054 70.5733 172.027 70.68C172 70.8667 171.974 71.0267 171.947 71.16C171.92 71.2667 171.854 71.36 171.747 71.44C171.747 71.44 171.734 71.4933 171.707 71.6C171.68 71.7067 171.587 71.8667 171.427 72.08C171.16 72.8533 170.92 73.52 170.707 74.08C170.494 74.6667 170.32 75.16 170.187 75.56C170.054 75.9867 169.947 76.36 169.867 76.68C169.814 77.4 169.667 78.1067 169.427 78.8C169.187 79.52 169 79.92 168.867 80ZM173.627 68.6C173.734 68.5467 173.96 68.4 174.307 68.16C174.68 67.8933 175.094 67.5867 175.547 67.24C176 66.8667 176.414 66.52 176.787 66.2C177.187 65.88 177.454 65.64 177.587 65.48C177.8 65.24 178 64.9867 178.187 64.72C178.374 64.4267 178.52 64.1067 178.627 63.76C178.707 63.5467 178.8 63.3067 178.907 63.04C179.014 62.7733 179.107 62.52 179.187 62.28C179.294 62.0667 179.334 61.8533 179.307 61.64C179.307 61.4 179.227 61.2 179.067 61.04C178.96 61.0133 178.64 61.0933 178.107 61.28C177.574 61.44 176.987 61.72 176.347 62.12C175.707 62.4933 175.147 62.9867 174.667 63.6C174.107 64.32 173.694 65.0667 173.427 65.84C173.187 66.6133 173.08 67.2667 173.107 67.8C173.16 68.3333 173.334 68.6 173.627 68.6ZM183.864 73.36C183.518 73.2267 183.264 73.0267 183.104 72.76C182.944 72.4667 182.851 72.0533 182.824 71.52C182.824 71.2 182.878 70.7733 182.984 70.24C183.091 69.7067 183.211 69.0933 183.344 68.4C183.344 68.3467 183.344 68.2933 183.344 68.24C183.371 68.16 183.384 68.1067 183.384 68.08C183.411 67.9733 183.438 67.8133 183.464 67.6C183.518 67.3867 183.558 67.2267 183.584 67.12C183.611 66.9867 183.624 66.9867 183.624 67.12L183.904 66.04C184.038 65.56 184.171 65.08 184.304 64.6C184.438 64.12 184.558 63.7067 184.664 63.36C184.771 62.9867 184.838 62.7733 184.864 62.72C184.864 62.72 184.918 62.5733 185.024 62.28C185.131 61.96 185.238 61.6533 185.344 61.36C185.798 60.1067 186.211 59.0533 186.584 58.2C186.958 57.32 187.291 56.68 187.584 56.28C187.611 56.2 187.651 56.1067 187.704 56C187.758 55.8667 187.798 55.76 187.824 55.68C187.851 55.4667 187.878 55.3067 187.904 55.2C187.958 55.0667 188.024 54.9467 188.104 54.84C188.158 54.7333 188.238 54.6 188.344 54.44C188.451 54.2533 188.571 54.0267 188.704 53.76L188.864 53.32C189.024 52.9733 189.224 52.5867 189.464 52.16C189.704 51.7333 189.878 51.4267 189.984 51.24C190.091 51 190.251 50.72 190.464 50.4C190.678 50.0533 190.838 49.8267 190.944 49.72L190.904 49.68C191.038 49.44 191.198 49.3067 191.384 49.28C191.598 49.2267 191.824 49.2 192.064 49.2C192.438 49.2 192.651 49.2533 192.704 49.36C192.758 49.4667 192.784 49.7067 192.784 50.08C192.784 50.48 192.771 50.7733 192.744 50.96C192.744 51.12 192.638 51.3067 192.424 51.52H192.464C192.518 51.4667 192.504 51.5333 192.424 51.72C192.344 51.88 192.278 52 192.224 52.08C192.171 52.2133 192.104 52.36 192.024 52.52C191.971 52.68 191.904 52.8 191.824 52.88C191.744 52.9867 191.544 53.3467 191.224 53.96C190.931 54.5467 190.584 55.24 190.184 56.04C189.811 56.84 189.451 57.6133 189.104 58.36C188.758 59.1067 188.504 59.68 188.344 60.08L188.144 60.68C188.091 60.7867 188.064 60.8667 188.064 60.92C187.984 61.1067 187.904 61.2933 187.824 61.48C187.744 61.6667 187.664 61.8267 187.584 61.96L186.904 64.28L186.704 65.12L186.344 66L186.104 66.76C186.051 66.92 186.011 67.0667 185.984 67.2C185.958 67.3333 185.904 67.44 185.824 67.52C185.824 67.5467 185.811 67.5867 185.784 67.64C185.784 67.6667 185.784 67.6933 185.784 67.72C185.678 68.1467 185.558 68.7467 185.424 69.52C185.291 70.2933 185.198 71.1067 185.144 71.96C185.144 71.9867 185.131 72.0133 185.104 72.04C185.104 72.0667 185.104 72.0933 185.104 72.12C185.024 72.68 184.891 73.0533 184.704 73.24C184.518 73.4267 184.238 73.4667 183.864 73.36ZM193.062 71.68C192.742 71.7333 192.395 71.68 192.022 71.52C191.649 71.36 191.315 71.1333 191.022 70.84C190.755 70.5467 190.582 70.24 190.502 69.92C190.395 69.36 190.462 68.6667 190.702 67.84C190.969 66.9867 191.342 66.0933 191.822 65.16C192.329 64.2 192.889 63.28 193.502 62.4C194.142 61.52 194.795 60.76 195.462 60.12C196.155 59.4533 196.795 59 197.382 58.76C197.675 58.5733 197.902 58.4533 198.062 58.4C198.249 58.32 198.435 58.3067 198.622 58.36C198.835 58.4133 199.142 58.5467 199.542 58.76C199.915 58.8667 200.195 58.9867 200.382 59.12C200.569 59.2533 200.809 59.52 201.102 59.92C201.315 60.32 201.475 60.72 201.582 61.12C201.689 61.52 201.782 61.9733 201.862 62.48C202.075 63.1467 202.155 63.5867 202.102 63.8C202.049 63.9867 201.969 64.1333 201.862 64.24C201.649 64.5067 201.595 64.64 201.702 64.64C201.702 64.64 201.689 64.6933 201.662 64.8C201.662 64.88 201.609 65.0133 201.502 65.2C201.315 65.7867 201.169 66.4 201.062 67.04C200.982 67.6533 200.995 68.16 201.102 68.56C201.315 69.1467 201.702 69.4933 202.262 69.6C202.822 69.7067 203.395 69.4667 203.982 68.88C204.275 68.6667 204.555 68.48 204.822 68.32C205.089 68.1333 205.222 68.1467 205.222 68.36C205.222 68.36 205.262 68.4 205.342 68.48C205.422 68.5333 205.515 68.56 205.622 68.56C205.755 68.56 205.835 68.6133 205.862 68.72C205.915 68.8267 205.915 68.9733 205.862 69.16C205.835 69.32 205.755 69.5067 205.622 69.72C205.222 70.12 205.022 70.3867 205.022 70.52C205.022 70.52 204.969 70.5733 204.862 70.68C204.782 70.76 204.635 70.8933 204.422 71.08C203.942 71.3733 203.329 71.52 202.582 71.52C201.862 71.52 201.302 71.3733 200.902 71.08C200.502 70.7867 200.129 70.3867 199.782 69.88C199.462 69.3733 199.249 68.9333 199.142 68.56L198.942 68.16L197.782 68.92C197.489 69.2133 197.169 69.4933 196.822 69.76C196.502 70.0267 196.289 70.2133 196.182 70.32C196.102 70.4267 196.009 70.52 195.902 70.6C195.822 70.68 195.729 70.72 195.622 70.72C195.515 70.72 195.422 70.72 195.342 70.72C195.262 70.72 195.222 70.72 195.222 70.72C195.222 70.8267 195.089 70.96 194.822 71.12C194.582 71.28 194.289 71.4133 193.942 71.52C193.622 71.6267 193.329 71.68 193.062 71.68ZM192.662 69.52C192.822 69.52 193.102 69.4 193.502 69.16C193.929 68.8933 194.395 68.5867 194.902 68.24C195.435 67.8933 195.902 67.5467 196.302 67.2C196.729 66.8533 197.022 66.5867 197.182 66.4C197.289 66.2933 197.462 66.12 197.702 65.88C197.942 65.6133 198.155 65.3867 198.342 65.2C198.955 64.5067 199.382 63.7467 199.622 62.92C199.862 62.0667 199.835 61.4 199.542 60.92C199.435 60.6267 199.302 60.4667 199.142 60.44C198.982 60.4133 198.649 60.5067 198.142 60.72C197.822 60.9067 197.422 61.2667 196.942 61.8C196.489 62.3067 195.995 62.9067 195.462 63.6C194.955 64.2667 194.475 64.96 194.022 65.68C193.569 66.4 193.195 67.0667 192.902 67.68C192.609 68.2933 192.462 68.7733 192.462 69.12C192.462 69.2267 192.489 69.32 192.542 69.4C192.622 69.48 192.662 69.52 192.662 69.52ZM221.148 71.16C220.615 71.16 220.175 71.0533 219.828 70.84C219.482 70.6 219.188 70.2133 218.948 69.68C218.842 69.3067 218.748 68.8933 218.668 68.44C218.615 67.96 218.588 67.52 218.588 67.12C218.588 66.6933 218.628 66.4133 218.708 66.28C218.815 66.1733 218.855 65.9867 218.828 65.72C218.828 65.4267 218.828 65.12 218.828 64.8C218.802 64.2667 218.668 63.9733 218.428 63.92C218.215 63.84 217.895 63.92 217.468 64.16C216.988 64.4533 216.362 64.8533 215.588 65.36C214.815 65.84 214.002 66.3733 213.148 66.96C212.322 67.5467 211.535 68.16 210.788 68.8C210.202 69.44 209.842 69.9333 209.708 70.28C209.602 70.6 209.442 70.76 209.228 70.76C209.015 70.8667 208.828 70.88 208.668 70.8C208.535 70.6933 208.335 70.5333 208.068 70.32C207.882 70.1067 207.695 69.9067 207.508 69.72C207.322 69.5067 207.202 69.3467 207.148 69.24C207.148 69.1067 207.188 68.8267 207.268 68.4C207.348 67.9733 207.442 67.5467 207.548 67.12C207.682 66.6933 207.775 66.4133 207.828 66.28C207.962 66.28 208.068 66.1467 208.148 65.88C208.255 65.6133 208.415 65.32 208.628 65C208.682 64.68 208.815 64.2533 209.028 63.72C209.268 63.16 209.482 62.6667 209.668 62.24C210.042 61.6 210.295 61.0667 210.428 60.64C210.588 60.2133 210.695 59.68 210.748 59.04C210.722 58.9333 210.748 58.84 210.828 58.76C210.908 58.6533 211.002 58.6 211.108 58.6C211.322 58.3867 211.575 58.3333 211.868 58.44C212.162 58.52 212.428 58.72 212.668 59.04C213.148 59.68 213.335 60.3467 213.228 61.04C213.148 61.7067 212.722 62.6667 211.948 63.92C211.762 64.3467 211.615 64.68 211.508 64.92C211.428 65.1333 211.388 65.3067 211.388 65.44C211.388 65.44 211.522 65.3467 211.788 65.16C212.082 64.9733 212.402 64.76 212.748 64.52C213.122 64.2533 213.415 64.0533 213.628 63.92C213.762 63.7867 214.068 63.5467 214.548 63.2C215.028 62.8533 215.535 62.52 216.068 62.2C216.628 61.8533 217.042 61.6533 217.308 61.6C217.522 61.4933 217.748 61.4 217.988 61.32C218.228 61.2133 218.402 61.16 218.508 61.16C218.722 61.16 218.988 61.28 219.308 61.52C219.655 61.7333 219.975 62 220.268 62.32C220.562 62.6133 220.735 62.8667 220.788 63.08C220.788 63.1867 220.788 63.2933 220.788 63.4C220.815 63.5067 220.842 63.6133 220.868 63.72C220.975 64.0667 221.028 64.5333 221.028 65.12C221.055 65.7067 221.042 66.24 220.988 66.72C220.935 67.2 220.842 67.48 220.708 67.56C220.708 67.56 220.708 67.6 220.708 67.68C220.735 67.7333 220.802 67.76 220.908 67.76C220.908 67.8667 220.908 67.9333 220.908 67.96C220.775 67.96 220.722 68.08 220.748 68.32C220.775 68.5333 220.855 68.7733 220.988 69.04C221.148 69.3067 221.308 69.52 221.468 69.68C221.788 70 221.922 70.3067 221.868 70.6C221.815 70.8667 221.575 71.0533 221.148 71.16Z" fill="white"/>
</g>
<defs>
<filter id="filter0_d_277_3083" x="30.4824" y="5.6001" width="255.188" height="83.6399" filterUnits="userSpaceOnUse" color-interpolation-filters="sRGB">
<feFlood flood-opacity="0" result="BackgroundImageFix"/>
<feColorMatrix in="SourceAlpha" type="matrix" values="0 0 0 0 0 0 0 0 0 0 0 0 0 0 0 0 0 0 127 0" result="hardAlpha"/>
<feOffset dy="4"/>
<feGaussianBlur stdDeviation="2"/>
<feComposite in2="hardAlpha" operator="out"/>
<feColorMatrix type="matrix" values="0 0 0 0 0 0 0 0 0 0 0 0 0 0 0 0 0 0 0.25 0"/>
<feBlend mode="normal" in2="BackgroundImageFix" result="effect1_dropShadow_277_3083"/>
<feBlend mode="normal" in="SourceGraphic" in2="effect1_dropShadow_277_3083" result="shape"/>
</filter>
</defs>
</svg>
