<svg width="347" height="90" viewBox="0 0 347 90" fill="none" xmlns="http://www.w3.org/2000/svg">
<path d="M168.5 86.5001C184.335 82.658 209.5 75.5001 242.5 83.5001" stroke="#00A6FB" stroke-width="4" stroke-linecap="round"/>
<g filter="url(#filter0_d_1317_10895)">
<path d="M6.43047 36.32C6.43047 36.32 6.39047 36.2933 6.31047 36.24C6.23047 36.2133 6.1238 36.1867 5.99047 36.16C5.8838 36.1333 5.75047 36.12 5.59047 36.12C5.1638 36.0133 4.85714 35.7733 4.67047 35.4C4.4838 35.0533 4.4438 34.6667 4.55047 34.24C4.65714 34.1333 4.73714 33.9067 4.79047 33.56C4.8438 33.2133 4.87047 32.9333 4.87047 32.72C4.97714 32.5067 5.0438 32.36 5.07047 32.28C5.09714 32.1733 5.1638 31.9067 5.27047 31.48C5.35047 31.0267 5.4838 30.4 5.67047 29.6C5.8838 28.7733 6.11047 27.8933 6.35047 26.96C6.61714 26.0267 6.87047 25.1333 7.11047 24.28C7.35047 23.4267 7.5638 22.7067 7.75047 22.12C7.9638 21.5333 8.11047 21.2 8.19047 21.12C8.19047 21.12 8.19047 21.08 8.19047 21C8.19047 20.8933 8.19047 20.7867 8.19047 20.68C8.19047 20.68 8.2038 20.56 8.23047 20.32C8.2838 20.0533 8.41714 19.76 8.63047 19.44C8.73714 19.1467 8.83047 18.8267 8.91047 18.48C8.99047 18.1333 9.03047 17.9067 9.03047 17.8C9.13714 17.6667 9.2838 17.3467 9.47047 16.84C9.6838 16.3067 9.8838 15.7867 10.0705 15.28C10.2305 14.8533 10.4038 14.4 10.5905 13.92C10.8038 13.44 10.9771 13.0267 11.1105 12.68C11.2705 12.3333 11.3505 12.16 11.3505 12.16C11.3505 12.0533 11.3505 12 11.3505 12C11.3505 11.9733 11.3505 11.96 11.3505 11.96C11.4571 11.8533 11.7105 11.32 12.1105 10.36C12.5371 9.37333 13.1105 8.10667 13.8305 6.56C13.9371 6.34667 14.0705 6.10667 14.2305 5.84C14.3905 5.57333 14.4705 5.38667 14.4705 5.28C14.6038 5.06667 14.7905 4.97333 15.0305 5C15.2705 5 15.5105 5.08 15.7505 5.24C16.0171 5.4 16.2171 5.62667 16.3505 5.92L16.7505 6.56L15.3105 9.44C14.8838 10.1867 14.5238 10.8667 14.2305 11.48C13.9638 12.0933 13.8305 12.4533 13.8305 12.56C13.8305 12.56 13.7505 12.7733 13.5905 13.2C13.4305 13.6267 13.2438 14.1333 13.0305 14.72C12.8171 15.3067 12.6305 15.84 12.4705 16.32C12.1771 17.1467 11.8971 17.8267 11.6305 18.36C11.3905 18.8933 11.2705 19.2133 11.2705 19.32C11.2705 19.2667 11.5638 19.2267 12.1505 19.2C12.7371 19.1733 13.4838 19.16 14.3905 19.16C15.2971 19.16 16.2171 19.16 17.1505 19.16C18.1105 19.1333 18.9505 19.12 19.6705 19.12C20.4171 19.0933 20.9238 19.0533 21.1905 19L23.2705 18.8L24.6305 14.68C24.8438 13.9333 25.1238 13.0267 25.4705 11.96C25.8171 10.8933 26.1238 9.98666 26.3905 9.24C26.8171 8.01333 27.1505 7.25333 27.3905 6.96C27.6305 6.66666 27.9105 6.52 28.2305 6.52C28.3105 6.52 28.4171 6.54666 28.5505 6.6C28.7105 6.62667 28.8571 6.69333 28.9905 6.8C29.1505 6.88 29.2571 7 29.3105 7.16C29.6305 7.45333 29.7771 7.78666 29.7505 8.16C29.7505 8.53333 29.5371 9.02666 29.1105 9.64C28.6838 10.36 28.3238 11.1467 28.0305 12C27.7638 12.8267 27.5238 13.5067 27.3105 14.04C27.3105 14.36 27.2705 14.6267 27.1905 14.84C27.1105 15.0267 27.0171 15.1733 26.9105 15.28C26.8571 15.3333 26.7505 15.5333 26.5905 15.88C26.4305 16.2267 26.2838 16.5733 26.1505 16.92C26.0171 17.2667 25.9505 17.48 25.9505 17.56C25.9505 17.7467 25.9105 17.9733 25.8305 18.24C25.7505 18.5067 25.6571 18.6933 25.5505 18.8C25.4971 18.96 25.3771 19.36 25.1905 20C25.0038 20.64 24.7905 21.4 24.5505 22.28C24.3105 23.1333 24.0571 23.9733 23.7905 24.8C23.5238 25.6 23.2838 26.2667 23.0705 26.8C23.0705 26.9867 23.0038 27.2267 22.8705 27.52C22.7371 27.7867 22.6705 28.0267 22.6705 28.24C22.5638 28.56 22.4305 28.96 22.2705 29.44C22.1105 29.92 22.0305 30.2267 22.0305 30.36C21.8971 30.9733 21.7505 31.6 21.5905 32.24C21.4571 32.88 21.3371 33.4267 21.2305 33.88C21.1505 34.36 21.1105 34.64 21.1105 34.72C21.0038 34.8267 20.8438 34.84 20.6305 34.76C20.4171 34.68 20.1638 34.5867 19.8705 34.48C19.3638 34.1867 19.0571 33.8667 18.9505 33.52C18.8705 33.2 18.9771 32.7333 19.2705 32.12C19.4038 31.9067 19.5638 31.3867 19.7505 30.56C19.9638 29.7067 20.1771 28.8667 20.3905 28.04C20.5505 27.64 20.7238 27.1067 20.9105 26.44C21.0971 25.7467 21.2838 25.0533 21.4705 24.36C21.6571 23.64 21.8171 23.04 21.9505 22.56C22.0838 22.0533 22.1771 21.7733 22.2305 21.72C22.2305 21.6133 22.2305 21.52 22.2305 21.44C22.2305 21.36 22.2305 21.32 22.2305 21.32C22.1771 21.2667 21.8438 21.2267 21.2305 21.2C20.6171 21.1467 19.8571 21.1333 18.9505 21.16C18.0438 21.16 17.0971 21.1867 16.1105 21.24C15.1505 21.2667 14.2838 21.3333 13.5105 21.44C13.2171 21.44 12.8838 21.44 12.5105 21.44C12.1371 21.44 11.8438 21.44 11.6305 21.44C11.3371 21.44 11.0838 21.44 10.8705 21.44C10.6838 21.44 10.5905 21.44 10.5905 21.44C10.5638 21.52 10.4705 21.8 10.3105 22.28C10.1505 22.76 9.9638 23.3467 9.75047 24.04C9.53714 24.7067 9.31047 25.4 9.07047 26.12C8.85714 26.8133 8.67047 27.4533 8.51047 28.04C8.37714 28.6 8.2838 29 8.23047 29.24C8.1238 29.72 7.97714 30.32 7.79047 31.04C7.63047 31.76 7.4438 32.4933 7.23047 33.24C7.0438 34.0133 6.87047 34.68 6.71047 35.24C6.57714 35.8 6.4838 36.16 6.43047 36.32ZM30.5295 32.4C30.1829 32.4 29.9029 32.3333 29.6895 32.2C29.5029 32.0667 29.2629 31.88 28.9695 31.64C28.4629 31.1067 28.1029 30.6 27.8895 30.12C27.6762 29.6133 27.6095 29.1333 27.6895 28.68C27.7695 28.4667 27.7962 28.2667 27.7695 28.08C27.7695 27.8667 27.7695 27.76 27.7695 27.76C27.6362 27.6267 27.5962 27.5467 27.6495 27.52C27.7029 27.4667 27.7562 27.3867 27.8095 27.28C27.9695 27.28 28.0229 27.1333 27.9695 26.84C27.9162 26.6267 28.0229 26.16 28.2895 25.44C28.5562 24.72 28.8895 24.04 29.2895 23.4C29.4495 23.1333 29.6895 22.7867 30.0095 22.36C30.3295 21.9067 30.6762 21.4667 31.0495 21.04C31.4495 20.5867 31.8095 20.2267 32.1295 19.96C32.7962 19.4 33.3829 18.9867 33.8895 18.72C34.3962 18.4533 34.9429 18.2533 35.5295 18.12C36.1162 17.9867 36.5162 17.92 36.7295 17.92C36.9695 17.92 37.2895 18.1333 37.6895 18.56C38.3029 18.8267 38.7429 19.1467 39.0095 19.52C39.3029 19.8933 39.4895 20.44 39.5695 21.16C39.6495 21.96 39.5829 22.88 39.3695 23.92C39.1829 24.9333 38.5562 26.2 37.4895 27.72C36.8229 28.68 36.2095 29.4 35.6495 29.88C35.0895 30.3333 34.4229 30.7867 33.6495 31.24C33.0895 31.6133 32.5829 31.8933 32.1295 32.08C31.6762 32.24 31.1429 32.3467 30.5295 32.4ZM34.3695 28.16C35.0095 27.44 35.5162 26.76 35.8895 26.12C36.2895 25.48 36.6629 24.6667 37.0095 23.68C37.1162 23.3867 37.1829 23.0267 37.2095 22.6C37.2362 22.1467 37.2229 21.7333 37.1695 21.36C37.1429 20.96 37.0495 20.7333 36.8895 20.68C36.5695 20.4933 36.1829 20.44 35.7295 20.52C35.2762 20.5733 34.7829 20.8267 34.2495 21.28C33.4229 21.9733 32.7029 22.84 32.0895 23.88C31.4762 24.8933 30.8762 26.0533 30.2895 27.36C29.8895 28.32 29.7962 29.0933 30.0095 29.68C30.2495 30.24 30.7429 30.44 31.4895 30.28C32.2629 30.0933 33.2229 29.3867 34.3695 28.16ZM44.5605 31.2C44.1605 31.2 43.7871 30.96 43.4405 30.48C43.1205 29.9733 42.8805 29.3333 42.7205 28.56C42.5871 27.76 42.5471 26.9333 42.6005 26.08C42.6005 25.2267 42.6405 24.5467 42.7205 24.04C42.8271 23.5067 42.9338 22.9867 43.0405 22.48C43.1205 22.32 43.1605 22.1867 43.1605 22.08C43.1871 21.9733 43.2138 21.8 43.2405 21.56C43.2938 21.32 43.3871 20.92 43.5205 20.36C43.6271 19.9067 43.7338 19.5333 43.8405 19.24C43.9471 18.9467 44.0538 18.7467 44.1605 18.64C44.2938 18.48 44.4671 18.3867 44.6805 18.36C44.8938 18.3067 45.1071 18.32 45.3205 18.4C45.5338 18.48 45.7071 18.6267 45.8405 18.84C46.0005 18.9733 46.0805 19.28 46.0805 19.76C46.1071 20.2133 46.0805 20.6933 46.0005 21.2C45.9205 21.68 45.8005 22.0267 45.6405 22.24C45.5871 22.3733 45.5205 22.72 45.4405 23.28C45.3871 23.84 45.3205 24.4267 45.2405 25.04C45.1871 25.6533 45.1205 26.1467 45.0405 26.52C44.9605 27 45.0005 27.3867 45.1605 27.68C45.3471 27.9733 45.6805 27.9867 46.1605 27.72C46.6671 27.4267 47.3338 26.68 48.1605 25.48C48.7205 24.68 49.1471 24.0267 49.4405 23.52C49.7338 23.0133 49.9605 22.5467 50.1205 22.12C50.3071 21.6667 50.4938 21.1867 50.6805 20.68C50.8138 20.2533 50.9338 19.9067 51.0405 19.64C51.1738 19.3467 51.2938 19.16 51.4005 19.08C51.5871 18.9467 51.8005 18.8933 52.0405 18.92C52.3071 18.9467 52.6005 19.0667 52.9205 19.28C53.2405 19.6 53.4005 19.9867 53.4005 20.44C53.4005 20.8667 53.2405 21.4 52.9205 22.04C52.7071 22.4667 52.4938 23.0133 52.2805 23.68C52.0938 24.3467 51.9338 25.0267 51.8005 25.72C51.6938 26.3867 51.6405 26.9333 51.6405 27.36C51.6405 27.8933 51.7071 28.2133 51.8405 28.32C52.0005 28.4 52.1871 28.44 52.4005 28.44C52.7205 28.44 53.1071 28.32 53.5605 28.08C54.0138 27.84 54.5205 27.4267 55.0805 26.84C55.3205 26.6 55.6138 26.2533 55.9605 25.8C56.3071 25.32 56.6405 24.8267 56.9605 24.32C57.3071 23.7867 57.5871 23.32 57.8005 22.92C58.0405 22.52 58.1605 22.2667 58.1605 22.16C58.1605 22 58.2805 21.7733 58.5205 21.48C58.6805 21.2667 58.8005 21.1067 58.8805 21C58.9871 20.8667 59.1738 20.7333 59.4405 20.6C59.6538 20.4933 59.8405 20.48 60.0005 20.56C60.1605 20.6133 60.3338 20.7467 60.5205 20.96C60.6538 21.0667 60.7205 21.2267 60.7205 21.44C60.7471 21.6533 60.7605 21.92 60.7605 22.24C60.6805 22.5333 60.5471 22.92 60.3605 23.4C60.2005 23.8533 60.0138 24.2933 59.8005 24.72C59.6138 25.12 59.4538 25.4 59.3205 25.56C59.2138 25.6667 59.0271 25.8667 58.7605 26.16C58.4938 26.4267 58.2538 26.72 58.0405 27.04C57.3738 27.84 56.8938 28.36 56.6005 28.6C56.3071 28.84 56.0538 29.0667 55.8405 29.28C55.2805 29.84 54.6938 30.2667 54.0805 30.56C53.4671 30.8267 52.8805 30.96 52.3205 30.96C51.7871 30.96 51.3338 30.8267 50.9605 30.56C50.1338 30.1333 49.7205 29.4133 49.7205 28.4C49.7205 28.1867 49.6805 28 49.6005 27.84C49.5471 27.6533 49.5205 27.56 49.5205 27.56C49.4138 27.56 49.2671 27.5867 49.0805 27.64C48.9205 27.6933 48.7471 27.88 48.5605 28.2C48.3205 28.6533 47.9338 29.12 47.4005 29.6C46.8938 30.0533 46.3738 30.44 45.8405 30.76C45.3071 31.0533 44.8805 31.2 44.5605 31.2ZM75.472 34.48C74.992 34.1867 74.5654 33.8 74.192 33.32C73.8454 32.8667 73.5654 32.36 73.352 31.8C73.1654 31.2133 73.072 30.64 73.072 30.08C72.992 28.4267 73.072 26.76 73.312 25.08C73.552 23.3733 73.912 21.7067 74.392 20.08C74.6854 19.0933 75.0187 18.08 75.392 17.04C75.792 16 76.192 15.0267 76.592 14.12C76.992 13.2133 77.3387 12.48 77.632 11.92C78.4054 10.5067 79.232 9.34667 80.112 8.44C80.992 7.50667 81.6587 6.90666 82.112 6.64C82.3787 6.48 82.752 6.32 83.232 6.16C83.7387 5.97333 84.2987 5.84 84.912 5.76C85.552 5.68 86.2054 5.72 86.872 5.88C87.5654 6.01333 88.2187 6.21333 88.832 6.48C89.4454 6.72 89.8587 6.93333 90.072 7.12C90.2854 7.41333 90.472 7.68 90.632 7.92C90.8187 8.13333 90.9254 8.4 90.952 8.72C90.9787 8.93333 90.912 9.2 90.752 9.52C90.592 9.84 90.3787 10.0667 90.112 10.2C89.872 10.3333 89.632 10.2667 89.392 10C89.0187 9.46667 88.6454 9.12 88.272 8.96C87.8987 8.77333 87.4987 8.57333 87.072 8.36C86.7787 8.2 86.3654 8.12 85.832 8.12C85.3254 8.12 84.8054 8.2 84.272 8.36C83.7387 8.49333 83.2854 8.73333 82.912 9.08C82.6454 9.32 82.2987 9.69333 81.872 10.2C81.472 10.68 81.072 11.2133 80.672 11.8C80.272 12.36 79.952 12.9067 79.712 13.44C79.0454 14.72 78.4454 16.0133 77.912 17.32C77.3787 18.6 76.9387 19.9867 76.592 21.48C76.512 21.8533 76.392 22.4 76.232 23.12C76.072 23.84 75.9254 24.5733 75.792 25.32C75.6854 26.04 75.6054 26.6267 75.552 27.08C75.392 28.3867 75.3654 29.5333 75.472 30.52C75.5787 31.5067 75.9387 32.1733 76.552 32.52C77.192 32.8667 78.2054 32.7733 79.592 32.24C80.2054 32.1333 80.8587 31.8533 81.552 31.4C82.2454 30.92 82.912 30.3333 83.552 29.64C84.2187 28.92 84.7787 28.16 85.232 27.36C85.6587 26.48 86.032 25.6267 86.352 24.8C86.6987 23.9733 86.872 23.2933 86.872 22.76C86.872 22.2267 86.6054 21.9733 86.072 22C85.0854 21.9467 84.2854 21.9467 83.672 22C83.0854 22.0533 82.5387 21.9867 82.032 21.8C81.8454 21.5067 81.752 21.2133 81.752 20.92C81.7787 20.6267 81.9387 20.3333 82.232 20.04C82.4987 19.9067 82.9787 19.8133 83.672 19.76C84.3654 19.68 85.112 19.6667 85.912 19.72C86.7387 19.7733 87.4587 19.9467 88.072 20.24C88.7654 20.5333 89.1654 21.0533 89.272 21.8C89.4054 22.5467 89.4054 23.3467 89.272 24.2C89.1654 24.7867 88.8987 25.4933 88.472 26.32C88.072 27.1467 87.592 28.0267 87.032 28.96C86.632 29.5467 86.0854 30.1867 85.392 30.88C84.6987 31.5467 83.992 32.16 83.272 32.72C82.5787 33.28 81.992 33.6667 81.512 33.88C80.4454 34.3867 79.352 34.7333 78.232 34.92C77.1387 35.1333 76.2187 34.9867 75.472 34.48ZM95.5939 33.12C94.4206 33.12 93.4606 32.68 92.7139 31.8C91.9672 30.8933 91.6072 29.7733 91.6339 28.44C91.6872 27.48 91.8739 26.4533 92.1939 25.36C92.5406 24.24 92.9939 23.1733 93.5539 22.16C94.1139 21.12 94.7272 20.2133 95.3939 19.44C96.0606 18.6667 96.7539 18.12 97.4739 17.8C97.7406 17.6667 98.0206 17.56 98.3139 17.48C98.6339 17.4 98.9539 17.36 99.2739 17.36C99.5672 17.36 99.8739 17.4133 100.194 17.52C100.514 17.6 100.781 17.6933 100.994 17.8C101.447 17.9867 101.794 18.2133 102.034 18.48C102.274 18.7467 102.487 19.16 102.674 19.72C102.754 20.2267 102.794 20.5867 102.794 20.8C102.794 21.0133 102.727 21.3333 102.594 21.76C102.274 22.72 101.861 23.5467 101.354 24.24C100.847 24.9333 100.167 25.52 99.3139 26C99.1006 26.1333 98.8472 26.24 98.5539 26.32C98.2872 26.3733 98.0072 26.4 97.7139 26.4C97.1806 26.4 96.6606 26.3067 96.1539 26.12C95.6739 25.9067 95.2872 25.6 94.9939 25.2L94.7139 24.88L94.5939 25.2C94.3272 25.92 94.1139 26.5867 93.9539 27.2C93.8206 27.8133 93.7539 28.3733 93.7539 28.88C93.7539 29.2 93.7806 29.5067 93.8339 29.8C93.9139 30.0933 94.0206 30.3467 94.1539 30.56C94.2606 30.72 94.4339 30.84 94.6739 30.92C94.9406 30.9733 95.2206 31 95.5139 31C95.7006 31 95.8872 31 96.0739 31C96.2872 30.9733 96.4872 30.92 96.6739 30.84C97.1272 30.68 97.4872 30.5067 97.7539 30.32C98.0472 30.1333 98.3406 29.9333 98.6339 29.72L98.7939 29.64H98.7539C99.0739 29.48 99.3539 29.32 99.5939 29.16C99.8606 29 99.9939 28.92 99.9939 28.92C100.101 28.92 100.207 28.8533 100.314 28.72C100.527 28.6133 100.794 28.6533 101.114 28.84C101.461 29.0267 101.634 29.2667 101.634 29.56C101.607 29.6933 101.487 29.9067 101.274 30.2C101.061 30.4667 100.821 30.72 100.554 30.96C100.314 31.2 100.114 31.3333 99.9539 31.36C99.9272 31.3867 99.8339 31.44 99.6739 31.52C99.5139 31.5733 99.4072 31.6267 99.3539 31.68H99.3939C99.1539 32 98.9139 32.16 98.6739 32.16H98.3539C98.2472 32.3467 97.9006 32.56 97.3139 32.8C96.7272 33.0133 96.1539 33.12 95.5939 33.12ZM97.3939 24.32C97.8739 24.32 98.2872 24.1867 98.6339 23.92C99.0072 23.6267 99.3272 23.3067 99.5939 22.96C100.127 22.24 100.434 21.5467 100.514 20.88C100.621 20.1867 100.541 19.7067 100.274 19.44C100.114 19.36 99.9672 19.32 99.8339 19.32C99.7272 19.2933 99.5006 19.3333 99.1539 19.44C98.9139 19.4933 98.5806 19.6933 98.1539 20.04C97.7272 20.3867 97.3006 20.7733 96.8739 21.2C96.4739 21.6267 96.1672 21.9867 95.9539 22.28L95.4339 23.12C95.6472 23.04 95.8472 23 96.0339 23C96.2472 22.9733 96.3672 22.9867 96.3939 23.04C96.3939 23.28 96.4339 23.5067 96.5139 23.72C96.6206 23.9067 96.7406 24.0533 96.8739 24.16C97.0339 24.2667 97.2072 24.32 97.3939 24.32ZM117.162 32.52C116.895 32.52 116.615 32.3733 116.322 32.08C116.055 31.7867 115.815 31.4267 115.602 31C115.415 30.5467 115.322 30.12 115.322 29.72C115.322 29.32 115.415 28.5733 115.602 27.48C115.815 26.3867 116.068 25.28 116.362 24.16C116.575 23.4667 116.642 23.0667 116.562 22.96C116.482 22.8533 116.122 23 115.482 23.4C115.108 23.5867 114.775 23.7867 114.482 24C114.188 24.1867 113.935 24.4 113.722 24.64C113.588 24.7467 113.388 24.92 113.122 25.16C112.855 25.4 112.575 25.6267 112.282 25.84C111.935 26.1067 111.495 26.48 110.962 26.96C110.428 27.44 109.895 27.92 109.362 28.4C108.855 28.88 108.468 29.2533 108.202 29.52C108.148 29.6267 108.068 29.72 107.962 29.8C107.855 29.88 107.735 29.9333 107.602 29.96C107.468 29.96 107.322 29.9333 107.162 29.88C106.868 29.8 106.588 29.6267 106.322 29.36C106.082 29.0933 105.962 28.7867 105.962 28.44C105.962 28.1733 106.068 27.72 106.282 27.08C106.495 26.4133 106.775 25.6133 107.122 24.68C107.495 23.7467 107.922 22.76 108.402 21.72C108.482 21.5867 108.548 21.4267 108.602 21.24C108.655 21.0267 108.695 20.8 108.722 20.56C108.775 20.32 108.802 20.0933 108.802 19.88C108.802 19.7467 108.815 19.6133 108.842 19.48C108.895 19.32 108.948 19.1733 109.002 19.04C109.082 18.88 109.148 18.7733 109.202 18.72C109.308 18.5067 109.495 18.4533 109.762 18.56C110.028 18.64 110.255 18.8267 110.442 19.12C110.842 19.4933 111.042 19.96 111.042 20.52C111.068 21.08 110.935 21.7733 110.642 22.6C110.535 22.7867 110.442 22.9733 110.362 23.16C110.308 23.32 110.255 23.4667 110.202 23.6C110.148 23.7067 110.108 23.8 110.082 23.88C110.055 23.9333 110.042 23.96 110.042 23.96C110.148 23.96 110.388 23.84 110.762 23.6C111.135 23.36 111.575 23.0933 112.082 22.8C112.482 22.5067 112.828 22.24 113.122 22C113.442 21.7333 113.708 21.5333 113.922 21.4C114.135 21.24 114.268 21.16 114.322 21.16C114.428 21.16 114.562 21.12 114.722 21.04C114.882 20.96 115.015 20.8667 115.122 20.76C115.228 20.6533 115.308 20.6 115.362 20.6C115.442 20.5733 115.482 20.56 115.482 20.56C115.482 20.56 115.535 20.56 115.642 20.56C115.748 20.5333 115.855 20.4667 115.962 20.36C116.175 20.2 116.455 20.16 116.802 20.24C117.148 20.2933 117.468 20.4267 117.762 20.64C118.055 20.8533 118.202 21.0933 118.202 21.36C118.202 21.4667 118.228 21.56 118.282 21.64C118.362 21.6933 118.402 21.72 118.402 21.72C118.615 21.72 118.748 22.0533 118.802 22.72C118.882 23.3867 118.815 24.0267 118.602 24.64C118.602 25.04 118.522 25.52 118.362 26.08C118.228 26.64 118.108 27.1733 118.002 27.68C117.788 28.3467 117.642 28.9333 117.562 29.44C117.482 29.9467 117.468 30.3733 117.522 30.72C117.575 31.0667 117.668 31.3467 117.802 31.56C117.908 31.7467 117.908 31.96 117.802 32.2C117.695 32.4133 117.482 32.52 117.162 32.52ZM125.57 32.04C124.53 31.6133 123.85 31.0267 123.53 30.28C123.236 29.5067 123.183 28.32 123.37 26.72C123.423 25.8933 123.45 25.3467 123.45 25.08C123.45 24.8133 123.303 24.5467 123.01 24.28C122.93 24.1733 122.783 24.0267 122.57 23.84C122.383 23.6533 122.303 23.4933 122.33 23.36C122.303 23.1733 122.316 22.9733 122.37 22.76C122.423 22.52 122.503 22.4 122.61 22.4C122.716 22.4 122.823 22.3733 122.93 22.32C123.063 22.2667 123.183 22.2667 123.29 22.32C123.396 22.32 123.516 22.3333 123.65 22.36C123.783 22.3867 123.85 22.4533 123.85 22.56C123.956 22.7467 124.13 22.7733 124.37 22.64C124.61 22.48 124.863 22.1333 125.13 21.6C125.396 21.1733 125.743 20.7467 126.17 20.32C126.623 19.8933 127.063 19.5067 127.49 19.16C127.943 18.7867 128.316 18.52 128.61 18.36C128.743 18.3067 128.943 18.24 129.21 18.16C129.476 18.08 129.756 18.0133 130.05 17.96C130.37 17.9067 130.636 17.8933 130.85 17.92C131.33 17.9467 131.73 18.08 132.05 18.32C132.396 18.56 132.716 18.84 133.01 19.16C133.356 19.4 133.57 19.72 133.65 20.12C133.756 20.52 133.783 20.9467 133.73 21.4C133.676 21.8533 133.556 22.2667 133.37 22.64C133.29 22.9067 133.063 23.2267 132.69 23.6C132.316 23.9733 131.89 24.3333 131.41 24.68C130.93 25.0267 130.49 25.28 130.09 25.44C129.743 25.52 129.29 25.5867 128.73 25.64C128.196 25.6933 127.69 25.72 127.21 25.72C126.756 25.6933 126.45 25.64 126.29 25.56C126.103 25.4533 125.956 25.6 125.85 26C125.743 26.4 125.663 26.9733 125.61 27.72C125.556 28.3067 125.556 28.7333 125.61 29C125.663 29.2667 125.716 29.4533 125.77 29.56C125.956 29.7467 126.21 29.9867 126.53 30.28C126.876 30.5467 127.356 30.5867 127.97 30.4C128.476 30.2667 128.97 29.92 129.45 29.36C129.956 28.8 130.423 28.3467 130.85 28C130.956 27.8133 131.13 27.7067 131.37 27.68C131.636 27.6267 131.916 27.64 132.21 27.72C132.503 27.9067 132.623 28.1333 132.57 28.4C132.543 28.64 132.41 29.0133 132.17 29.52C132.09 29.7067 131.903 29.9467 131.61 30.24C131.343 30.5067 131.036 30.7867 130.69 31.08C130.37 31.3467 130.076 31.56 129.81 31.72C129.01 32.1467 128.263 32.3733 127.57 32.4C126.876 32.4 126.21 32.28 125.57 32.04ZM127.93 23.92C128.516 23.7867 128.983 23.6933 129.33 23.64C129.676 23.5867 130.01 23.44 130.33 23.2C130.65 22.9333 131.05 22.44 131.53 21.72C131.636 21.4267 131.663 21.1333 131.61 20.84C131.583 20.5467 131.516 20.3467 131.41 20.24C131.17 19.9733 130.876 19.8933 130.53 20C130.21 20.08 129.903 20.2267 129.61 20.44C129.423 20.52 129.143 20.72 128.77 21.04C128.423 21.3333 128.076 21.68 127.73 22.08C127.383 22.4533 127.103 22.8 126.89 23.12C126.676 23.44 126.623 23.6267 126.73 23.68C126.676 23.7867 126.823 23.8533 127.17 23.88C127.543 23.9067 127.796 23.92 127.93 23.92ZM139.457 32.44C138.124 32.44 137.151 31.96 136.537 31C136.351 30.7333 136.257 30.4667 136.257 30.2C136.284 29.9067 136.364 29.7067 136.497 29.6C136.657 29.4933 136.844 29.5867 137.057 29.88C137.431 30.0933 137.964 30.2 138.657 30.2C139.004 30.2 139.364 30.1733 139.737 30.12C140.111 30.04 140.484 29.9333 140.857 29.8C141.257 29.6133 141.524 29.4533 141.657 29.32C141.791 29.16 141.764 29.0267 141.577 28.92H141.617C140.924 28.7333 140.217 28.44 139.497 28.04C138.804 27.6133 138.204 27.16 137.697 26.68C137.191 26.1733 136.897 25.72 136.817 25.32C136.604 24.4933 136.657 23.6533 136.977 22.8C137.297 21.92 137.751 21.1467 138.337 20.48C138.551 20.3467 138.817 20.1867 139.137 20C139.457 19.7867 139.711 19.6667 139.897 19.64V19.68C140.404 19.1467 141.017 18.72 141.737 18.4C142.484 18.08 143.271 17.7867 144.097 17.52L144.697 17.44C145.017 17.3867 145.284 17.36 145.497 17.36C145.471 17.36 145.524 17.3867 145.657 17.44C145.791 17.4667 145.911 17.4933 146.017 17.52C146.177 17.6 146.311 17.64 146.417 17.64C146.764 17.6933 147.084 17.8533 147.377 18.12C147.671 18.3867 147.897 18.7067 148.057 19.08C148.244 19.4267 148.311 19.76 148.257 20.08C148.204 20.5867 148.044 21.04 147.777 21.44C147.537 21.84 147.244 22.0667 146.897 22.12C146.951 22.0933 146.911 22.0533 146.777 22C146.671 21.92 146.551 21.84 146.417 21.76L146.297 21.84C146.297 21.84 146.284 21.8133 146.257 21.76C146.257 21.68 146.231 21.5867 146.177 21.48C146.097 21.32 146.057 21.1467 146.057 20.96C146.057 20.7467 146.071 20.52 146.097 20.28C146.151 19.9867 146.151 19.8133 146.097 19.76C146.071 19.7067 145.897 19.6667 145.577 19.64C145.204 19.56 144.657 19.6267 143.937 19.84C143.244 20.0533 142.657 20.3467 142.177 20.72C141.591 21.0933 141.097 21.4533 140.697 21.8C140.297 22.12 139.977 22.44 139.737 22.76C139.497 23.0533 139.284 23.4 139.097 23.8C138.964 23.9867 138.844 24.1733 138.737 24.36C138.657 24.52 138.617 24.6667 138.617 24.8C138.617 25.0933 138.831 25.4 139.257 25.72C139.711 26.0133 140.377 26.36 141.257 26.76C141.951 27.0533 142.537 27.3733 143.017 27.72C143.497 28.0667 143.831 28.4667 144.017 28.92C144.071 29.0267 144.084 29.16 144.057 29.32C144.057 29.4533 144.031 29.5467 143.977 29.6C144.031 29.6533 144.057 29.6933 144.057 29.72V29.68C144.271 30 144.271 30.3333 144.057 30.68C143.871 31.0267 143.537 31.3333 143.057 31.6C142.604 31.84 142.044 32.0267 141.377 32.16H141.417C141.071 32.2667 140.724 32.3467 140.377 32.4C140.057 32.4267 139.751 32.44 139.457 32.44ZM149.85 31.72C149.637 31.5067 149.477 31.24 149.37 30.92C149.29 30.6 149.263 30.28 149.29 29.96C149.317 29.64 149.383 29.3733 149.49 29.16C149.49 28.9467 149.517 28.7867 149.57 28.68C149.65 28.5467 149.677 28.4267 149.65 28.32C149.623 28.2133 149.65 28.0267 149.73 27.76C149.81 27.4933 149.89 27.24 149.97 27C150.157 26.5733 150.357 26.0667 150.57 25.48C150.783 24.8667 150.983 24.2667 151.17 23.68C151.357 23.0933 151.517 22.5867 151.65 22.16C151.783 21.7333 151.863 21.4667 151.89 21.36C151.89 21.04 152.103 20.8667 152.53 20.84C152.85 20.7333 153.09 20.7333 153.25 20.84C153.41 20.92 153.623 21.1733 153.89 21.6C154.103 21.8133 154.183 22.1333 154.13 22.56C154.077 22.9867 153.903 23.52 153.61 24.16C153.503 24.3733 153.37 24.68 153.21 25.08C153.077 25.48 152.983 25.84 152.93 26.16C152.823 26.3733 152.69 26.68 152.53 27.08C152.397 27.4533 152.277 27.8133 152.17 28.16C152.117 28.2933 152.063 28.4933 152.01 28.76C151.957 29 151.89 29.2667 151.81 29.56C151.73 29.8267 151.623 30.0667 151.49 30.28C151.25 31.3733 151.023 32.0133 150.81 32.2C150.623 32.3867 150.303 32.2267 149.85 31.72ZM153.73 15.48C153.597 15.3467 153.477 15.16 153.37 14.92C153.263 14.6533 153.197 14.4133 153.17 14.2C153.143 13.96 153.17 13.84 153.25 13.84C153.463 13.8133 153.717 13.5867 154.01 13.16C154.303 12.7333 154.423 12.36 154.37 12.04C154.37 11.9333 154.41 11.84 154.49 11.76C154.57 11.6533 154.663 11.5867 154.77 11.56C155.09 11.3467 155.397 11.32 155.69 11.48C156.01 11.6133 156.303 11.8933 156.57 12.32C156.81 12.8267 156.877 13.2533 156.77 13.6C156.663 13.92 156.37 14.3733 155.89 14.96C155.49 15.4933 155.117 15.7867 154.77 15.84C154.45 15.8933 154.103 15.7733 153.73 15.48ZM159.311 33.16C158.804 32.9467 158.324 32.6667 157.871 32.32C157.418 31.9467 157.124 31.64 156.991 31.4C156.991 31.16 157.031 31 157.111 30.92C157.191 30.8133 157.418 30.7733 157.791 30.8C158.191 30.8 158.831 30.8533 159.711 30.96C160.031 30.96 160.431 30.9333 160.911 30.88C161.391 30.8267 161.831 30.7467 162.231 30.64C162.658 30.5333 162.898 30.4 162.951 30.24C163.084 30.24 163.111 30.2 163.031 30.12C162.951 30.0133 162.858 29.9067 162.751 29.8C162.644 29.8 162.524 29.76 162.391 29.68C162.258 29.5733 162.138 29.52 162.031 29.52C162.031 29.3867 161.898 29.24 161.631 29.08C161.391 28.8933 161.138 28.7467 160.871 28.64C160.284 28.16 159.778 27.7333 159.351 27.36C158.924 26.96 158.764 26.6933 158.871 26.56C158.871 26.4533 158.871 26.4 158.871 26.4C158.871 26.3733 158.871 26.36 158.871 26.36C158.684 26.36 158.471 26.0933 158.231 25.56C158.018 25.0267 157.911 24.5467 157.911 24.12C157.911 23.8 158.004 23.4 158.191 22.92C158.378 22.4133 158.631 21.8933 158.951 21.36C159.271 20.8267 159.604 20.3867 159.951 20.04C160.431 19.5867 161.031 19.1067 161.751 18.6C162.471 18.0667 163.178 17.6 163.871 17.2C164.591 16.7733 165.191 16.4933 165.671 16.36C166.151 16.1733 166.591 16.08 166.991 16.08C167.418 16.08 167.791 16.1733 168.111 16.36C168.378 16.4933 168.618 16.6933 168.831 16.96C169.071 17.2 169.271 17.4533 169.431 17.72C169.618 17.96 169.738 18.1733 169.791 18.36C169.791 18.68 169.764 19.04 169.711 19.44C169.658 19.8133 169.578 20.1467 169.471 20.44C169.391 20.7333 169.258 20.88 169.071 20.88C169.071 20.88 169.031 20.8933 168.951 20.92C168.898 20.92 168.871 20.9867 168.871 21.12C168.871 21.3867 168.671 21.6933 168.271 22.04C167.764 22.3867 167.324 22.6 166.951 22.68C166.578 22.7333 166.351 22.5867 166.271 22.24C166.191 22.1333 166.138 22.04 166.111 21.96C166.084 21.88 166.018 21.84 165.911 21.84C165.911 21.84 165.871 21.8 165.791 21.72C165.711 21.64 165.671 21.5067 165.671 21.32C165.671 21.2133 165.711 21.12 165.791 21.04C165.871 20.9333 165.911 20.88 165.911 20.88C166.044 20.88 166.218 20.7333 166.431 20.44C166.644 20.12 166.831 19.7867 166.991 19.44C167.178 19.0667 167.271 18.8133 167.271 18.68C167.271 18.52 167.244 18.4267 167.191 18.4C167.164 18.3733 167.044 18.36 166.831 18.36C166.458 18.52 166.004 18.7333 165.471 19C164.938 19.2667 164.431 19.5333 163.951 19.8C163.498 20.04 163.164 20.2667 162.951 20.48C162.844 20.6667 162.778 20.7867 162.751 20.84C162.724 20.8667 162.658 20.88 162.551 20.88C162.551 20.7733 162.458 20.8267 162.271 21.04C162.111 21.2267 161.898 21.4933 161.631 21.84C161.391 22.1867 161.151 22.5333 160.911 22.88C160.698 23.2 160.538 23.44 160.431 23.6C160.378 23.6533 160.311 23.8133 160.231 24.08C160.178 24.32 160.151 24.5467 160.151 24.76C160.044 25.08 160.058 25.3067 160.191 25.44C160.324 25.5467 160.618 25.7867 161.071 26.16C162.004 26.8533 162.738 27.4267 163.271 27.88C163.804 28.3333 164.204 28.7067 164.471 29C164.738 29.2933 164.898 29.56 164.951 29.8C165.431 30.6 165.578 31.2133 165.391 31.64C165.204 32.0667 164.751 32.44 164.031 32.76C163.764 32.8933 163.324 33 162.711 33.08C162.098 33.16 161.471 33.2 160.831 33.2C160.191 33.2267 159.684 33.2133 159.311 33.16ZM183.991 32.64C183.325 32.6933 182.685 32.6533 182.071 32.52C181.485 32.3867 180.978 32.16 180.551 31.84C180.151 31.4933 179.871 31.08 179.711 30.6C179.525 30.2267 179.431 29.9733 179.431 29.84C179.431 29.68 179.525 29.5467 179.711 29.44C179.925 29.44 180.111 29.5067 180.271 29.64C180.458 29.7467 180.698 29.8667 180.991 30C181.391 30.3467 181.871 30.5333 182.431 30.56C183.018 30.5867 183.551 30.4933 184.031 30.28C184.511 30.0667 184.778 29.8 184.831 29.48C184.831 29.3733 184.791 29.1867 184.711 28.92C184.631 28.6533 184.538 28.3733 184.431 28.08C183.711 27.0667 183.178 26.0667 182.831 25.08C182.511 24.0667 182.351 23.24 182.351 22.6C182.351 22.12 182.498 21.6133 182.791 21.08C183.085 20.52 183.485 20.0533 183.991 19.68C184.471 19.1733 185.005 18.72 185.591 18.32C186.178 17.92 186.765 17.5733 187.351 17.28C187.965 16.9867 188.511 16.7733 188.991 16.64C189.285 16.64 189.671 16.68 190.151 16.76C190.631 16.84 190.965 16.9333 191.151 17.04C191.445 17.1467 191.725 17.44 191.991 17.92C192.258 18.3733 192.391 18.8267 192.391 19.28C192.391 19.4667 192.338 19.7067 192.231 20C192.125 20.2933 191.951 20.64 191.711 21.04C191.605 21.3333 191.485 21.6133 191.351 21.88C191.218 22.12 191.151 22.2933 191.151 22.4C191.018 22.6933 190.831 22.84 190.591 22.84C190.378 22.8133 190.151 22.6933 189.911 22.48C189.698 22.24 189.525 21.96 189.391 21.64C189.285 21.24 189.245 20.92 189.271 20.68C189.298 20.4133 189.405 20.1333 189.591 19.84C189.885 19.5467 190.031 19.3467 190.031 19.24C190.031 19.1333 189.885 19.08 189.591 19.08C189.405 19.08 189.058 19.2 188.551 19.44C188.071 19.6533 187.551 19.9467 186.991 20.32C186.458 20.6667 185.991 21.04 185.591 21.44C185.085 21.92 184.778 22.2667 184.671 22.48C184.591 22.6933 184.551 23.0267 184.551 23.48C184.551 23.8533 184.631 24.32 184.791 24.88C184.978 25.44 185.165 25.8133 185.351 26C185.351 26 185.445 26.1867 185.631 26.56C185.818 26.9067 186.045 27.28 186.311 27.68C187.085 29.3867 187.285 30.6133 186.911 31.36C186.538 32.1067 185.565 32.5333 183.991 32.64ZM197.424 35C196.544 34.8667 195.944 34.5333 195.624 34C195.331 33.4933 195.264 32.7067 195.424 31.64C195.584 31.1333 195.678 30.68 195.704 30.28C195.758 29.8533 195.878 29.5867 196.064 29.48C196.064 29.48 196.078 29.44 196.104 29.36C196.158 29.28 196.144 29.2 196.064 29.12C196.064 28.7733 196.184 28.2933 196.424 27.68C196.478 27.52 196.544 27.3333 196.624 27.12C196.731 26.88 196.784 26.76 196.784 26.76C196.651 26.5467 196.651 26.3733 196.784 26.24C196.918 26.1067 197.051 25.9867 197.184 25.88C197.344 25.7467 197.358 25.6 197.224 25.44C197.171 25.3333 197.238 25.0933 197.424 24.72C197.611 24.32 197.824 23.9067 198.064 23.48C198.304 23.0533 198.464 22.72 198.544 22.48C198.544 22.4267 198.611 22.24 198.744 21.92C198.878 21.6 199.038 21.2267 199.224 20.8C199.411 20.3733 199.584 19.9867 199.744 19.64C199.931 19.2933 200.051 19.0667 200.104 18.96C200.371 18.8267 200.264 18.7333 199.784 18.68C199.304 18.6267 198.798 18.6133 198.264 18.64C197.438 18.6133 196.771 18.5733 196.264 18.52C195.784 18.4667 195.384 18.3467 195.064 18.16C194.744 17.7867 194.624 17.52 194.704 17.36C194.811 17.1733 195.131 17.0667 195.664 17.04C196.011 17.0133 196.278 17 196.464 17C196.678 17 196.944 16.9867 197.264 16.96C197.611 16.9067 198.144 16.84 198.864 16.76L200.904 16.6L201.024 15.92C201.238 15.5733 201.411 15.2667 201.544 15C201.704 14.7067 201.838 14.4133 201.944 14.12C202.051 13.8267 202.131 13.52 202.184 13.2C202.184 13.2 202.304 12.9867 202.544 12.56C202.784 12.1067 202.931 11.64 202.984 11.16C203.304 10.6267 203.584 10.1467 203.824 9.72C204.064 9.26667 204.211 8.98667 204.264 8.88C204.558 8.64 204.758 8.52 204.864 8.52C204.998 8.52 205.264 8.65333 205.664 8.92C205.904 9.05333 206.118 9.21333 206.304 9.4C206.491 9.58667 206.611 9.78667 206.664 10C206.718 10.1867 206.638 10.3733 206.424 10.56C206.371 10.6667 206.291 10.8667 206.184 11.16C206.078 11.4267 205.998 11.6533 205.944 11.84C205.784 12.0267 205.584 12.3333 205.344 12.76C205.131 13.16 204.984 13.5733 204.904 14C204.691 14.4533 204.491 14.8667 204.304 15.24C204.118 15.5867 203.971 15.76 203.864 15.76C203.918 16.0267 204.078 16.16 204.344 16.16C204.611 16.1333 205.051 16.1067 205.664 16.08C206.171 16.0267 206.518 15.9733 206.704 15.92C206.918 15.84 207.158 15.8667 207.424 16C207.558 16.1867 207.664 16.4 207.744 16.64C207.824 16.88 207.838 17.1067 207.784 17.32C207.758 17.5067 207.651 17.64 207.464 17.72C207.331 17.72 207.051 17.8 206.624 17.96C206.224 18.0933 205.718 18.1733 205.104 18.2L202.984 18.4L202.304 19.76C202.118 20.1067 201.958 20.4267 201.824 20.72C201.691 20.9867 201.598 21.1467 201.544 21.2C201.544 21.36 201.451 21.6 201.264 21.92C201.104 22.24 200.931 22.5867 200.744 22.96C200.584 23.4133 200.398 23.8267 200.184 24.2C199.998 24.5733 199.904 24.76 199.904 24.76C199.798 24.76 199.744 24.84 199.744 25C199.878 25.32 199.838 25.56 199.624 25.72C199.491 25.8 199.371 25.92 199.264 26.08C199.184 26.2133 199.144 26.28 199.144 26.28C199.251 26.3867 199.264 26.52 199.184 26.68C199.131 26.84 199.051 27.0133 198.944 27.2C198.944 27.4133 198.878 27.72 198.744 28.12C198.638 28.52 198.518 28.8933 198.384 29.24C198.411 29.72 198.438 30.0267 198.464 30.16C198.491 30.2933 198.558 30.3467 198.664 30.32C198.798 30.3467 198.918 30.3467 199.024 30.32C199.131 30.2933 199.238 30.28 199.344 30.28C199.718 30.12 199.518 31.0533 198.744 33.08C198.318 33.7467 198.024 34.2267 197.864 34.52C197.704 34.84 197.558 35 197.424 35ZM207.826 31.6C207.586 31.4133 207.413 31.2267 207.306 31.04C207.226 30.8533 207.226 30.4933 207.306 29.96C207.386 29.2133 207.493 28.56 207.626 28C207.76 27.4133 207.92 26.7467 208.106 26C208.16 25.68 208.306 25.1333 208.546 24.36C208.813 23.5867 209.133 22.7467 209.506 21.84C209.88 20.9333 210.253 20.08 210.626 19.28C211 18.4533 211.32 17.84 211.586 17.44C211.8 17.28 212.053 17.2133 212.346 17.24C212.666 17.2667 212.933 17.3867 213.146 17.6C213.44 17.84 213.48 18.2667 213.266 18.88C213.08 19.4667 212.68 20.4 212.066 21.68C211.746 22.4 211.506 22.9467 211.346 23.32C211.186 23.6667 211.12 23.88 211.146 23.96C211.173 24.0133 211.293 23.9733 211.506 23.84C211.666 23.5467 211.96 23.2133 212.386 22.84C212.813 22.44 213.266 22.0533 213.746 21.68C214.226 21.3067 214.68 20.9733 215.106 20.68C215.533 20.3867 215.826 20.2 215.986 20.12C216.2 19.9867 216.44 19.88 216.706 19.8C217 19.6933 217.2 19.6133 217.306 19.56C217.92 19.2667 218.546 19.16 219.186 19.24C219.826 19.32 220.226 19.56 220.386 19.96C220.413 20.1733 220.493 20.3333 220.626 20.44C220.786 20.5467 220.866 20.6 220.866 20.6C220.973 20.6 221.026 20.64 221.026 20.72C221.053 20.8 221.066 20.84 221.066 20.84C221.066 21.0267 220.92 21.1467 220.626 21.2C220.36 21.2267 220.013 21.2533 219.586 21.28C219.24 21.3067 218.933 21.3733 218.666 21.48C218.4 21.5867 218.08 21.72 217.706 21.88C216.693 22.4667 215.72 23.04 214.786 23.6C213.88 24.16 213 24.9067 212.146 25.84C211.96 26.0533 211.773 26.3067 211.586 26.6C211.4 26.8933 211.2 27.2133 210.986 27.56C210.853 27.6933 210.72 27.9867 210.586 28.44C210.453 28.8933 210.333 29.3333 210.226 29.76C210.146 30.16 210.106 30.4 210.106 30.48C210.106 30.48 210.066 30.6133 209.986 30.88C209.906 31.12 209.773 31.36 209.586 31.6C209.266 32.0267 209 32.24 208.786 32.24C208.573 32.24 208.253 32.0267 207.826 31.6ZM225.32 33.12C224.147 33.12 223.187 32.68 222.44 31.8C221.694 30.8933 221.334 29.7733 221.36 28.44C221.414 27.48 221.6 26.4533 221.92 25.36C222.267 24.24 222.72 23.1733 223.28 22.16C223.84 21.12 224.454 20.2133 225.12 19.44C225.787 18.6667 226.48 18.12 227.2 17.8C227.467 17.6667 227.747 17.56 228.04 17.48C228.36 17.4 228.68 17.36 229 17.36C229.294 17.36 229.6 17.4133 229.92 17.52C230.24 17.6 230.507 17.6933 230.72 17.8C231.174 17.9867 231.52 18.2133 231.76 18.48C232 18.7467 232.214 19.16 232.4 19.72C232.48 20.2267 232.52 20.5867 232.52 20.8C232.52 21.0133 232.454 21.3333 232.32 21.76C232 22.72 231.587 23.5467 231.08 24.24C230.574 24.9333 229.894 25.52 229.04 26C228.827 26.1333 228.574 26.24 228.28 26.32C228.014 26.3733 227.734 26.4 227.44 26.4C226.907 26.4 226.387 26.3067 225.88 26.12C225.4 25.9067 225.014 25.6 224.72 25.2L224.44 24.88L224.32 25.2C224.054 25.92 223.84 26.5867 223.68 27.2C223.547 27.8133 223.48 28.3733 223.48 28.88C223.48 29.2 223.507 29.5067 223.56 29.8C223.64 30.0933 223.747 30.3467 223.88 30.56C223.987 30.72 224.16 30.84 224.4 30.92C224.667 30.9733 224.947 31 225.24 31C225.427 31 225.614 31 225.8 31C226.014 30.9733 226.214 30.92 226.4 30.84C226.854 30.68 227.214 30.5067 227.48 30.32C227.774 30.1333 228.067 29.9333 228.36 29.72L228.52 29.64H228.48C228.8 29.48 229.08 29.32 229.32 29.16C229.587 29 229.72 28.92 229.72 28.92C229.827 28.92 229.934 28.8533 230.04 28.72C230.254 28.6133 230.52 28.6533 230.84 28.84C231.187 29.0267 231.36 29.2667 231.36 29.56C231.334 29.6933 231.214 29.9067 231 30.2C230.787 30.4667 230.547 30.72 230.28 30.96C230.04 31.2 229.84 31.3333 229.68 31.36C229.654 31.3867 229.56 31.44 229.4 31.52C229.24 31.5733 229.134 31.6267 229.08 31.68H229.12C228.88 32 228.64 32.16 228.4 32.16H228.08C227.974 32.3467 227.627 32.56 227.04 32.8C226.454 33.0133 225.88 33.12 225.32 33.12ZM227.12 24.32C227.6 24.32 228.014 24.1867 228.36 23.92C228.734 23.6267 229.054 23.3067 229.32 22.96C229.854 22.24 230.16 21.5467 230.24 20.88C230.347 20.1867 230.267 19.7067 230 19.44C229.84 19.36 229.694 19.32 229.56 19.32C229.454 19.2933 229.227 19.3333 228.88 19.44C228.64 19.4933 228.307 19.6933 227.88 20.04C227.454 20.3867 227.027 20.7733 226.6 21.2C226.2 21.6267 225.894 21.9867 225.68 22.28L225.16 23.12C225.374 23.04 225.574 23 225.76 23C225.974 22.9733 226.094 22.9867 226.12 23.04C226.12 23.28 226.16 23.5067 226.24 23.72C226.347 23.9067 226.467 24.0533 226.6 24.16C226.76 24.2667 226.934 24.32 227.12 24.32ZM246.888 32.52C246.622 32.52 246.342 32.3733 246.048 32.08C245.782 31.7867 245.542 31.4267 245.328 31C245.142 30.5467 245.048 30.12 245.048 29.72C245.048 29.32 245.142 28.5733 245.328 27.48C245.542 26.3867 245.795 25.28 246.088 24.16C246.302 23.4667 246.368 23.0667 246.288 22.96C246.208 22.8533 245.848 23 245.208 23.4C244.835 23.5867 244.502 23.7867 244.208 24C243.915 24.1867 243.662 24.4 243.448 24.64C243.315 24.7467 243.115 24.92 242.848 25.16C242.582 25.4 242.302 25.6267 242.008 25.84C241.662 26.1067 241.222 26.48 240.688 26.96C240.155 27.44 239.622 27.92 239.088 28.4C238.582 28.88 238.195 29.2533 237.928 29.52C237.875 29.6267 237.795 29.72 237.688 29.8C237.582 29.88 237.462 29.9333 237.328 29.96C237.195 29.96 237.048 29.9333 236.888 29.88C236.595 29.8 236.315 29.6267 236.048 29.36C235.808 29.0933 235.688 28.7867 235.688 28.44C235.688 28.1733 235.795 27.72 236.008 27.08C236.222 26.4133 236.502 25.6133 236.848 24.68C237.222 23.7467 237.648 22.76 238.128 21.72C238.208 21.5867 238.275 21.4267 238.328 21.24C238.382 21.0267 238.422 20.8 238.448 20.56C238.502 20.32 238.528 20.0933 238.528 19.88C238.528 19.7467 238.542 19.6133 238.568 19.48C238.622 19.32 238.675 19.1733 238.728 19.04C238.808 18.88 238.875 18.7733 238.928 18.72C239.035 18.5067 239.222 18.4533 239.488 18.56C239.755 18.64 239.982 18.8267 240.168 19.12C240.568 19.4933 240.768 19.96 240.768 20.52C240.795 21.08 240.662 21.7733 240.368 22.6C240.262 22.7867 240.168 22.9733 240.088 23.16C240.035 23.32 239.982 23.4667 239.928 23.6C239.875 23.7067 239.835 23.8 239.808 23.88C239.782 23.9333 239.768 23.96 239.768 23.96C239.875 23.96 240.115 23.84 240.488 23.6C240.862 23.36 241.302 23.0933 241.808 22.8C242.208 22.5067 242.555 22.24 242.848 22C243.168 21.7333 243.435 21.5333 243.648 21.4C243.862 21.24 243.995 21.16 244.048 21.16C244.155 21.16 244.288 21.12 244.448 21.04C244.608 20.96 244.742 20.8667 244.848 20.76C244.955 20.6533 245.035 20.6 245.088 20.6C245.168 20.5733 245.208 20.56 245.208 20.56C245.208 20.56 245.262 20.56 245.368 20.56C245.475 20.5333 245.582 20.4667 245.688 20.36C245.902 20.2 246.182 20.16 246.528 20.24C246.875 20.2933 247.195 20.4267 247.488 20.64C247.782 20.8533 247.928 21.0933 247.928 21.36C247.928 21.4667 247.955 21.56 248.008 21.64C248.088 21.6933 248.128 21.72 248.128 21.72C248.342 21.72 248.475 22.0533 248.528 22.72C248.608 23.3867 248.542 24.0267 248.328 24.64C248.328 25.04 248.248 25.52 248.088 26.08C247.955 26.64 247.835 27.1733 247.728 27.68C247.515 28.3467 247.368 28.9333 247.288 29.44C247.208 29.9467 247.195 30.3733 247.248 30.72C247.302 31.0667 247.395 31.3467 247.528 31.56C247.635 31.7467 247.635 31.96 247.528 32.2C247.422 32.4133 247.208 32.52 246.888 32.52ZM257.416 40.64C256.909 40.8533 256.349 40.92 255.736 40.84C255.149 40.7867 254.563 40.6133 253.976 40.32C253.416 40.0267 252.909 39.6667 252.456 39.24C252.269 39.0533 252.069 38.76 251.856 38.36C251.669 37.9867 251.523 37.6267 251.416 37.28C251.336 36.9333 251.349 36.7333 251.456 36.68C251.563 36.6 251.709 36.5733 251.896 36.6C252.083 36.6267 252.256 36.6667 252.416 36.72C252.603 36.8 252.696 36.8933 252.696 37C252.856 37.1333 253.136 37.3333 253.536 37.6C253.936 37.8933 254.243 38.0667 254.456 38.12C255.016 38.3067 255.429 38.3867 255.696 38.36C255.963 38.3333 256.203 38.24 256.416 38.08C256.843 37.7067 257.176 37.2533 257.416 36.72C257.656 36.1867 257.909 35.4533 258.176 34.52L258.296 34C258.509 33.0133 258.749 31.96 259.016 30.84C259.283 29.72 259.509 28.84 259.696 28.2C259.829 27.5867 259.869 27.1733 259.816 26.96C259.789 26.7467 259.669 26.7867 259.456 27.08C259.349 27.1067 259.203 27.16 259.016 27.24C258.856 27.32 258.669 27.4133 258.456 27.52C258.136 27.68 257.816 27.84 257.496 28C257.176 28.1333 256.909 28.2267 256.696 28.28C256.483 28.28 256.283 28.2933 256.096 28.32C255.909 28.32 255.816 28.32 255.816 28.32C255.603 28.4533 255.216 28.44 254.656 28.28C254.123 28.0933 253.643 27.8267 253.216 27.48C252.976 27.16 252.803 26.92 252.696 26.76C252.589 26.5733 252.523 26.3867 252.496 26.2C252.469 25.9867 252.456 25.6667 252.456 25.24C252.429 24.8133 252.629 24.2 253.056 23.4C253.509 22.5733 254.056 21.8 254.696 21.08C255.203 20.5733 255.856 20.0533 256.656 19.52C257.456 18.9867 258.256 18.5467 259.056 18.2C259.883 17.8533 260.563 17.6933 261.096 17.72C261.363 17.7467 261.616 17.7867 261.856 17.84C262.096 17.8667 262.363 17.9867 262.656 18.2C263.029 18.3867 263.296 18.5867 263.456 18.8C263.616 19.0133 263.829 19.4267 264.096 20.04C264.256 20.4667 264.376 20.8933 264.456 21.32C264.536 21.72 264.576 22.1067 264.576 22.48C264.576 22.88 264.523 23.24 264.416 23.56C264.309 23.88 264.163 24.1333 263.976 24.32C263.923 24.32 263.856 24.3333 263.776 24.36C263.723 24.36 263.669 24.3733 263.616 24.4C263.456 24.4533 263.323 24.48 263.216 24.48C263.136 24.48 263.043 24.5733 262.936 24.76C262.829 24.92 262.749 25.1333 262.696 25.4C262.669 25.56 262.629 25.72 262.576 25.88C262.549 26.04 262.509 26.1867 262.456 26.32C262.403 26.4533 262.349 26.5733 262.296 26.68C262.269 26.76 262.256 26.8267 262.256 26.88C262.256 26.96 262.243 27.0267 262.216 27.08C262.189 27.1333 262.149 27.2 262.096 27.28C262.016 27.4133 261.936 27.5867 261.856 27.8C261.803 27.9867 261.776 28.1867 261.776 28.4L261.616 28.84C261.536 29.1067 261.456 29.3467 261.376 29.56C261.323 29.7733 261.296 29.9067 261.296 29.96L261.136 30.76C261.083 30.9467 261.016 31.12 260.936 31.28C260.883 31.4133 260.829 31.6267 260.776 31.92C260.723 32.1867 260.656 32.6267 260.576 33.24C260.043 35.5333 259.509 37.2533 258.976 38.4C258.443 39.5733 257.923 40.32 257.416 40.64ZM254.656 26.12C255.349 26.3867 256.069 26.4133 256.816 26.2C257.563 25.9867 258.416 25.5067 259.376 24.76C259.989 24.3067 260.496 23.7867 260.896 23.2C261.323 22.5867 261.629 21.96 261.816 21.32C261.949 20.92 261.989 20.64 261.936 20.48C261.883 20.2933 261.709 20.1867 261.416 20.16C260.963 20.0533 260.389 20.1333 259.696 20.4C259.003 20.64 258.296 20.9867 257.576 21.44C257.443 21.6267 257.283 21.8 257.096 21.96C256.909 22.12 256.736 22.2533 256.576 22.36C256.443 22.44 256.376 22.48 256.376 22.48C256.349 22.5333 256.309 22.6 256.256 22.68C256.229 22.76 256.163 22.8267 256.056 22.88C255.789 23.12 255.523 23.48 255.256 23.96C254.989 24.44 254.789 24.8933 254.656 25.32C254.549 25.7467 254.549 26.0133 254.656 26.12ZM269.875 32.72C269.582 32.6667 269.275 32.52 268.955 32.28C268.662 32.0133 268.395 31.72 268.155 31.4C267.942 31.0533 267.795 30.7467 267.715 30.48C267.715 30.4267 267.675 30.36 267.595 30.28C267.542 30.2 267.515 30.16 267.515 30.16C267.408 30.08 267.342 29.7333 267.315 29.12C267.315 28.48 267.355 27.7733 267.435 27C267.515 26.2267 267.608 25.6133 267.715 25.16C267.848 24.7333 268.048 24.16 268.315 23.44C268.582 22.6933 268.808 22.0267 268.995 21.44L270.075 19.12L268.475 18.68C268.288 18.6267 268.128 18.52 267.995 18.36C267.888 18.2 267.835 18.0667 267.835 17.96C267.835 17.7467 267.955 17.4933 268.195 17.2C268.435 16.88 268.608 16.72 268.715 16.72C268.848 16.7467 269.088 16.76 269.435 16.76C269.808 16.76 270.168 16.7467 270.515 16.72C270.862 16.6933 271.075 16.6667 271.155 16.64C271.262 16.5867 271.368 16.52 271.475 16.44C271.582 16.3333 271.662 16.1867 271.715 16C271.848 15.7067 271.968 15.44 272.075 15.2C272.182 14.9333 272.328 14.64 272.515 14.32C272.702 13.9733 272.848 13.68 272.955 13.44C273.088 13.2 273.288 12.8667 273.555 12.44C273.688 12.2533 273.835 12.0267 273.995 11.76C274.155 11.4933 274.355 11.2667 274.595 11.08C274.835 10.8667 275.075 10.7733 275.315 10.8C275.582 10.8 275.915 10.9733 276.315 11.32C276.528 11.5867 276.648 11.7867 276.675 11.92C276.702 12.0533 276.595 12.3067 276.355 12.68C276.142 13.1333 275.888 13.5867 275.595 14.04C275.328 14.4933 275.075 14.9467 274.835 15.4C274.408 15.9867 274.328 16.32 274.595 16.4C274.862 16.48 275.608 16.4267 276.835 16.24C277.608 16.1067 278.168 16.1467 278.515 16.36C278.862 16.5467 279.062 16.8667 279.115 17.32C279.195 17.96 279.128 18.3467 278.915 18.48C278.702 18.6133 278.088 18.68 277.075 18.68C276.435 18.7867 275.888 18.8533 275.435 18.88C274.982 18.88 274.648 18.88 274.435 18.88C274.088 18.9067 273.862 18.92 273.755 18.92C273.648 18.92 273.488 18.9467 273.275 19C273.062 19.0533 272.902 19.1467 272.795 19.28C272.715 19.3867 272.622 19.5467 272.515 19.76C272.408 19.8667 272.248 20.1467 272.035 20.6C271.822 21.0533 271.555 21.5467 271.235 22.08C270.862 23.2 270.542 24.32 270.275 25.44C270.008 26.5333 269.795 27.6 269.635 28.64C269.528 29.3067 269.542 29.7733 269.675 30.04C269.808 30.28 270.155 30.4267 270.715 30.48C271.008 30.5067 271.475 30.5067 272.115 30.48C272.782 30.4267 273.302 30.3467 273.675 30.24C273.968 30.1067 274.275 29.9733 274.595 29.84C274.915 29.68 275.208 29.52 275.475 29.36C275.715 29.2267 275.955 29.0933 276.195 28.96C276.435 28.8 276.555 28.72 276.555 28.72C276.688 28.5067 276.835 28.44 276.995 28.52C277.155 28.6 277.288 28.8 277.395 29.12C277.395 29.44 277.328 29.7733 277.195 30.12C277.062 30.4667 276.568 30.88 275.715 31.36C274.515 32.1067 273.408 32.56 272.395 32.72C271.408 32.8533 270.568 32.8533 269.875 32.72ZM292.557 31.76C291.89 32.08 291.29 32.1733 290.757 32.04C290.224 31.88 289.797 31.52 289.477 30.96C289.184 30.4 289.037 29.6933 289.037 28.84C289.037 28.5467 289.077 28.1067 289.157 27.52C289.264 26.9333 289.384 26.32 289.517 25.68C289.65 25.0133 289.797 24.44 289.957 23.96C290.037 23.72 290.09 23.5333 290.117 23.4C290.17 23.2667 290.144 23.2 290.037 23.2C289.93 23.2 289.797 23.2667 289.637 23.4C289.504 23.5333 289.397 23.64 289.317 23.72C288.73 24.2 288.117 24.7867 287.477 25.48C286.864 26.1733 286.29 26.88 285.757 27.6C285.224 28.2933 284.784 28.9333 284.437 29.52C284.117 30.1067 283.957 30.5333 283.957 30.8C283.957 31.2 283.757 31.48 283.357 31.64C282.957 31.8 282.61 31.7867 282.317 31.6C281.81 31.3067 281.49 30.96 281.357 30.56C281.25 30.1333 281.237 29.4267 281.317 28.44C281.397 27.1867 281.504 26.0667 281.637 25.08C281.77 24.0933 281.984 23.0267 282.277 21.88C282.597 20.7067 283.01 19.28 283.517 17.6C283.864 16.6667 284.184 15.7867 284.477 14.96C284.77 14.1067 285.024 13.3867 285.237 12.8C285.477 12.2133 285.624 11.8533 285.677 11.72C285.81 11.5867 285.984 11.2667 286.197 10.76C286.41 10.2267 286.597 9.69333 286.757 9.16C286.944 8.62666 287.037 8.30667 287.037 8.2C287.037 7.98667 287.077 7.8 287.157 7.64C287.237 7.45333 287.33 7.30667 287.437 7.2C287.544 7.09333 287.637 7 287.717 6.92C287.797 6.84 287.837 6.8 287.837 6.8C287.97 6.8 288.13 6.84 288.317 6.92C288.53 7 288.73 7.12 288.917 7.28C289.104 7.41333 289.224 7.58667 289.277 7.8C289.464 8.17333 289.557 8.56 289.557 8.96C289.557 9.33333 289.437 9.8 289.197 10.36C288.984 10.92 288.61 11.6933 288.077 12.68C287.65 13.5067 287.264 14.36 286.917 15.24C286.57 16.12 286.237 17.04 285.917 18C285.784 18.4 285.597 18.96 285.357 19.68C285.144 20.4 284.917 21.1467 284.677 21.92C284.464 22.6933 284.277 23.3867 284.117 24C283.984 24.5867 283.917 24.96 283.917 25.12C283.917 25.3067 284.024 25.4 284.237 25.4C284.45 25.3733 284.664 25.2133 284.877 24.92C284.984 24.7067 285.21 24.44 285.557 24.12C285.904 23.8 286.184 23.5467 286.397 23.36C286.61 23.1733 286.904 22.9067 287.277 22.56C287.65 22.2133 288.05 21.8667 288.477 21.52C288.904 21.1467 289.304 20.84 289.677 20.6C290.05 20.3333 290.344 20.2 290.557 20.2C290.904 20.2 291.224 20.3333 291.517 20.6C291.81 20.84 292.01 21.1067 292.117 21.4C292.197 21.48 292.277 21.5867 292.357 21.72C292.437 21.8267 292.49 21.9067 292.517 21.96C292.65 22.0667 292.65 22.5333 292.517 23.36C292.41 24.16 292.144 25.2 291.717 26.48C291.477 27.4667 291.277 28.3067 291.117 29C290.984 29.6667 291.024 30 291.237 30C291.237 30 291.37 29.92 291.637 29.76C291.93 29.6 292.237 29.4267 292.557 29.24C293.33 28.7333 293.997 28.44 294.557 28.36C295.144 28.2533 295.437 28.3467 295.437 28.64C295.437 28.7467 295.397 28.8533 295.317 28.96C295.237 29.04 295.197 29.1333 295.197 29.24C295.197 29.24 295.197 29.2533 295.197 29.28C295.197 29.28 295.197 29.3333 295.197 29.44C295.197 29.4933 295.024 29.7067 294.677 30.08C294.33 30.4267 293.944 30.7867 293.517 31.16C293.117 31.5067 292.797 31.7067 292.557 31.76ZM300.921 32.04C299.881 31.6133 299.201 31.0267 298.881 30.28C298.588 29.5067 298.534 28.32 298.721 26.72C298.774 25.8933 298.801 25.3467 298.801 25.08C298.801 24.8133 298.654 24.5467 298.361 24.28C298.281 24.1733 298.134 24.0267 297.921 23.84C297.734 23.6533 297.654 23.4933 297.681 23.36C297.654 23.1733 297.668 22.9733 297.721 22.76C297.774 22.52 297.854 22.4 297.961 22.4C298.068 22.4 298.174 22.3733 298.281 22.32C298.414 22.2667 298.534 22.2667 298.641 22.32C298.748 22.32 298.868 22.3333 299.001 22.36C299.134 22.3867 299.201 22.4533 299.201 22.56C299.308 22.7467 299.481 22.7733 299.721 22.64C299.961 22.48 300.214 22.1333 300.481 21.6C300.748 21.1733 301.094 20.7467 301.521 20.32C301.974 19.8933 302.414 19.5067 302.841 19.16C303.294 18.7867 303.668 18.52 303.961 18.36C304.094 18.3067 304.294 18.24 304.561 18.16C304.828 18.08 305.108 18.0133 305.401 17.96C305.721 17.9067 305.988 17.8933 306.201 17.92C306.681 17.9467 307.081 18.08 307.401 18.32C307.748 18.56 308.068 18.84 308.361 19.16C308.708 19.4 308.921 19.72 309.001 20.12C309.108 20.52 309.134 20.9467 309.081 21.4C309.028 21.8533 308.908 22.2667 308.721 22.64C308.641 22.9067 308.414 23.2267 308.041 23.6C307.668 23.9733 307.241 24.3333 306.761 24.68C306.281 25.0267 305.841 25.28 305.441 25.44C305.094 25.52 304.641 25.5867 304.081 25.64C303.548 25.6933 303.041 25.72 302.561 25.72C302.108 25.6933 301.801 25.64 301.641 25.56C301.454 25.4533 301.308 25.6 301.201 26C301.094 26.4 301.014 26.9733 300.961 27.72C300.908 28.3067 300.908 28.7333 300.961 29C301.014 29.2667 301.068 29.4533 301.121 29.56C301.308 29.7467 301.561 29.9867 301.881 30.28C302.228 30.5467 302.708 30.5867 303.321 30.4C303.828 30.2667 304.321 29.92 304.801 29.36C305.308 28.8 305.774 28.3467 306.201 28C306.308 27.8133 306.481 27.7067 306.721 27.68C306.988 27.6267 307.268 27.64 307.561 27.72C307.854 27.9067 307.974 28.1333 307.921 28.4C307.894 28.64 307.761 29.0133 307.521 29.52C307.441 29.7067 307.254 29.9467 306.961 30.24C306.694 30.5067 306.388 30.7867 306.041 31.08C305.721 31.3467 305.428 31.56 305.161 31.72C304.361 32.1467 303.614 32.3733 302.921 32.4C302.228 32.4 301.561 32.28 300.921 32.04ZM303.281 23.92C303.868 23.7867 304.334 23.6933 304.681 23.64C305.028 23.5867 305.361 23.44 305.681 23.2C306.001 22.9333 306.401 22.44 306.881 21.72C306.988 21.4267 307.014 21.1333 306.961 20.84C306.934 20.5467 306.868 20.3467 306.761 20.24C306.521 19.9733 306.228 19.8933 305.881 20C305.561 20.08 305.254 20.2267 304.961 20.44C304.774 20.52 304.494 20.72 304.121 21.04C303.774 21.3333 303.428 21.68 303.081 22.08C302.734 22.4533 302.454 22.8 302.241 23.12C302.028 23.44 301.974 23.6267 302.081 23.68C302.028 23.7867 302.174 23.8533 302.521 23.88C302.894 23.9067 303.148 23.92 303.281 23.92ZM313.049 31.24C312.942 31.24 312.782 31.1733 312.569 31.04C312.382 30.88 312.236 30.7467 312.129 30.64C311.942 30.4267 311.822 30.2133 311.769 30C311.742 29.7867 311.729 29.3067 311.729 28.56C311.729 27.7067 311.902 26.7867 312.249 25.8C312.596 24.7867 313.182 23.3733 314.009 21.56L315.329 18.76C315.436 18.5467 315.529 18.3867 315.609 18.28C315.716 18.1733 315.809 18.0667 315.889 17.96C315.996 17.96 316.089 17.96 316.169 17.96C316.249 17.96 316.289 17.96 316.289 17.96C316.502 17.96 316.716 18.0933 316.929 18.36C317.142 18.6 317.302 18.8667 317.409 19.16C317.409 19.5067 317.356 19.8667 317.249 20.24C317.169 20.6133 316.849 21.1733 316.289 21.92C316.102 22.2133 315.849 22.7067 315.529 23.4C315.236 24.0933 315.036 24.6933 314.929 25.2C314.902 25.2267 314.849 25.3467 314.769 25.56C314.689 25.7467 314.596 25.96 314.489 26.2C314.409 26.44 314.316 26.6667 314.209 26.88L314.009 27.76L316.689 25C317.942 23.7467 318.956 22.8533 319.729 22.32C320.502 21.7867 321.116 21.56 321.569 21.64C322.022 21.72 322.409 22.08 322.729 22.72C322.916 23.0133 323.049 23.28 323.129 23.52C323.236 23.7333 323.302 24.0267 323.329 24.4C323.356 24.7733 323.329 25.3333 323.249 26.08V28.56C323.649 28.4533 323.969 28.36 324.209 28.28C324.449 28.1733 324.702 28.0667 324.969 27.96C325.209 27.8533 325.489 27.76 325.809 27.68C326.129 27.5733 326.529 27.5067 327.009 27.48C326.982 27.8267 326.862 28.2 326.649 28.6C326.436 28.9733 326.169 29.3333 325.849 29.68C325.529 30.0267 325.169 30.3067 324.769 30.52C324.396 30.7333 324.022 30.84 323.649 30.84C323.302 30.84 322.916 30.6667 322.489 30.32C322.062 29.9733 321.756 29.5867 321.569 29.16C321.462 28.8667 321.396 28.5467 321.369 28.2C321.369 27.8533 321.369 27.2133 321.369 26.28V24.8C321.369 24.3733 321.236 24.2533 320.969 24.44C320.729 24.6 320.529 24.7467 320.369 24.88C319.969 25.2267 319.542 25.6267 319.089 26.08C318.662 26.5333 318.222 27 317.769 27.48C316.542 28.76 315.516 29.7067 314.689 30.32C313.889 30.9333 313.342 31.24 313.049 31.24ZM331.577 33.16C331.07 32.9467 330.59 32.6667 330.137 32.32C329.683 31.9467 329.39 31.64 329.257 31.4C329.257 31.16 329.297 31 329.377 30.92C329.457 30.8133 329.683 30.7733 330.057 30.8C330.457 30.8 331.097 30.8533 331.977 30.96C332.297 30.96 332.697 30.9333 333.177 30.88C333.657 30.8267 334.097 30.7467 334.497 30.64C334.923 30.5333 335.163 30.4 335.217 30.24C335.35 30.24 335.377 30.2 335.297 30.12C335.217 30.0133 335.123 29.9067 335.017 29.8C334.91 29.8 334.79 29.76 334.657 29.68C334.523 29.5733 334.403 29.52 334.297 29.52C334.297 29.3867 334.163 29.24 333.897 29.08C333.657 28.8933 333.403 28.7467 333.137 28.64C332.55 28.16 332.043 27.7333 331.617 27.36C331.19 26.96 331.03 26.6933 331.137 26.56C331.137 26.4533 331.137 26.4 331.137 26.4C331.137 26.3733 331.137 26.36 331.137 26.36C330.95 26.36 330.737 26.0933 330.497 25.56C330.283 25.0267 330.177 24.5467 330.177 24.12C330.177 23.8 330.27 23.4 330.457 22.92C330.643 22.4133 330.897 21.8933 331.217 21.36C331.537 20.8267 331.87 20.3867 332.217 20.04C332.697 19.5867 333.297 19.1067 334.017 18.6C334.737 18.0667 335.443 17.6 336.137 17.2C336.857 16.7733 337.457 16.4933 337.937 16.36C338.417 16.1733 338.857 16.08 339.257 16.08C339.683 16.08 340.057 16.1733 340.377 16.36C340.643 16.4933 340.883 16.6933 341.097 16.96C341.337 17.2 341.537 17.4533 341.697 17.72C341.883 17.96 342.003 18.1733 342.057 18.36C342.057 18.68 342.03 19.04 341.977 19.44C341.923 19.8133 341.843 20.1467 341.737 20.44C341.657 20.7333 341.523 20.88 341.337 20.88C341.337 20.88 341.297 20.8933 341.217 20.92C341.163 20.92 341.137 20.9867 341.137 21.12C341.137 21.3867 340.937 21.6933 340.537 22.04C340.03 22.3867 339.59 22.6 339.217 22.68C338.843 22.7333 338.617 22.5867 338.537 22.24C338.457 22.1333 338.403 22.04 338.377 21.96C338.35 21.88 338.283 21.84 338.177 21.84C338.177 21.84 338.137 21.8 338.057 21.72C337.977 21.64 337.937 21.5067 337.937 21.32C337.937 21.2133 337.977 21.12 338.057 21.04C338.137 20.9333 338.177 20.88 338.177 20.88C338.31 20.88 338.483 20.7333 338.697 20.44C338.91 20.12 339.097 19.7867 339.257 19.44C339.443 19.0667 339.537 18.8133 339.537 18.68C339.537 18.52 339.51 18.4267 339.457 18.4C339.43 18.3733 339.31 18.36 339.097 18.36C338.723 18.52 338.27 18.7333 337.737 19C337.203 19.2667 336.697 19.5333 336.217 19.8C335.763 20.04 335.43 20.2667 335.217 20.48C335.11 20.6667 335.043 20.7867 335.017 20.84C334.99 20.8667 334.923 20.88 334.817 20.88C334.817 20.7733 334.723 20.8267 334.537 21.04C334.377 21.2267 334.163 21.4933 333.897 21.84C333.657 22.1867 333.417 22.5333 333.177 22.88C332.963 23.2 332.803 23.44 332.697 23.6C332.643 23.6533 332.577 23.8133 332.497 24.08C332.443 24.32 332.417 24.5467 332.417 24.76C332.31 25.08 332.323 25.3067 332.457 25.44C332.59 25.5467 332.883 25.7867 333.337 26.16C334.27 26.8533 335.003 27.4267 335.537 27.88C336.07 28.3333 336.47 28.7067 336.737 29C337.003 29.2933 337.163 29.56 337.217 29.8C337.697 30.6 337.843 31.2133 337.657 31.64C337.47 32.0667 337.017 32.44 336.297 32.76C336.03 32.8933 335.59 33 334.977 33.08C334.363 33.16 333.737 33.2 333.097 33.2C332.457 33.2267 331.95 33.2133 331.577 33.16ZM105.308 80.96C104.668 81.1467 103.962 81.1733 103.188 81.04C102.442 80.9333 101.788 80.7067 101.228 80.36C100.642 80.0133 100.308 79.6267 100.228 79.2C100.202 79.04 100.255 78.8667 100.388 78.68C100.495 78.4933 100.642 78.36 100.828 78.28C100.988 78.2267 101.135 78.28 101.268 78.44C101.482 78.5733 101.868 78.7333 102.428 78.92C102.988 79.1333 103.615 79.1733 104.308 79.04C104.922 78.9067 105.522 78.5467 106.108 77.96C106.722 77.3733 107.215 76.8267 107.588 76.32C107.802 76 108.162 75.4267 108.668 74.6C109.175 73.7733 109.695 72.8667 110.228 71.88C110.788 70.8667 111.255 69.9333 111.628 69.08C111.708 68.8667 111.802 68.6133 111.908 68.32C112.015 68.0267 112.148 67.7867 112.308 67.6C112.468 67.28 112.602 66.9867 112.708 66.72C112.842 66.4267 112.922 66.2267 112.948 66.12C112.975 65.9867 113.095 65.72 113.308 65.32C113.522 64.92 113.722 64.52 113.908 64.12C114.042 63.72 114.242 63.1333 114.508 62.36C114.775 61.5867 115.042 60.96 115.308 60.48C115.628 59.8667 115.882 59.3733 116.068 59C116.282 58.6 116.508 58.36 116.748 58.28C116.988 58.0933 117.148 58 117.228 58C117.335 58 117.535 58.08 117.828 58.24C118.148 58.56 118.348 58.88 118.428 59.2C118.508 59.4933 118.468 59.8667 118.308 60.32C118.175 60.7467 117.908 61.3333 117.508 62.08C117.295 62.72 117.055 63.3067 116.788 63.84C116.548 64.3467 116.362 64.68 116.228 64.84C116.095 65.16 115.935 65.52 115.748 65.92C115.588 66.2933 115.442 66.64 115.308 66.96C114.828 68.0267 114.415 68.8933 114.068 69.56C113.722 70.2267 113.415 70.84 113.148 71.4C112.882 71.96 112.602 72.6133 112.308 73.36C111.695 74.3467 111.095 75.28 110.508 76.16C109.948 77.0667 109.348 77.9067 108.708 78.68C108.442 78.92 108.108 79.2 107.708 79.52C107.308 79.84 106.895 80.1333 106.468 80.4C106.068 80.6667 105.682 80.8533 105.308 80.96ZM110.708 71.36C110.308 71.3067 109.908 71.0667 109.508 70.64C109.135 70.2133 108.842 69.76 108.628 69.28C108.415 68.8 108.335 68.4533 108.388 68.24C108.388 68.1067 108.388 68 108.388 67.92C108.388 67.84 108.388 67.8 108.388 67.8C108.228 67.8 108.082 67.6 107.948 67.2C107.842 66.8 107.762 66.28 107.708 65.64C107.655 65 107.615 64.32 107.588 63.6C107.588 62.88 107.615 62.2 107.668 61.56C107.775 61.1067 107.828 60.6133 107.828 60.08C107.828 59.52 107.842 59.08 107.868 58.76C107.842 58.3333 107.882 58.0533 107.988 57.92C108.095 57.76 108.202 57.64 108.308 57.56C109.055 57.24 109.548 57.44 109.788 58.16C110.055 58.8533 110.122 60.16 109.988 62.08C109.935 63.1467 109.935 64.2133 109.988 65.28C110.042 66.3467 110.188 67.28 110.428 68.08C110.695 68.88 111.055 69.4267 111.508 69.72C111.695 69.8267 111.788 69.9733 111.788 70.16C111.788 70.3467 111.735 70.5467 111.628 70.76C111.522 70.9467 111.375 71.1067 111.188 71.24C111.028 71.3467 110.868 71.3867 110.708 71.36ZM122.541 72.4C122.195 72.4 121.915 72.3333 121.701 72.2C121.515 72.0667 121.275 71.88 120.981 71.64C120.475 71.1067 120.115 70.6 119.901 70.12C119.688 69.6133 119.621 69.1333 119.701 68.68C119.781 68.4667 119.808 68.2667 119.781 68.08C119.781 67.8667 119.781 67.76 119.781 67.76C119.648 67.6267 119.608 67.5467 119.661 67.52C119.715 67.4667 119.768 67.3867 119.821 67.28C119.981 67.28 120.035 67.1333 119.981 66.84C119.928 66.6267 120.035 66.16 120.301 65.44C120.568 64.72 120.901 64.04 121.301 63.4C121.461 63.1333 121.701 62.7867 122.021 62.36C122.341 61.9067 122.688 61.4667 123.061 61.04C123.461 60.5867 123.821 60.2267 124.141 59.96C124.808 59.4 125.395 58.9867 125.901 58.72C126.408 58.4533 126.955 58.2533 127.541 58.12C128.128 57.9867 128.528 57.92 128.741 57.92C128.981 57.92 129.301 58.1333 129.701 58.56C130.315 58.8267 130.755 59.1467 131.021 59.52C131.315 59.8933 131.501 60.44 131.581 61.16C131.661 61.96 131.595 62.88 131.381 63.92C131.195 64.9333 130.568 66.2 129.501 67.72C128.835 68.68 128.221 69.4 127.661 69.88C127.101 70.3333 126.435 70.7867 125.661 71.24C125.101 71.6133 124.595 71.8933 124.141 72.08C123.688 72.24 123.155 72.3467 122.541 72.4ZM126.381 68.16C127.021 67.44 127.528 66.76 127.901 66.12C128.301 65.48 128.675 64.6667 129.021 63.68C129.128 63.3867 129.195 63.0267 129.221 62.6C129.248 62.1467 129.235 61.7333 129.181 61.36C129.155 60.96 129.061 60.7333 128.901 60.68C128.581 60.4933 128.195 60.44 127.741 60.52C127.288 60.5733 126.795 60.8267 126.261 61.28C125.435 61.9733 124.715 62.84 124.101 63.88C123.488 64.8933 122.888 66.0533 122.301 67.36C121.901 68.32 121.808 69.0933 122.021 69.68C122.261 70.24 122.755 70.44 123.501 70.28C124.275 70.0933 125.235 69.3867 126.381 68.16ZM143.283 72.92C143.096 73.0267 142.843 72.9867 142.523 72.8C142.229 72.6133 141.936 72.3333 141.643 71.96C141.456 71.64 141.323 71.2933 141.243 70.92C141.189 70.5467 141.163 70.0267 141.163 69.36C141.189 68.8267 141.163 68.48 141.083 68.32C141.029 68.16 140.883 68.1867 140.643 68.4C140.403 68.5867 139.989 68.9733 139.403 69.56C138.736 70.2267 138.096 70.7467 137.483 71.12C136.896 71.4933 136.416 71.6667 136.043 71.64C135.856 71.64 135.643 71.5467 135.403 71.36C135.189 71.1467 134.989 70.8933 134.803 70.6C134.616 70.28 134.456 69.96 134.323 69.64C134.163 69.0533 134.136 68.3067 134.243 67.4C134.376 66.4667 134.589 65.4933 134.883 64.48C135.176 63.4667 135.509 62.5067 135.883 61.6C136.283 60.6933 136.683 59.96 137.083 59.4C137.509 58.84 137.883 58.56 138.203 58.56C138.416 58.56 138.603 58.6667 138.763 58.88C138.949 59.0933 139.136 59.4267 139.323 59.88C139.429 60.0667 139.469 60.2267 139.443 60.36C139.443 60.4933 139.336 60.6533 139.123 60.84C138.883 61.16 138.603 61.64 138.283 62.28C137.989 62.92 137.696 63.6133 137.403 64.36C137.136 65.1067 136.896 65.8267 136.683 66.52C136.469 67.2133 136.323 67.7867 136.243 68.24C136.163 68.6667 136.176 68.88 136.283 68.88C136.656 68.88 137.096 68.7333 137.603 68.44C138.136 68.12 138.643 67.7333 139.123 67.28C139.683 66.72 140.176 66.1067 140.603 65.44C141.056 64.7733 141.509 64.0667 141.963 63.32C142.309 62.7867 142.669 62.2 143.043 61.56C143.443 60.92 143.696 60.4667 143.803 60.2C144.176 59.5067 144.456 59.04 144.643 58.8C144.829 58.5333 145.056 58.36 145.323 58.28C145.456 58.28 145.576 58.28 145.683 58.28C145.816 58.28 145.883 58.28 145.883 58.28C146.043 58.3067 146.229 58.4267 146.443 58.64C146.656 58.7467 146.776 58.8533 146.803 58.96C146.829 59.04 146.843 59.1467 146.843 59.28C146.736 59.5467 146.563 59.9467 146.323 60.48C146.109 60.9867 145.949 61.36 145.843 61.6C145.336 62.7467 144.829 63.88 144.323 65C143.843 66.0933 143.496 67.2133 143.283 68.36C143.229 68.7333 143.216 69.1733 143.243 69.68C143.296 70.16 143.376 70.5067 143.483 70.72C143.563 70.88 143.656 71.0667 143.763 71.28C143.896 71.4667 144.043 71.6267 144.203 71.76C144.443 71.92 144.483 72.0933 144.323 72.28C144.189 72.4667 144.003 72.6267 143.763 72.76C143.523 72.8667 143.363 72.92 143.283 72.92ZM151.128 71.76C151.048 71.7867 150.914 71.7733 150.728 71.72C150.541 71.6667 150.354 71.6 150.168 71.52C149.981 71.44 149.861 71.3733 149.808 71.32C149.701 71.2133 149.594 71.0533 149.488 70.84C149.408 70.6267 149.408 70.32 149.488 69.92C149.568 69.4933 149.834 68.9467 150.288 68.28C150.421 68.0133 150.581 67.6133 150.768 67.08C150.954 66.5467 151.141 65.9867 151.328 65.4C151.541 64.7867 151.728 64.24 151.888 63.76C152.074 63.28 152.208 62.9467 152.288 62.76C152.341 62.3067 152.314 61.9867 152.208 61.8C152.128 61.5867 151.901 61.4667 151.528 61.44C151.261 61.44 151.048 61.4133 150.888 61.36C150.754 61.3067 150.688 61.04 150.688 60.56C150.741 60.1867 150.834 59.9333 150.968 59.8C151.128 59.64 151.341 59.4667 151.608 59.28C151.874 59.1467 152.141 59.0533 152.408 59C152.701 58.9467 152.981 58.9333 153.248 58.96C153.514 58.9867 153.728 59.08 153.888 59.24C154.074 59.3467 154.194 59.5867 154.248 59.96C154.301 60.3067 154.328 60.6667 154.328 61.04C154.354 61.4133 154.381 61.6933 154.408 61.88C154.674 61.6667 155.034 61.3733 155.488 61C155.968 60.6 156.381 60.2267 156.728 59.88C157.154 59.5867 157.661 59.2933 158.248 59C158.834 58.68 159.261 58.52 159.528 58.52C159.821 58.52 160.114 58.6 160.408 58.76C160.701 58.8933 160.901 59.0667 161.008 59.28C161.274 59.7333 161.394 60.1333 161.368 60.48C161.368 60.8267 161.221 61.1867 160.928 61.56C160.661 61.9067 160.328 62.1467 159.928 62.28C159.554 62.4133 159.314 62.48 159.208 62.48C159.048 62.48 158.848 62.36 158.608 62.12C158.368 61.88 158.234 61.68 158.208 61.52C158.208 61.44 158.034 61.52 157.688 61.76C157.368 61.9733 157.008 62.2533 156.608 62.6C156.208 62.92 155.874 63.2133 155.608 63.48C155.154 64.04 154.674 64.8 154.168 65.76C153.661 66.72 153.061 67.88 152.368 69.24C152.048 69.9067 151.821 70.48 151.688 70.96C151.554 71.4133 151.368 71.68 151.128 71.76ZM174.629 77.84C174.469 77.9467 174.109 77.8133 173.549 77.44C172.989 77.0933 172.522 76.7067 172.149 76.28C171.962 76.0667 171.842 75.84 171.789 75.6C171.736 75.36 171.749 74.9067 171.829 74.24C171.936 73.9467 171.989 73.6667 171.989 73.4C172.016 73.1333 172.029 72.9467 172.029 72.84C172.029 72.68 172.069 72.3067 172.149 71.72C172.256 71.1333 172.362 70.52 172.469 69.88C172.576 69.2133 172.669 68.7067 172.749 68.36C172.749 68.3333 172.762 68.24 172.789 68.08C172.842 67.92 172.882 67.8 172.909 67.72C172.962 67.48 173.029 67.1867 173.109 66.84C173.189 66.4933 173.269 66.0267 173.349 65.44C173.562 64.7733 173.736 64.12 173.869 63.48C174.029 62.8133 174.109 62.36 174.109 62.12C174.109 61.64 174.296 61.2933 174.669 61.08C174.696 60.9467 174.776 60.7467 174.909 60.48C175.042 60.1867 175.162 59.9467 175.269 59.76C175.802 58.24 176.242 57.0267 176.589 56.12C176.936 55.2133 177.296 54.4267 177.669 53.76C177.829 53.3067 178.002 52.84 178.189 52.36C178.402 51.88 178.616 51.5067 178.829 51.24C179.016 50.8667 179.336 50.4133 179.789 49.88C180.269 49.32 180.776 48.7867 181.309 48.28C181.842 47.7733 182.269 47.4 182.589 47.16C183.176 46.8667 183.722 46.6267 184.229 46.44C184.736 46.2533 185.269 46.16 185.829 46.16C186.336 46.16 186.776 46.28 187.149 46.52C187.549 46.7333 188.136 47.1867 188.909 47.88C189.176 48.2267 189.309 48.56 189.309 48.88C189.309 49.2 189.242 49.4667 189.109 49.68C188.922 50.1067 188.642 50.64 188.269 51.28C187.896 51.8933 187.536 52.4533 187.189 52.96C186.842 53.44 186.589 53.6933 186.429 53.72C186.109 53.9067 185.776 53.96 185.429 53.88C185.082 53.8 184.909 53.56 184.909 53.16C184.909 52.9733 184.909 52.8 184.909 52.64C184.936 52.48 184.949 52.4 184.949 52.4C185.029 52.0533 185.122 51.7467 185.229 51.48C185.362 51.2133 185.482 50.9867 185.589 50.8C185.802 50.4533 185.856 50.12 185.749 49.8C185.669 49.48 185.336 49.3467 184.749 49.4C184.669 49.4533 184.509 49.5867 184.269 49.8C184.056 49.9867 183.816 50.2133 183.549 50.48C183.309 50.72 183.096 50.96 182.909 51.2C182.722 51.4133 182.629 51.56 182.629 51.64C182.629 51.64 182.549 51.7867 182.389 52.08C182.256 52.3467 182.042 52.6533 181.749 53C181.562 53.2667 181.402 53.52 181.269 53.76C181.136 54 181.069 54.1867 181.069 54.32C181.069 54.4267 181.056 54.52 181.029 54.6C181.002 54.68 180.936 54.72 180.829 54.72C180.829 54.72 180.776 54.8533 180.669 55.12C180.589 55.3867 180.442 55.7067 180.229 56.08C180.122 56.3467 180.002 56.6 179.869 56.84C179.762 57.0533 179.656 57.2133 179.549 57.32L179.509 57.4C179.509 57.4 179.442 57.56 179.309 57.88C179.202 58.1733 179.082 58.48 178.949 58.8C178.816 59.12 178.749 59.3067 178.749 59.36C178.749 59.4667 178.909 59.52 179.229 59.52C179.549 59.52 179.936 59.48 180.389 59.4C180.842 59.2933 181.282 59.1867 181.709 59.08C182.082 58.9733 182.349 58.92 182.509 58.92C182.669 58.92 182.922 58.9733 183.269 59.08C183.482 59.2133 183.656 59.4533 183.789 59.8C183.922 60.12 184.016 60.4533 184.069 60.8C184.149 61.12 184.162 61.36 184.109 61.52C184.082 61.6267 183.776 61.7733 183.189 61.96C182.629 62.1467 182.069 62.2933 181.509 62.4C181.029 62.5067 180.482 62.6267 179.869 62.76C179.282 62.8667 178.762 62.9867 178.309 63.12C177.856 63.2267 177.616 63.3333 177.589 63.44C177.482 63.44 177.389 63.5067 177.309 63.64C177.256 63.7733 177.229 63.8933 177.229 64C177.229 64.3467 177.162 64.6267 177.029 64.84C176.976 65 176.882 65.3333 176.749 65.84C176.642 66.32 176.522 66.8533 176.389 67.44C176.282 68 176.176 68.5333 176.069 69.04C175.989 69.52 175.949 69.84 175.949 70C175.789 70.1867 175.696 70.4267 175.669 70.72C175.642 70.9867 175.629 71.2267 175.629 71.44C175.522 71.6533 175.456 71.8533 175.429 72.04C175.402 72.2 175.389 72.3333 175.389 72.44C175.389 72.4667 175.389 72.52 175.389 72.6C175.389 72.68 175.376 72.76 175.349 72.84C175.322 73.1067 175.282 73.4533 175.229 73.88C175.202 74.3333 175.189 74.7733 175.189 75.2L175.069 76.36C175.042 76.7067 174.989 77 174.909 77.24C174.856 77.5067 174.762 77.7067 174.629 77.84ZM185.351 72.16C185.244 71.9467 185.004 71.7333 184.631 71.52C184.284 71.3067 184.111 71.1467 184.111 71.04C184.111 70.9333 184.044 70.7733 183.911 70.56C183.804 70.32 183.697 70.1467 183.591 70.04C183.457 69.88 183.497 69.4933 183.711 68.88C183.924 68.24 184.244 67.4667 184.671 66.56C185.097 65.6533 185.564 64.7333 186.071 63.8C186.284 63.5867 186.497 63.3067 186.711 62.96C186.924 62.6133 187.084 62.3867 187.191 62.28C187.191 62.1733 187.231 62.08 187.311 62C187.391 61.8933 187.484 61.84 187.591 61.84L187.911 61.2C187.964 61.0933 188.124 60.88 188.391 60.56C188.684 60.24 189.031 59.8933 189.431 59.52C189.831 59.12 190.231 58.7467 190.631 58.4C191.057 58.0533 191.404 57.8 191.671 57.64C192.231 57.2667 192.804 57.0933 193.391 57.12C194.004 57.1467 194.524 57.3333 194.951 57.68C195.031 57.76 195.204 57.92 195.471 58.16C195.764 58.4 196.084 58.6667 196.431 58.96C196.804 59.2533 197.124 59.52 197.391 59.76L198.871 61.08L198.191 63.08C197.844 64.1467 197.751 65.08 197.911 65.88C198.071 66.68 198.324 67.3733 198.671 67.96C198.804 68.2533 198.977 68.48 199.191 68.64C199.431 68.8 199.737 68.9067 200.111 68.96C200.324 68.9867 200.524 69.0667 200.711 69.2C200.897 69.3333 200.991 69.5467 200.991 69.84C200.991 70.48 200.871 70.9467 200.631 71.24C200.417 71.5067 200.177 71.6667 199.911 71.72C199.031 71.8267 198.191 71.7333 197.391 71.44C196.591 71.1467 195.871 70.3867 195.231 69.16C195.124 69 194.977 68.7067 194.791 68.28C194.631 67.8267 194.537 67.5333 194.511 67.4C194.404 67.5333 194.257 67.7067 194.071 67.92C193.911 68.1067 193.751 68.28 193.591 68.44C191.697 70.36 190.071 71.6133 188.711 72.2C187.377 72.76 186.257 72.7467 185.351 72.16ZM187.551 68.84C187.737 68.8667 188.031 68.7733 188.431 68.56C188.831 68.32 189.364 67.9333 190.031 67.4C190.937 66.6267 191.684 65.9867 192.271 65.48C192.857 64.9733 193.431 64.32 193.991 63.52L194.871 62.08C194.604 61.4667 194.364 61.0667 194.151 60.88C193.937 60.6933 193.724 60.6 193.511 60.6C193.164 60.6 192.751 60.8267 192.271 61.28C191.791 61.7067 191.244 62.3467 190.631 63.2C190.044 64.0267 189.377 65.0667 188.631 66.32C188.284 66.9067 188.017 67.48 187.831 68.04C187.644 68.5733 187.551 68.84 187.551 68.84ZM205.082 72.96C204.442 72.96 203.882 72.6267 203.402 71.96C202.949 71.2667 202.669 70.44 202.562 69.48C202.589 69.2667 202.616 68.96 202.642 68.56C202.696 68.16 202.749 67.7467 202.802 67.32C202.909 66.8133 203.056 66.16 203.242 65.36C203.429 64.56 203.629 63.76 203.842 62.96C204.056 62.1333 204.242 61.4267 204.402 60.84C204.562 60.2267 204.656 59.8667 204.682 59.76C204.842 59.3867 205.202 59.2933 205.762 59.48C206.322 59.6667 206.802 60.0667 207.202 60.68C207.362 60.8933 207.456 61.1467 207.482 61.44C207.536 61.7333 207.496 62.16 207.362 62.72C207.256 63.28 207.042 64.1067 206.722 65.2C206.429 66.2667 206.202 67.1333 206.042 67.8C205.909 68.44 205.856 69.12 205.882 69.84C205.776 71.0667 205.669 71.9067 205.562 72.36C205.456 72.7867 205.296 72.9867 205.082 72.96ZM208.762 56.36C208.656 56.44 208.549 56.48 208.442 56.48C208.362 56.4533 208.216 56.3733 208.002 56.24C207.816 56.2133 207.576 56.0933 207.282 55.88C207.016 55.64 206.776 55.4 206.562 55.16C206.376 54.92 206.282 54.7733 206.282 54.72C206.256 54.4533 206.269 54.0267 206.322 53.44C206.402 52.8533 206.549 52.3067 206.762 51.8C207.002 51.2667 207.322 50.9867 207.722 50.96C207.829 50.96 208.056 51.0133 208.402 51.12C208.776 51.2267 209.162 51.36 209.562 51.52C209.776 51.92 209.976 52.44 210.162 53.08C210.349 53.72 210.362 54.3467 210.202 54.96C210.069 55.5467 209.589 56.0133 208.762 56.36ZM215.294 73.24C214.92 73.1333 214.547 72.9467 214.174 72.68C213.8 72.4133 213.414 72.1067 213.014 71.76C212.694 71.3333 212.467 70.9467 212.334 70.6C212.2 70.2267 212.12 69.8 212.094 69.32C212.094 68.8133 212.094 68.1733 212.094 67.4C212.094 67.08 212.147 66.6267 212.254 66.04C212.387 65.4533 212.52 64.84 212.654 64.2C212.814 63.56 212.96 63 213.094 62.52C213.227 62.0133 213.307 61.68 213.334 61.52C213.414 61.1733 213.28 60.9733 212.934 60.92C212.587 60.8667 212.2 60.8533 211.774 60.88C211.374 60.88 211.107 60.84 210.974 60.76C210.867 60.7333 210.814 60.6 210.814 60.36C210.814 60.0933 210.814 59.96 210.814 59.96C210.814 59.8533 210.76 59.7867 210.654 59.76C210.547 59.7067 210.454 59.6133 210.374 59.48C210.32 59.3733 210.387 59.1733 210.574 58.88C210.76 58.5867 211 58.4133 211.294 58.36C211.534 58.3067 211.894 58.2667 212.374 58.24C212.854 58.1867 213.334 58.0933 213.814 57.96C214.32 57.8 214.707 57.56 214.974 57.24C215.214 56.6533 215.48 56.0267 215.774 55.36C216.067 54.6667 216.347 54.0667 216.614 53.56C216.88 53.0267 217.067 52.6933 217.174 52.56C217.627 52.32 218.094 52.2267 218.574 52.28C219.054 52.3067 219.427 52.5333 219.694 52.96C219.827 53.1467 219.934 53.28 220.014 53.36C220.12 53.44 220.16 53.56 220.134 53.72C220.134 53.88 220.027 54.1733 219.814 54.6C219.627 55 219.307 55.6267 218.854 56.48C218.72 56.7467 218.6 56.9867 218.494 57.2C218.387 57.3867 218.334 57.48 218.334 57.48C218.44 57.5067 218.6 57.52 218.814 57.52C219.027 57.52 219.294 57.5067 219.614 57.48C219.907 57.4267 220.227 57.3867 220.574 57.36C220.92 57.3067 221.227 57.3067 221.494 57.36C222.107 57.36 222.56 57.5333 222.854 57.88C223.147 58.2267 223.307 58.6667 223.334 59.2C223.387 59.4933 223.28 59.7467 223.014 59.96C222.747 60.1733 222.254 60.28 221.534 60.28C221.294 60.28 220.947 60.2933 220.494 60.32C220.04 60.3467 219.574 60.3733 219.094 60.4C218.614 60.4267 218.2 60.4667 217.854 60.52C217.534 60.5467 217.374 60.5867 217.374 60.64C217.294 60.6933 217.16 60.9067 216.974 61.28C216.814 61.6267 216.64 62.0533 216.454 62.56C216.294 63.0667 216.147 63.5467 216.014 64C215.827 64.9067 215.694 65.7867 215.614 66.64C215.534 67.4933 215.52 68.24 215.574 68.88C215.654 69.4933 215.814 69.9333 216.054 70.2C216.294 70.44 216.654 70.44 217.134 70.2C217.64 69.9333 218.107 69.6267 218.534 69.28C219.014 68.88 219.427 68.76 219.774 68.92C220.12 69.0533 220.334 69.3467 220.414 69.8C220.52 70.2267 220.4 70.6933 220.054 71.2C219.734 71.7067 219.28 72.1333 218.694 72.48C218.107 72.8267 217.507 73.0667 216.894 73.2C216.28 73.36 215.747 73.3733 215.294 73.24ZM237.736 72.72C237.229 72.8533 236.696 72.9467 236.136 73C235.603 73.08 235.136 72.92 234.736 72.52C234.496 72.1467 234.283 71.8133 234.096 71.52C233.909 71.2267 233.789 70.7067 233.736 69.96C233.709 69.4533 233.736 68.9067 233.816 68.32C233.923 67.7067 233.963 67.2667 233.936 67C234.149 66.0133 234.203 65.3067 234.096 64.88C234.016 64.4533 233.909 64.24 233.776 64.24C233.483 64.1867 233.016 64.4 232.376 64.88C231.763 65.36 231.029 66.04 230.176 66.92C229.349 67.7733 228.456 68.7467 227.496 69.84C226.989 70.5333 226.616 71.0533 226.376 71.4C226.163 71.72 226.003 71.88 225.896 71.88C225.416 71.88 224.976 71.8 224.576 71.64C224.176 71.48 223.856 71.2533 223.616 70.96C223.376 70.6667 223.229 70.36 223.176 70.04C223.176 69.9333 223.243 69.6533 223.376 69.2C223.509 68.72 223.669 68.1733 223.856 67.56C224.043 66.9467 224.216 66.3733 224.376 65.84C224.563 65.3067 224.696 64.9333 224.776 64.72C225.016 64.0267 225.296 63.1867 225.616 62.2C225.963 61.1867 226.269 60.2933 226.536 59.52C226.643 59.1733 226.829 58.68 227.096 58.04C227.363 57.3733 227.629 56.7067 227.896 56.04C228.163 55.3733 228.349 54.88 228.456 54.56C228.536 54.3467 228.683 53.9733 228.896 53.44C229.109 52.88 229.336 52.2667 229.576 51.6C229.843 50.9333 230.083 50.32 230.296 49.76C230.536 49.1733 230.696 48.7467 230.776 48.48C230.749 48.24 230.763 48.0267 230.816 47.84C230.896 47.6267 230.976 47.4667 231.056 47.36C231.163 47.36 231.283 47.36 231.416 47.36C231.549 47.3333 231.616 47.32 231.616 47.32C231.616 47.2667 231.789 47.32 232.136 47.48C232.509 47.64 232.869 47.84 233.216 48.08C233.589 48.2933 233.776 48.48 233.776 48.64C233.909 48.9867 233.923 49.44 233.816 50C233.709 50.5333 233.429 51.3467 232.976 52.44C232.683 52.8667 232.389 53.5067 232.096 54.36C231.829 55.2133 231.563 55.9333 231.296 56.52C231.189 56.7067 231.029 57.04 230.816 57.52C230.629 57.9733 230.403 58.52 230.136 59.16C229.896 59.7733 229.656 60.4267 229.416 61.12C229.176 61.8133 228.963 62.4933 228.776 63.16C228.509 63.8 228.416 64.2267 228.496 64.44C228.576 64.6533 228.896 64.4133 229.456 63.72C230.203 62.92 230.896 62.2 231.536 61.56C232.203 60.92 232.816 60.4133 233.376 60.04C233.963 59.64 234.483 59.4667 234.936 59.52C235.176 59.5733 235.483 59.7467 235.856 60.04C236.256 60.3067 236.629 60.6267 236.976 61C237.349 61.3467 237.589 61.68 237.696 62C237.803 62.3733 237.869 62.7333 237.896 63.08C237.949 63.4267 237.963 63.92 237.936 64.56C237.909 65.1733 237.843 66.0933 237.736 67.32C237.576 68.2267 237.469 68.88 237.416 69.28C237.363 69.6533 237.376 69.92 237.456 70.08C237.563 70.24 237.723 70.4133 237.936 70.6C238.336 70.92 238.496 71.3067 238.416 71.76C238.336 72.1867 238.109 72.5067 237.736 72.72Z" fill="white"/>
</g>
<defs>
<filter id="filter0_d_1317_10895" x="0.390625" y="4.95996" width="345.666" height="84.28" filterUnits="userSpaceOnUse" color-interpolation-filters="sRGB">
<feFlood flood-opacity="0" result="BackgroundImageFix"/>
<feColorMatrix in="SourceAlpha" type="matrix" values="0 0 0 0 0 0 0 0 0 0 0 0 0 0 0 0 0 0 127 0" result="hardAlpha"/>
<feOffset dy="4"/>
<feGaussianBlur stdDeviation="2"/>
<feComposite in2="hardAlpha" operator="out"/>
<feColorMatrix type="matrix" values="0 0 0 0 0 0 0 0 0 0 0 0 0 0 0 0 0 0 0.25 0"/>
<feBlend mode="normal" in2="BackgroundImageFix" result="effect1_dropShadow_1317_10895"/>
<feBlend mode="normal" in="SourceGraphic" in2="effect1_dropShadow_1317_10895" result="shape"/>
</filter>
</defs>
</svg>
