<svg width="15" height="12" viewBox="0 0 15 12" fill="none" xmlns="http://www.w3.org/2000/svg">
<path d="M13.132 6.2544V5.4C13.132 3.96783 12.5386 2.59432 11.4824 1.58162C10.4262 0.568927 8.9937 0 7.5 0C6.0063 0 4.57377 0.568927 3.51757 1.58162C2.46136 2.59432 1.86799 3.96783 1.86799 5.4V6.2544C1.21164 6.5315 0.674501 7.01637 0.346481 7.62784C0.0184609 8.23931 -0.0805259 8.94026 0.066092 9.61335C0.21271 10.2864 0.596033 10.8908 1.15189 11.3253C1.70775 11.7597 2.40239 11.9979 3.11955 12C3.45148 12 3.76982 11.8736 4.00453 11.6485C4.23924 11.4235 4.3711 11.1183 4.3711 10.8V7.2C4.3711 6.88174 4.23924 6.57652 4.00453 6.35147C3.76982 6.12643 3.45148 6 3.11955 6V5.4C3.11955 4.28609 3.58106 3.2178 4.40255 2.43015C5.22405 1.6425 6.33823 1.2 7.5 1.2C8.66177 1.2 9.77595 1.6425 10.5974 2.43015C11.4189 3.2178 11.8805 4.28609 11.8805 5.4V6C11.5485 6 11.2302 6.12643 10.9955 6.35147C10.7608 6.57652 10.6289 6.88174 10.6289 7.2V10.8C10.6289 11.1183 10.7608 11.4235 10.9955 11.6485C11.2302 11.8736 11.5485 12 11.8805 12C12.5976 11.9979 13.2923 11.7597 13.8481 11.3253C14.404 10.8908 14.7873 10.2864 14.9339 9.61335C15.0805 8.94026 14.9815 8.23931 14.6535 7.62784C14.3255 7.01637 13.7884 6.5315 13.132 6.2544ZM3.11955 10.8C2.62164 10.8 2.14414 10.6104 1.79207 10.2728C1.44 9.93523 1.24221 9.47739 1.24221 9C1.24221 8.52261 1.44 8.06477 1.79207 7.72721C2.14414 7.38964 2.62164 7.2 3.11955 7.2V10.8ZM11.8805 10.8V7.2C12.3784 7.2 12.8559 7.38964 13.2079 7.72721C13.56 8.06477 13.7578 8.52261 13.7578 9C13.7578 9.47739 13.56 9.93523 13.2079 10.2728C12.8559 10.6104 12.3784 10.8 11.8805 10.8Z" fill="white"/>
</svg>
