<svg width="28" height="24" viewBox="0 0 28 24" fill="none" xmlns="http://www.w3.org/2000/svg">
<path fill-rule="evenodd" clip-rule="evenodd" d="M25.4581 1.98321C22.3722 -0.739348 17.6124 -0.654469 14.6448 2.22673L13.9991 2.8537L13.3533 2.22673C10.3554 -0.683893 5.52849 -0.740776 2.45979 2.0542C2.40314 2.10582 2.19706 2.3054 2.15085 2.35282C-0.765763 5.34577 -0.713751 10.047 2.29244 12.9657L13.416 23.7655C13.738 24.0782 14.2602 24.0782 14.5822 23.7655L25.7058 12.9657C28.6645 10.093 28.7616 5.49374 25.9964 2.5086C25.9075 2.41269 25.5471 2.06179 25.4581 1.98321ZM14.6378 4.49796L15.811 3.35891C18.1412 1.09647 21.8721 1.01828 24.2985 3.12284C24.3857 3.19848 24.6648 3.46745 24.7245 3.53054C26.953 5.88549 26.8912 9.55033 24.5396 11.8335L15.4736 20.6357L16.4305 17.8486C16.523 17.5791 16.4615 17.2821 16.2688 17.0683L13.8309 14.3632L16.2991 11.2822C16.5628 10.953 16.522 10.4823 16.2054 10.2005L12.7841 7.15582L14.6378 4.49796ZM12.9345 4.08446L11.0196 6.83032C10.7903 7.15899 10.8438 7.60111 11.1452 7.86932L14.5305 10.882L12.1114 13.9017C11.8688 14.2045 11.8816 14.6317 12.1417 14.9204L14.7165 17.7775L13.4325 21.5173L3.45856 11.8335C1.10388 9.54739 1.04502 5.87603 3.28229 3.52143C3.33927 3.46142 3.5739 3.23402 3.64081 3.1745C6.0654 1.01717 9.83807 1.07811 12.1872 3.35891L12.9345 4.08446Z" fill="#000428"/>
</svg>
