<svg width="22" height="22" viewBox="0 0 22 22" fill="none" xmlns="http://www.w3.org/2000/svg">
<path d="M11 0C8.29171 0.00193084 5.67978 1.00524 3.66667 2.81692V0.916667C3.66667 0.673551 3.57009 0.440394 3.39818 0.268485C3.22627 0.0965771 2.99311 0 2.75 0C2.50688 0 2.27373 0.0965771 2.10182 0.268485C1.92991 0.440394 1.83333 0.673551 1.83333 0.916667V3.66667C1.83333 4.39601 2.12306 5.09548 2.63879 5.61121C3.15451 6.12693 3.85399 6.41667 4.58333 6.41667H7.33333C7.57645 6.41667 7.8096 6.32009 7.98151 6.14818C8.15342 5.97627 8.25 5.74311 8.25 5.5C8.25 5.25688 8.15342 5.02373 7.98151 4.85182C7.8096 4.67991 7.57645 4.58333 7.33333 4.58333H4.58333C4.55242 4.57875 4.52181 4.57232 4.49167 4.56408C5.98539 3.05967 7.95495 2.12032 10.0641 1.90636C12.1733 1.6924 14.2914 2.2171 16.0568 3.3909C17.8222 4.56469 19.1255 6.31482 19.7443 8.34254C20.363 10.3703 20.2588 12.5499 19.4494 14.5093C18.6401 16.4688 17.1758 18.0866 15.3065 19.0866C13.4371 20.0866 11.2787 20.4069 9.1995 19.9927C7.12033 19.5785 5.24937 18.4555 3.90597 16.8155C2.56257 15.1755 1.83001 13.12 1.83333 11C1.83333 10.7569 1.73676 10.5237 1.56485 10.3518C1.39294 10.1799 1.15978 10.0833 0.916667 10.0833C0.673551 10.0833 0.440394 10.1799 0.268485 10.3518C0.0965771 10.5237 0 10.7569 0 11C0 13.1756 0.645139 15.3023 1.85383 17.1113C3.06253 18.9202 4.78049 20.3301 6.79048 21.1627C8.80047 21.9952 11.0122 22.2131 13.146 21.7886C15.2798 21.3642 17.2398 20.3165 18.7782 18.7782C20.3165 17.2398 21.3642 15.2798 21.7886 13.146C22.2131 11.0122 21.9952 8.80047 21.1627 6.79048C20.3301 4.78049 18.9202 3.06253 17.1113 1.85383C15.3023 0.645139 13.1756 0 11 0Z" fill="white"/>
<path d="M10.9987 5.5C10.7556 5.5 10.5224 5.59658 10.3505 5.76849C10.1786 5.94039 10.082 6.17355 10.082 6.41667V11C10.0821 11.2431 10.1787 11.4762 10.3506 11.6481L13.1006 14.3981C13.2735 14.5651 13.5051 14.6575 13.7454 14.6554C13.9857 14.6533 14.2157 14.5569 14.3856 14.3869C14.5556 14.217 14.652 13.987 14.6541 13.7467C14.6562 13.5064 14.5638 13.2748 14.3968 13.1019L11.9154 10.6205V6.41667C11.9154 6.17355 11.8188 5.94039 11.6469 5.76849C11.475 5.59658 11.2418 5.5 10.9987 5.5Z" fill="white"/>
</svg>
