<svg width="28" height="28" viewBox="0 0 28 28" fill="none" xmlns="http://www.w3.org/2000/svg">
<path d="M11.0217 17.9644C10.9297 17.8928 10.8244 17.8403 10.7118 17.81C10.5992 17.7797 10.4818 17.7722 10.3663 17.7879C10.2508 17.8037 10.1396 17.8423 10.0392 17.9016C9.93885 17.9609 9.85136 18.0397 9.78186 18.1333C9.71237 18.2269 9.66228 18.3334 9.63453 18.4466C9.60678 18.5598 9.60193 18.6775 9.62027 18.7926C9.63861 18.9077 9.67977 19.018 9.74133 19.117C9.80289 19.216 9.88361 19.3017 9.97874 19.369C11.14 20.2369 12.5505 20.7066 14.0002 20.7084C15.45 20.7066 16.8604 20.2369 18.0217 19.369C18.1169 19.3017 18.1976 19.216 18.2592 19.117C18.3207 19.018 18.3619 18.9077 18.3802 18.7926C18.3986 18.6775 18.3937 18.5598 18.366 18.4466C18.3382 18.3334 18.2881 18.2269 18.2186 18.1333C18.1491 18.0397 18.0616 17.9609 17.9613 17.9016C17.8609 17.8423 17.7497 17.8037 17.6342 17.7879C17.5187 17.7722 17.4012 17.7797 17.2887 17.81C17.1761 17.8403 17.0707 17.8928 16.9787 17.9644C16.119 18.6081 15.0743 18.9568 14.0002 18.9584C12.9262 18.9568 11.8815 18.6081 11.0217 17.9644Z" fill="white"/>
<path fill-rule="evenodd" clip-rule="evenodd" d="M13.9997 1.45837C13.1737 1.45837 12.4235 1.69521 11.608 2.09071C10.8217 2.47337 9.91167 3.03804 8.77651 3.74271L6.36501 5.23954C5.29167 5.90687 4.42951 6.44121 3.76684 6.94871C3.07967 7.47371 2.55234 8.01037 2.17084 8.70687C1.79051 9.40104 1.62017 10.1407 1.53734 11.0145C1.45801 11.8604 1.45801 12.8964 1.45801 14.1949V16.0767C1.45801 18.298 1.45801 20.0515 1.63651 21.4224C1.81851 22.8282 2.20351 23.9634 3.07151 24.8605C3.94301 25.7624 5.05134 26.166 6.42567 26.3562C7.75567 26.5417 9.45667 26.5417 11.5987 26.5417H16.4007C18.5427 26.5417 20.2437 26.5417 21.5737 26.3562C22.9468 26.166 24.0563 25.7624 24.929 24.8605C25.7958 23.9634 26.1808 22.8282 26.364 21.4224C26.5413 20.0515 26.5413 18.298 26.5413 16.0767V14.1949C26.5413 12.8964 26.5413 11.8615 26.462 11.0145C26.3803 10.1395 26.2088 9.40104 25.8285 8.70687C25.447 8.01037 24.9185 7.47487 24.2325 6.94871C23.5698 6.44004 22.7088 5.90687 21.6343 5.23954L19.2228 3.74271C18.0877 3.03804 17.1777 2.47337 16.3902 2.09071C15.577 1.69404 14.8268 1.45837 13.9997 1.45837ZM9.65967 5.25471C10.8438 4.51971 11.678 4.00404 12.3745 3.66454C13.0523 3.33437 13.533 3.20837 13.9997 3.20837C14.4663 3.20837 14.947 3.33437 15.6248 3.66454C16.3225 4.00287 17.1555 4.51971 18.3397 5.25471L20.673 6.70254C21.7942 7.39904 22.5817 7.88787 23.1697 8.33821C23.7402 8.77571 24.068 9.13621 24.2932 9.54687C24.5183 9.95871 24.6502 10.4405 24.719 11.1779C24.7902 11.9339 24.7913 12.887 24.7913 14.238V16.0125C24.7913 18.3109 24.789 19.9512 24.628 21.196C24.4693 22.4187 24.1695 23.128 23.6713 23.6449C23.1755 24.157 22.5012 24.4615 21.3333 24.6237C20.1363 24.7894 18.5578 24.7917 16.333 24.7917H11.6663C9.44034 24.7917 7.86301 24.7894 6.66601 24.6237C5.49817 24.4604 4.82384 24.157 4.32917 23.6437C3.82984 23.128 3.53001 22.4187 3.37251 21.196C3.20917 19.9512 3.20801 18.312 3.20801 16.0125V14.238C3.20801 12.887 3.20801 11.9339 3.28034 11.1779C3.34917 10.4405 3.48101 9.95871 3.70617 9.54687C3.93134 9.13621 4.25917 8.77571 4.83084 8.33821C5.41767 7.88787 6.20517 7.39904 7.32634 6.70254L9.65967 5.25471Z" fill="white"/>
</svg>
