<svg width="17" height="16" viewBox="0 0 17 16" fill="none" xmlns="http://www.w3.org/2000/svg">
<path d="M0.648703 10.799C0.648703 9.65556 0.668502 8.51148 0.643135 7.36868C0.618387 6.26692 1.42208 5.51531 2.3786 5.57046C3.08764 5.61151 3.80101 5.58008 4.51252 5.57816C5.18814 5.57624 5.67816 5.89176 5.97142 6.51639C6.05619 6.69659 6.10692 6.71583 6.24427 6.5741C7.98283 4.77333 9.51165 2.81351 10.5678 0.492635C10.7651 0.0584737 10.8753 -0.0184825 11.3288 0.00332173C12.7803 0.073865 13.6421 1.24168 13.4274 2.81992C13.2913 3.82099 12.9319 4.73036 12.4499 5.5974C12.2872 5.89047 12.2884 5.89176 12.6163 5.89368C13.1936 5.89625 13.7721 5.87893 14.3481 5.9033C15.51 5.95204 16.5247 6.94157 16.6342 8.11515C16.6787 8.591 16.5352 9.04696 16.4554 9.50678C16.2246 10.8394 15.974 12.1688 15.7278 13.4989C15.6356 13.9965 15.4667 14.4647 15.1945 14.8879C14.7273 15.6158 14.087 16.0044 13.2257 16C11.3288 15.9903 9.43122 15.9942 7.53427 15.9987C6.9663 16 6.45587 15.8364 6.01659 15.4632C5.89223 15.3574 5.8186 15.3324 5.69548 15.4773C5.38427 15.8416 4.9784 16 4.51004 15.998C3.7676 15.9948 3.02515 16.0057 2.2827 15.9955C1.30824 15.9814 0.65984 15.308 0.651797 14.2947C0.641897 13.1301 0.649322 11.9649 0.649322 10.8003L0.648703 10.799ZM10.3791 14.8764C11.2966 14.8764 12.2142 14.8629 13.1317 14.8815C13.717 14.8931 14.1086 14.6199 14.3771 14.1056C14.5207 13.8304 14.6147 13.5367 14.6698 13.2327C14.9544 11.6718 15.2297 10.109 15.5187 8.54931C15.5985 8.11964 15.4834 7.77013 15.1938 7.47128C14.8857 7.15448 14.5083 7.00955 14.0771 7.00891C13.18 7.00891 12.2835 7.00506 11.3863 7.01083C11.1246 7.01275 10.8877 6.98069 10.7577 6.70749C10.6309 6.44135 10.7237 6.21946 10.8833 5.99821C11.3226 5.38962 11.7056 4.74575 11.9852 4.03968C12.2346 3.41056 12.4029 2.76605 12.3299 2.07729C12.2878 1.67904 12.1145 1.37571 11.7353 1.21795C11.5583 1.1442 11.4692 1.17113 11.3752 1.35903C10.1007 3.9127 8.38561 6.1098 6.32161 8.02088C6.21024 8.12413 6.12857 8.21648 6.12919 8.39219C6.13662 10.0487 6.12548 11.7052 6.13847 13.361C6.1459 14.2851 6.73924 14.8732 7.62708 14.8758C8.54462 14.8783 9.46216 14.8758 10.3797 14.8764H10.3791ZM5.03223 10.7701C5.03223 9.62798 5.03285 8.48582 5.03223 7.34366C5.03223 6.88193 4.86332 6.69531 4.42652 6.69146C3.73666 6.68505 3.04619 6.68569 2.35633 6.69146C1.92014 6.69531 1.74443 6.88385 1.74443 7.3411C1.74319 9.63632 1.74319 11.9315 1.74443 14.2268C1.74443 14.6943 1.91086 14.8726 2.35447 14.8751C3.04433 14.8796 3.7348 14.8796 4.42466 14.8751C4.87013 14.8719 5.03223 14.6968 5.03285 14.2293C5.03408 13.0763 5.03285 11.9232 5.03285 10.7708L5.03223 10.7701Z" fill="white"/>
</svg>
