<svg width="14" height="15" viewBox="0 0 14 15" fill="none" xmlns="http://www.w3.org/2000/svg">
<path d="M12.671 6.66345C12.2774 6.32152 11.7543 6.13331 11.1979 6.13331H11.0472V4.3337C11.0472 2.49545 9.3265 1 7.21153 1H7.06971C4.95473 1 3.23393 2.49545 3.23393 4.3337V6.1332H3.0832C2.52685 6.1332 2.00366 6.32152 1.61011 6.66345C1.21669 7.00549 1 7.46019 1 7.94383V12.4693C1 12.9529 1.21669 13.4076 1.61011 13.7494C2.00354 14.0915 2.52672 14.2798 3.0832 14.2798H11.1979C11.7544 14.2798 12.2776 14.0915 12.6711 13.7494C13.0645 13.4075 13.2812 12.9528 13.2812 12.4693V7.94383C13.2812 7.4603 13.0645 7.0056 12.671 6.66345ZM4.23885 4.3337C4.23885 2.97712 5.50869 1.87338 7.06971 1.87338H7.21153C8.77242 1.87338 10.0423 2.97712 10.0423 4.3337V6.1332H4.23885V4.3337ZM12.2763 12.4693C12.2763 12.7159 12.1611 12.9574 11.9605 13.1318C11.7568 13.3089 11.4859 13.4064 11.1979 13.4064H3.0832C2.79516 13.4064 2.52446 13.3089 2.32059 13.1317C2.11697 12.9549 2.00479 12.7196 2.00479 12.4693V7.94383C2.00479 7.6935 2.11697 7.45801 2.32059 7.28104C2.52434 7.10407 2.79504 7.00658 3.08307 7.00658H11.1978C11.4858 7.00658 11.7566 7.10407 11.9603 7.28093C12.164 7.45812 12.2762 7.6935 12.2762 7.94383L12.2763 12.4693Z" fill="#000428" stroke="black" stroke-width="0.4"/>
<path d="M7.14015 8.85037C6.80028 8.85037 6.4877 9.09398 6.4877 9.43706V10.9755C6.4877 11.3186 6.80028 11.5622 7.14015 11.5622C7.48003 11.5622 7.79261 11.3186 7.79261 10.9755V9.43706C7.79261 9.09398 7.48003 8.85037 7.14015 8.85037Z" fill="#000428" stroke="black" stroke-width="0.3"/>
</svg>
