<svg width="24" height="23" viewBox="0 0 24 23" fill="none" xmlns="http://www.w3.org/2000/svg">
<path d="M23.9901 6.16888C23.8384 3.48512 22.4947 1.50176 19.9154 0.507272C17.4005 -0.46252 15.0281 -0.0460931 13.0568 1.79359C10.7051 3.98909 8.47979 6.31367 6.12117 8.50244C3.58324 10.8573 3.41887 13.7106 4.07979 16.7782C4.15221 17.1161 4.12002 17.3091 3.86715 17.5493C2.72922 18.6314 1.61313 19.7359 0.491287 20.8347C0.138413 21.1816 -0.104116 21.5733 0.0464592 22.0907C0.323471 23.0471 1.42462 23.3108 2.18669 22.5835C3.30853 21.5116 4.40623 20.4161 5.52347 19.3385C5.65565 19.2106 5.7614 18.9569 6.03611 19.1275C7.07864 19.774 8.24071 19.8111 9.44646 19.7538C11.5327 19.893 13.397 19.3374 14.9189 17.8502C17.3683 15.4571 19.8315 13.0775 22.2557 10.6598C23.4924 9.42621 24.0878 7.88285 23.9901 6.16888ZM20.7396 4.86909C19.7683 5.77041 18.8373 6.71214 17.8878 7.63591C17.2534 8.25326 16.974 9.00081 17.0016 9.86733C17.0028 9.90437 17.0028 9.94141 17.0051 9.97958C17.0522 10.7417 17.3488 11.588 17.0476 12.2458C16.7465 12.9013 16.0051 13.366 15.4522 13.9093C14.6694 14.6793 13.889 15.4504 13.0947 16.2091C12.3223 16.9455 11.3901 17.3462 10.3062 17.3428C9.47175 17.3406 8.62922 17.4281 7.63382 17.2384C8.89703 16.0172 10.0511 14.9015 11.2039 13.7847C11.9235 13.0876 12.643 12.3883 13.3591 11.6857C14.0223 11.0358 14.0844 10.3612 13.5384 9.8157C12.9913 9.26795 12.289 9.31621 11.6258 9.96162C10.1074 11.4399 8.59244 12.9226 7.08094 14.4065C6.85221 14.631 6.64761 14.8779 6.3683 15.0744C6.166 13.4636 6.16255 11.9203 7.41657 10.6878C9.81887 8.32622 12.2177 5.96235 14.6511 3.63103C16.5074 1.85308 19.3947 2.11349 20.8166 4.12828C21.0292 4.42909 21.0281 4.5997 20.7396 4.86909Z" fill="white"/>
</svg>
