<svg width="18" height="15" viewBox="0 0 18 15" fill="none" xmlns="http://www.w3.org/2000/svg">
<path d="M4.966 0H1.2215C0.547945 0 0 0.547945 0 1.2215V4.966C0 5.63955 0.547945 6.1875 1.2215 6.1875H4.966C5.63955 6.1875 6.1875 5.63955 6.1875 4.966V1.2215C6.1875 0.547945 5.63955 0 4.966 0Z" fill="white"/>
<path d="M4.966 8.15625H1.2215C0.547945 8.15625 0 8.7042 0 9.37775V13.1222C0 13.7958 0.547945 14.3438 1.2215 14.3438H4.966C5.63955 14.3438 6.1875 13.7958 6.1875 13.1222V9.37775C6.1875 8.7042 5.63955 8.15625 4.966 8.15625Z" fill="white"/>
<path d="M17.4375 2.8125H8.4375C8.12686 2.8125 7.875 2.56064 7.875 2.25C7.875 1.93936 8.12686 1.6875 8.4375 1.6875H17.4375C17.7481 1.6875 18 1.93936 18 2.25C18 2.56064 17.7481 2.8125 17.4375 2.8125Z" fill="white"/>
<path d="M14.3438 4.92188H8.4375C8.12686 4.92188 7.875 4.67002 7.875 4.35938C7.875 4.04873 8.12686 3.79688 8.4375 3.79688H14.3438C14.6544 3.79688 14.9062 4.04873 14.9062 4.35938C14.9062 4.67002 14.6544 4.92188 14.3438 4.92188Z" fill="white"/>
<path d="M17.4375 10.8281H8.4375C8.12686 10.8281 7.875 10.5763 7.875 10.2656C7.875 9.95498 8.12686 9.70312 8.4375 9.70312H17.4375C17.7481 9.70312 18 9.95498 18 10.2656C18 10.5763 17.7481 10.8281 17.4375 10.8281Z" fill="white"/>
<path d="M14.3438 13.0781H8.4375C8.12686 13.0781 7.875 12.8263 7.875 12.5156C7.875 12.205 8.12686 11.9531 8.4375 11.9531H14.3438C14.6544 11.9531 14.9062 12.205 14.9062 12.5156C14.9062 12.8263 14.6544 13.0781 14.3438 13.0781Z" fill="white"/>
</svg>
