<svg width="22" height="23" viewBox="0 0 22 23" fill="none" xmlns="http://www.w3.org/2000/svg">
<path d="M9.35727 2.30197C9.20559 2.29849 9.05748 2.34817 8.93858 2.44241C8.81969 2.53665 8.7375 2.66951 8.70627 2.81797L6.42627 13.493L5.20827 14.71L7.91027 17.41L9.43727 15.883C9.6151 15.7061 9.75615 15.4957 9.85227 15.264C9.94838 15.0323 9.99766 14.7838 9.99726 14.533V2.95297C9.99704 2.78219 9.92991 2.61829 9.81028 2.49641C9.69064 2.37453 9.52802 2.30537 9.35727 2.30197ZM6.49627 18.825L3.79427 16.124L3.15127 16.767L5.85227 19.469L6.49627 18.825ZM6.75027 2.40097C6.84471 1.95876 7.0506 1.54803 7.34841 1.20777C7.64622 0.867513 8.02606 0.60902 8.45186 0.456833C8.87766 0.304647 9.3353 0.263819 9.78131 0.338226C10.2273 0.412633 10.6469 0.599805 11.0003 0.881971C11.3535 0.599524 11.7731 0.412114 12.2192 0.337554C12.6653 0.262994 13.1231 0.303762 13.549 0.455983C13.9749 0.608204 14.3548 0.86682 14.6525 1.20725C14.9503 1.54768 15.1561 1.9586 15.2503 2.40097L17.4063 12.497L21.6763 16.767L16.1463 22.297L11.1473 17.298C11.0973 17.2473 11.0479 17.1953 10.9993 17.142C10.9513 17.1953 10.902 17.2473 10.8513 17.298L5.85227 22.298L0.322266 16.768L4.59227 12.497L6.75027 2.40097ZM13.2933 2.81797C13.2611 2.65886 13.1707 2.51749 13.0398 2.4215C12.9089 2.32551 12.7468 2.28181 12.5854 2.29894C12.424 2.31607 12.2748 2.3928 12.1669 2.51413C12.0591 2.63546 12.0004 2.79265 12.0023 2.95497V14.533C12.0023 15.04 12.2033 15.526 12.5623 15.883L14.0893 17.411L16.7893 14.71L15.5733 13.493L13.2933 2.81797ZM18.2043 16.124L15.5033 18.825L16.1463 19.469L18.8483 16.767L18.2043 16.124Z" fill="white" fill-opacity="0.6"/>
</svg>
