<svg width="18" height="17" viewBox="0 0 18 17" fill="none" xmlns="http://www.w3.org/2000/svg">
<path d="M17.1915 0.539947C16.9389 0.32199 16.6427 0.164131 16.3241 0.0776385C16.0054 -0.00885405 15.6721 -0.0218462 15.348 0.0395893L10.713 0.906721C10.0497 1.02984 9.44621 1.3797 9 1.89971C8.55413 1.37884 7.95056 1.02815 7.287 0.904404L2.652 0.0372729C2.32783 -0.0233323 1.99468 -0.00990032 1.6761 0.0766198C1.35753 0.16314 1.06129 0.320637 0.808336 0.537981C0.555379 0.755324 0.351872 1.02721 0.212195 1.33443C0.0725179 1.64165 8.00589e-05 1.9767 0 2.31591L0 15.3144L9 17L18 15.3144V2.31591C18 1.97695 17.9276 1.64213 17.7879 1.33521C17.6482 1.02829 17.4446 0.756781 17.1915 0.539947ZM8.25 15.2881L1.5 14.0264V2.31591C1.50009 2.20285 1.5243 2.0912 1.5709 1.98884C1.61751 1.88647 1.68538 1.79589 1.76972 1.7235C1.85406 1.6511 1.95281 1.59866 2.059 1.56987C2.16518 1.54107 2.27622 1.53664 2.38425 1.55688L7.0185 2.42401C7.36412 2.48875 7.6767 2.67632 7.90176 2.95402C8.12681 3.23173 8.25005 3.58194 8.25 3.94361V15.2881ZM16.5 14.0249L9.75 15.2881V3.94361C9.74995 3.58194 9.87319 3.23173 10.0982 2.95402C10.3233 2.67632 10.6359 2.48875 10.9815 2.42401L15.6157 1.55688C15.7238 1.53664 15.8348 1.54107 15.941 1.56987C16.0472 1.59866 16.1459 1.6511 16.2303 1.7235C16.3146 1.79589 16.3825 1.88647 16.4291 1.98884C16.4757 2.0912 16.4999 2.20285 16.5 2.31591V14.0249Z" fill="white"/>
</svg>
