<svg width="21" height="21" viewBox="0 0 21 21" fill="none" xmlns="http://www.w3.org/2000/svg">
<path d="M20.1843 2.42355V7.46961C20.1843 7.73728 20.078 7.99397 19.8888 8.18324C19.6995 8.3725 19.4429 8.47883 19.1753 8.47883H14.1302C13.8626 8.47883 13.606 8.3725 13.4168 8.18324C13.2275 7.99397 13.1212 7.73728 13.1212 7.46961C13.1212 7.20195 13.2275 6.94526 13.4168 6.75599C13.606 6.56673 13.8626 6.4604 14.1302 6.4604H17.0665C16.1643 4.90835 14.7699 3.702 13.1043 3.0327C11.4388 2.36341 9.59751 2.26948 7.87253 2.76582C6.14756 3.26215 4.63765 4.32034 3.5823 5.77254C2.52695 7.22473 1.98657 8.98779 2.04688 10.7821C2.10719 12.5764 2.76474 14.2991 3.91523 15.6772C5.06571 17.0552 6.64327 18.0095 8.39768 18.3889C10.1521 18.7682 11.9829 18.5508 13.5997 17.7711C15.2166 16.9915 16.5268 15.6942 17.3227 14.085C17.3811 13.9653 17.4626 13.8584 17.5624 13.7703C17.6623 13.6823 17.7786 13.6149 17.9047 13.572C18.0307 13.5291 18.164 13.5116 18.2968 13.5205C18.4297 13.5293 18.5594 13.5644 18.6787 13.6236C18.7979 13.6829 18.9042 13.7652 18.9915 13.8657C19.0788 13.9663 19.1453 14.0831 19.1873 14.2095C19.2292 14.3359 19.2457 14.4693 19.2359 14.6021C19.226 14.7349 19.19 14.8644 19.1299 14.9832C18.1539 16.9519 16.5621 18.5482 14.5963 19.5296C12.6306 20.511 10.3983 20.8239 8.23862 20.4206C6.07891 20.0174 4.10979 18.9202 2.6304 17.2956C1.151 15.6709 0.242181 13.6078 0.0419872 11.4195C-0.158206 9.23114 0.36117 7.03726 1.52122 5.17109C2.68127 3.30493 4.41859 1.86846 6.46927 1.0799C8.51996 0.291341 10.7719 0.193788 12.8831 0.802059C14.9943 1.41033 16.8493 2.69118 18.1663 4.45005V2.42355C18.1663 2.15589 18.2726 1.89919 18.4618 1.70992C18.651 1.52066 18.9077 1.41433 19.1753 1.41433C19.4429 1.41433 19.6995 1.52066 19.8888 1.70992C20.078 1.89919 20.1843 2.15589 20.1843 2.42355Z" fill="white"/>
</svg>
