<svg width="19" height="23" viewBox="0 0 19 23" fill="none" xmlns="http://www.w3.org/2000/svg">
<path d="M2.39762 22C2.12086 21.9989 1.84784 21.9359 1.5986 21.8156C1.29309 21.672 1.03462 21.4447 0.853269 21.16C0.671921 20.8753 0.575151 20.5449 0.574219 20.2073V2.79279C0.575554 2.55516 0.623853 2.32013 0.71634 2.10123C0.808827 1.88233 0.943676 1.68387 1.11313 1.51727C1.28259 1.35067 1.48331 1.21922 1.70375 1.13046C1.92419 1.04171 2.16 0.997413 2.39762 1.00012H16.739C17.2136 1.00281 17.668 1.19254 18.0036 1.52815C18.3393 1.86376 18.529 2.31817 18.5317 2.79279V20.2073C18.525 20.5317 18.4305 20.8482 18.258 21.1231C18.0856 21.398 17.8418 21.6209 17.5527 21.7681C17.2635 21.9153 16.9398 21.9813 16.6161 21.959C16.2924 21.9367 15.9809 21.8269 15.7146 21.6415L9.77319 17.1854C9.72959 17.1505 9.67539 17.1315 9.61953 17.1315C9.56368 17.1315 9.50948 17.1505 9.46588 17.1854L3.47323 21.6415C3.16224 21.8729 2.78527 21.9985 2.39762 22ZM2.39762 2.53669C2.3297 2.53669 2.26456 2.56367 2.21654 2.6117C2.16851 2.65973 2.14153 2.72487 2.14153 2.79279V20.2073C2.14117 20.2547 2.15451 20.3012 2.17996 20.3412C2.2054 20.3812 2.24186 20.4129 2.28494 20.4327C2.32415 20.4596 2.37058 20.4739 2.41811 20.4739C2.46565 20.4739 2.51207 20.4596 2.55128 20.4327L8.54393 15.9561C8.85554 15.7265 9.23246 15.6026 9.61953 15.6026C10.0066 15.6026 10.3835 15.7265 10.6951 15.9561L16.6366 20.4122C16.6758 20.4391 16.7222 20.4534 16.7697 20.4534C16.8173 20.4534 16.8637 20.4391 16.9029 20.4122C16.946 20.3925 16.9825 20.3607 17.0079 20.3207C17.0333 20.2807 17.0467 20.2342 17.0463 20.1868V2.79279C17.0471 2.75438 17.0392 2.71629 17.0233 2.68133C17.0073 2.64638 16.9837 2.61546 16.9542 2.59087C16.9247 2.56627 16.89 2.54863 16.8528 2.53926C16.8155 2.52988 16.7766 2.529 16.739 2.53669H2.39762Z" fill="white" stroke="white" stroke-width="0.8"/>
</svg>
