<svg width="25" height="26" viewBox="0 0 25 26" fill="none" xmlns="http://www.w3.org/2000/svg">
<path d="M25 24.029L18.4858 17.5148C20.1779 15.4453 21.0099 12.8045 20.8096 10.1388C20.6093 7.47303 19.3921 4.98625 17.4097 3.19279C15.4273 1.39934 12.8314 0.43644 10.159 0.503259C7.48658 0.570078 4.94207 1.6615 3.05179 3.55179C1.1615 5.44207 0.0700778 7.98658 0.00325877 10.659C-0.0635603 13.3314 0.899341 15.9273 2.69279 17.9097C4.48625 19.8921 6.97303 21.1093 9.63878 21.3096C12.3045 21.5099 14.9453 20.6779 17.0148 18.9858L23.529 25.5L25 24.029ZM10.4361 19.2583C8.79011 19.2583 7.18109 18.7702 5.8125 17.8558C4.44392 16.9413 3.37724 15.6416 2.74735 14.1209C2.11746 12.6002 1.95265 10.9269 2.27377 9.3125C2.59488 7.69815 3.3875 6.21527 4.55138 5.05138C5.71527 3.8875 7.19815 3.09488 8.8125 2.77377C10.4269 2.45265 12.1002 2.61746 13.6209 3.24735C15.1416 3.87724 16.4413 4.94392 17.3558 6.3125C18.2702 7.68109 18.7583 9.29011 18.7583 10.9361C18.7558 13.1425 17.8782 15.2579 16.3181 16.8181C14.7579 18.3782 12.6425 19.2558 10.4361 19.2583Z" fill="white"/>
</svg>
