<svg width="17" height="16" viewBox="0 0 17 16" fill="none" xmlns="http://www.w3.org/2000/svg">
<path d="M12.9057 9.77766C12.4017 9.77807 11.9053 9.90111 11.4594 10.1362C11.0136 10.3712 10.6316 10.7113 10.3465 11.1269L6.00738 9.16769C6.31557 8.42348 6.31677 7.58756 6.01072 6.84247L10.3438 4.87324C10.7664 5.48438 11.394 5.92383 12.1128 6.11188C12.8316 6.29992 13.594 6.22411 14.2617 5.89819C14.9294 5.57227 15.4582 5.01784 15.7521 4.33545C16.046 3.65306 16.0857 2.88793 15.8638 2.17883C15.6419 1.46974 15.1732 0.863651 14.5428 0.470511C13.9123 0.0773703 13.1618 -0.0767827 12.4274 0.0360138C11.693 0.14881 11.0234 0.521085 10.54 1.08531C10.0565 1.64954 9.79136 2.36834 9.79252 3.11134C9.79534 3.28719 9.81318 3.46249 9.84585 3.63531L5.23942 5.72853C4.79701 5.31403 4.24315 5.03779 3.64589 4.93375C3.04863 4.8297 2.43399 4.90239 1.87747 5.14287C1.32095 5.38335 0.846802 5.78115 0.513267 6.28741C0.179731 6.79367 0.00133954 7.38633 7.51439e-06 7.99258C-0.00132452 8.59883 0.174461 9.19227 0.505769 9.69999C0.837076 10.2077 1.30948 10.6076 1.86493 10.8505C2.42038 11.0934 3.0347 11.1688 3.63241 11.0674C4.23012 10.966 4.78519 10.6922 5.22942 10.2796L9.84785 12.3649C9.81577 12.5375 9.79815 12.7126 9.79518 12.8882C9.79505 13.5035 9.97742 14.1052 10.3192 14.6169C10.661 15.1286 11.1469 15.5275 11.7155 15.763C12.284 15.9986 12.9096 16.0603 13.5132 15.9403C14.1167 15.8202 14.6711 15.5239 15.1063 15.0888C15.5414 14.6536 15.8378 14.0992 15.9578 13.4956C16.0778 12.8921 16.0161 12.2664 15.7806 11.6979C15.545 11.1294 15.1461 10.6435 14.6344 10.3017C14.1227 9.9599 13.5211 9.77752 12.9057 9.77766ZM12.9057 1.33343C13.2574 1.3333 13.6012 1.43746 13.8936 1.63274C14.1861 1.82801 14.4141 2.10564 14.5487 2.4305C14.6834 2.75536 14.7187 3.11286 14.6502 3.45778C14.5817 3.8027 14.4124 4.11956 14.1638 4.36827C13.9151 4.61698 13.5984 4.78638 13.2535 4.85503C12.9086 4.92369 12.551 4.88852 12.2261 4.75397C11.9012 4.61943 11.6235 4.39155 11.4281 4.09916C11.2327 3.80677 11.1284 3.463 11.1284 3.11134C11.1288 2.64003 11.3161 2.18812 11.6493 1.85479C11.9825 1.52146 12.4344 1.33396 12.9057 1.33343ZM3.12887 9.77766C2.7772 9.77779 2.4334 9.67363 2.14093 9.47835C1.84847 9.28307 1.62049 9.00544 1.48582 8.68059C1.35115 8.35573 1.31585 7.99823 1.38437 7.6533C1.4529 7.30838 1.62218 6.99152 1.87079 6.74281C2.11941 6.4941 2.4362 6.32471 2.7811 6.25605C3.126 6.1874 3.48351 6.22257 3.80842 6.35711C4.13333 6.49166 4.41104 6.71954 4.60643 7.01193C4.80182 7.30432 4.90611 7.64808 4.90611 7.99975C4.90558 8.471 4.71818 8.92281 4.38502 9.2561C4.05186 9.58939 3.60012 9.77695 3.12887 9.77766ZM12.9057 14.6661C12.5541 14.6661 12.2103 14.5618 11.9179 14.3664C11.6256 14.1711 11.3977 13.8934 11.2631 13.5685C11.1286 13.2437 11.0933 12.8862 11.1619 12.5413C11.2305 12.1964 11.3999 11.8796 11.6485 11.631C11.8972 11.3823 12.214 11.213 12.5588 11.1444C12.9037 11.0758 13.2612 11.111 13.5861 11.2456C13.9109 11.3802 14.1886 11.608 14.384 11.9004C14.5793 12.1928 14.6836 12.5365 14.6836 12.8882C14.6832 13.3596 14.4958 13.8116 14.1625 14.1449C13.8291 14.4783 13.3771 14.6657 12.9057 14.6661Z" fill="white"/>
</svg>
