<svg width="14" height="14" viewBox="0 0 14 14" fill="none" xmlns="http://www.w3.org/2000/svg">
<path d="M11.266 8.53539C10.826 8.53574 10.3927 8.64316 10.0035 8.84836C9.61428 9.05356 9.28084 9.35039 9.03195 9.71322L5.24413 8.00292C5.51317 7.35326 5.51421 6.62355 5.24704 5.97313L9.02962 4.25409C9.39849 4.78758 9.94636 5.1712 10.5738 5.33535C11.2013 5.49951 11.8669 5.43333 12.4497 5.14882C13.0326 4.86431 13.4942 4.38031 13.7508 3.78462C14.0074 3.18894 14.0419 2.52101 13.8483 1.90201C13.6546 1.28301 13.2454 0.753922 12.6951 0.410731C12.1447 0.0675402 11.4896 -0.0670273 10.8485 0.0314382C10.2074 0.129904 9.62285 0.45488 9.20085 0.94742C8.77884 1.43996 8.54735 2.06744 8.54836 2.71604C8.55083 2.86955 8.5664 3.02257 8.59492 3.17344L4.57374 5.00071C4.18754 4.63888 3.70405 4.39773 3.18267 4.30691C2.6613 4.21608 2.12474 4.27953 1.63893 4.48946C1.15312 4.69939 0.739214 5.04665 0.448055 5.48858C0.156896 5.93052 0.00116935 6.44788 6.55967e-06 6.97711C-0.00115623 7.50633 0.152296 8.02437 0.44151 8.46759C0.730724 8.9108 1.1431 9.25988 1.62799 9.47194C2.11287 9.684 2.64914 9.7498 3.17091 9.66127C3.69268 9.57274 4.17722 9.33372 4.56501 8.97358L8.59666 10.7939C8.56866 10.9446 8.55328 11.0974 8.55069 11.2507C8.55057 11.7879 8.70977 12.3131 9.00816 12.7598C9.30654 13.2065 9.7307 13.5547 10.227 13.7603C10.7233 13.966 11.2694 14.0198 11.7963 13.915C12.3232 13.8102 12.8071 13.5516 13.187 13.1717C13.5669 12.7918 13.8255 12.3079 13.9303 11.781C14.0351 11.2541 13.9813 10.708 13.7756 10.2117C13.57 9.71539 13.2218 9.29123 12.7751 8.99285C12.3284 8.69447 11.8032 8.53527 11.266 8.53539ZM11.266 1.16401C11.573 1.1639 11.8731 1.25483 12.1284 1.42529C12.3837 1.59576 12.5827 1.83811 12.7003 2.1217C12.8179 2.40528 12.8487 2.71736 12.7888 3.01846C12.729 3.31956 12.5813 3.59616 12.3642 3.81327C12.1472 4.03039 11.8707 4.17826 11.5696 4.23819C11.2685 4.29812 10.9564 4.26742 10.6728 4.14997C10.3892 4.03252 10.1467 3.83359 9.97616 3.57835C9.8056 3.32311 9.71456 3.02302 9.71456 2.71604C9.71487 2.30461 9.8784 1.91011 10.1693 1.61914C10.4601 1.32816 10.8546 1.16448 11.266 1.16401ZM2.73134 8.53539C2.42435 8.5355 2.12423 8.44457 1.86892 8.27411C1.61362 8.10364 1.4146 7.86129 1.29704 7.5777C1.17948 7.29412 1.14867 6.98204 1.20849 6.68094C1.26831 6.37984 1.41607 6.10324 1.63311 5.88613C1.85014 5.66901 2.12668 5.52114 2.42776 5.46121C2.72884 5.40128 3.04093 5.43198 3.32455 5.54943C3.60818 5.66688 3.85061 5.86581 4.02117 6.12105C4.19174 6.37629 4.28278 6.67638 4.28278 6.98337C4.28231 7.39474 4.11873 7.78915 3.8279 8.08009C3.53706 8.37104 3.14272 8.53477 2.73134 8.53539ZM11.266 12.8027C10.959 12.8027 10.659 12.7117 10.4037 12.5412C10.1485 12.3706 9.94959 12.1282 9.83212 11.8446C9.71465 11.561 9.68391 11.249 9.7438 10.9479C9.80368 10.6468 9.9515 10.3703 10.1686 10.1533C10.3856 9.9362 10.6622 9.78838 10.9632 9.7285C11.2643 9.66861 11.5763 9.69935 11.8599 9.81682C12.1435 9.93428 12.3859 10.1332 12.5565 10.3884C12.727 10.6437 12.818 10.9437 12.818 11.2507C12.8177 11.6622 12.6541 12.0568 12.3631 12.3478C12.0721 12.6388 11.6775 12.8024 11.266 12.8027Z" fill="white"/>
</svg>
