<svg width="21" height="21" viewBox="0 0 21 21" fill="none" xmlns="http://www.w3.org/2000/svg">
<path d="M11.9596 5.2703V13.4982C11.9596 13.885 11.806 14.2559 11.5325 14.5294C11.259 14.8029 10.8881 14.9565 10.5013 14.9565C10.1145 14.9565 9.7436 14.8029 9.4701 14.5294C9.19661 14.2559 9.04297 13.885 9.04297 13.4982V5.2703L7.40818 6.90655C7.13434 7.18019 6.76302 7.33385 6.37589 7.33371C5.98876 7.33357 5.61755 7.17966 5.34391 6.90582C5.07026 6.63198 4.91661 6.26066 4.91675 5.87353C4.91688 5.48641 5.0708 5.11519 5.34464 4.84155L9.47026 0.71884C9.60538 0.582945 9.76603 0.475102 9.94297 0.401513C10.1199 0.327923 10.3097 0.290039 10.5013 0.290039C10.6929 0.290039 10.8827 0.327923 11.0596 0.401513C11.2366 0.475102 11.3972 0.582945 11.5323 0.71884L15.658 4.84301C15.7935 4.9786 15.9009 5.13955 15.9742 5.31667C16.0475 5.49379 16.0852 5.68361 16.0851 5.87529C16.0851 6.06698 16.0472 6.25677 15.9738 6.43384C15.9004 6.61091 15.7928 6.77178 15.6572 6.90728C15.5216 7.04277 15.3607 7.15023 15.1836 7.22352C15.0065 7.29682 14.8166 7.33451 14.625 7.33444C14.4333 7.33437 14.2435 7.29655 14.0664 7.22313C13.8893 7.14971 13.7285 7.04214 13.593 6.90655L11.9596 5.2703ZM4.66797 9.04155C5.05474 9.04155 5.42568 9.19519 5.69917 9.46868C5.97266 9.74218 6.1263 10.1131 6.1263 10.4999C6.1263 10.8867 5.97266 11.2576 5.69917 11.5311C5.42568 11.8046 5.05474 11.9582 4.66797 11.9582H3.20964V17.7915H17.793V11.9582H16.3346C15.9479 11.9582 15.5769 11.8046 15.3034 11.5311C15.0299 11.2576 14.8763 10.8867 14.8763 10.4999C14.8763 10.1131 15.0299 9.74218 15.3034 9.46868C15.5769 9.19519 15.9479 9.04155 16.3346 9.04155H17.793C18.5665 9.04155 19.3084 9.34884 19.8554 9.89582C20.4023 10.4428 20.7096 11.1847 20.7096 11.9582V17.7915C20.7096 18.5651 20.4023 19.307 19.8554 19.8539C19.3084 20.4009 18.5665 20.7082 17.793 20.7082H3.20964C2.43609 20.7082 1.69422 20.4009 1.14724 19.8539C0.60026 19.307 0.292969 18.5651 0.292969 17.7915V11.9582C0.292969 11.1847 0.60026 10.4428 1.14724 9.89582C1.69422 9.34884 2.43609 9.04155 3.20964 9.04155H4.66797Z" fill="white"/>
</svg>
