<svg width="32" height="33" viewBox="0 0 32 33" fill="none" xmlns="http://www.w3.org/2000/svg">
<path d="M29.5128 10.9128L29.5128 10.9127L29.5027 10.9111L21.6503 9.68224L18.075 1.88626C17.7161 1.05169 16.9198 0.5 16.0284 0.5C15.089 0.5 14.2867 1.04362 13.9244 1.88766L10.4048 9.68222L2.49784 10.911L2.49782 10.9109L2.48718 10.9128C1.62075 11.0667 0.906431 11.6832 0.623382 12.5807C0.341994 13.4131 0.546252 14.3987 1.19854 15.0249L6.92506 21.0688L5.60018 29.6578C5.60014 29.658 5.60011 29.6582 5.60008 29.6584C5.46124 30.5475 5.80158 31.4514 6.5101 31.9937C7.21438 32.6403 8.24078 32.606 8.94057 32.2331L8.94686 32.2298L8.95305 32.2263L16.0274 28.1938L23.0455 32.2254L23.0607 32.2342L23.0766 32.2419C23.8308 32.6072 24.7854 32.6326 25.5366 32.0014C26.2521 31.4599 26.5963 30.5514 26.4566 29.6578L26.4563 29.6557L25.0763 21.0674L30.8015 15.0249C31.4538 14.3987 31.658 13.413 31.3766 12.5806C31.0935 11.6832 30.3792 11.0667 29.5128 10.9128Z" fill="#FFF021"/>
<path d="M29.5128 10.9128L29.5128 10.9127L29.5027 10.9111L21.6503 9.68224L18.075 1.88626C17.7161 1.05169 16.9198 0.5 16.0284 0.5C15.089 0.5 14.2867 1.04362 13.9244 1.88766L10.4048 9.68222L2.49784 10.911L2.49782 10.9109L2.48718 10.9128C1.62075 11.0667 0.906431 11.6832 0.623382 12.5807C0.341994 13.4131 0.546252 14.3987 1.19854 15.0249L6.92506 21.0688L5.60018 29.6578C5.60014 29.658 5.60011 29.6582 5.60008 29.6584C5.46124 30.5475 5.80158 31.4514 6.5101 31.9937C7.21438 32.6403 8.24078 32.606 8.94057 32.2331L8.94686 32.2298L8.95305 32.2263L16.0274 28.1938L23.0455 32.2254L23.0607 32.2342L23.0766 32.2419C23.8308 32.6072 24.7854 32.6326 25.5366 32.0014C26.2521 31.4599 26.5963 30.5514 26.4566 29.6578L26.4563 29.6557L25.0763 21.0674L30.8015 15.0249C31.4538 14.3987 31.658 13.413 31.3766 12.5806C31.0935 11.6832 30.3792 11.0667 29.5128 10.9128Z" stroke="black"/>
<path d="M29.5128 10.9128L29.5128 10.9127L29.5027 10.9111L21.6503 9.68224L18.075 1.88626C17.7161 1.05169 16.9198 0.5 16.0284 0.5C15.089 0.5 14.2867 1.04362 13.9244 1.88766L10.4048 9.68222L2.49784 10.911L2.49782 10.9109L2.48718 10.9128C1.62075 11.0667 0.906431 11.6832 0.623382 12.5807C0.341994 13.4131 0.546252 14.3987 1.19854 15.0249L6.92506 21.0688L5.60018 29.6578C5.60014 29.658 5.60011 29.6582 5.60008 29.6584C5.46124 30.5475 5.80158 31.4514 6.5101 31.9937C7.21438 32.6403 8.24078 32.606 8.94057 32.2331L8.94686 32.2298L8.95305 32.2263L16.0274 28.1938L23.0455 32.2254L23.0607 32.2342L23.0766 32.2419C23.8308 32.6072 24.7854 32.6326 25.5366 32.0014C26.2521 31.4599 26.5963 30.5514 26.4566 29.6578L26.4563 29.6557L25.0763 21.0674L30.8015 15.0249C31.4538 14.3987 31.658 13.413 31.3766 12.5806C31.0935 11.6832 30.3792 11.0667 29.5128 10.9128Z" stroke="black" stroke-opacity="0.2"/>
</svg>
