<svg width="20" height="23" viewBox="0 0 20 23" fill="none" xmlns="http://www.w3.org/2000/svg">
<path d="M15 0H5C2.243 0 0 2.14954 0 4.79167V19.1667C0 20.2563 0.486 21.298 1.333 22.0235C1.745 22.3761 2.377 22.3445 2.745 21.9487C3.113 21.5548 3.078 20.9482 2.667 20.5955C2.243 20.2323 2 19.711 2 19.1667C2 18.1096 2.897 17.25 4 17.25H4.006L4.038 22.3742C4.038 22.9713 4.829 23.2271 5.207 22.7528L6.538 21.0824L7.869 22.7528C8.247 23.2271 9.038 22.9713 9.038 22.3742L9.006 17.25H18V18.2083C18 19.7934 16.654 21.0833 15 21.0833H12C11.447 21.0833 11 21.5117 11 22.0417C11 22.5716 11.447 23 12 23H15C17.757 23 20 20.8505 20 18.2083V4.79167C20 2.14954 17.757 0 15 0ZM2 15.848V4.79167C2 3.542 2.836 2.47729 4 2.0815V15.3333C3.272 15.3333 2.589 15.5212 2 15.848ZM6 15.3333V1.91667H15C16.654 1.91667 18 3.20658 18 4.79167V15.3333H6Z" fill="white"/>
</svg>
