<svg width="18" height="17" viewBox="0 0 18 17" fill="none" xmlns="http://www.w3.org/2000/svg">
<path opacity="0.5" d="M17.3571 15.6925H6.50571H6.58286C6.69693 15.6649 6.80141 15.6061 6.885 15.5225L16.7143 5.50688C16.9188 5.29922 17.081 5.05261 17.1917 4.78113C17.3024 4.50966 17.3593 4.21866 17.3593 3.92478C17.3593 3.6309 17.3024 3.3399 17.1917 3.06843C17.081 2.79696 16.9188 2.55034 16.7143 2.34268L15.0557 0.655978C14.8515 0.448027 14.609 0.283054 14.3421 0.170495C14.0751 0.0579363 13.789 0 13.5 0C13.211 0 12.9249 0.0579363 12.6579 0.170495C12.391 0.283054 12.1485 0.448027 11.9443 0.655978L1.79357 10.9789C1.70475 11.0702 1.64438 11.1862 1.62 11.3123L0.758571 15.6925H0.642857C0.472361 15.6925 0.308848 15.7614 0.188288 15.884C0.0677294 16.0066 0 16.1729 0 16.3462C0 16.5196 0.0677294 16.6859 0.188288 16.8085C0.308848 16.9311 0.472361 17 0.642857 17H17.3571C17.5276 17 17.6912 16.9311 17.8117 16.8085C17.9323 16.6859 18 16.5196 18 16.3462C18 16.1729 17.9323 16.0066 17.8117 15.884C17.6912 15.7614 17.5276 15.6925 17.3571 15.6925ZM12.8571 1.58432C13.0297 1.41495 13.2602 1.32029 13.5 1.32029C13.7398 1.32029 13.9703 1.41495 14.1429 1.58432L15.8014 3.27102C15.968 3.44651 16.061 3.68089 16.061 3.92478C16.061 4.16868 15.968 4.40305 15.8014 4.57854L14.4643 5.9449L11.5136 2.94414L12.8571 1.58432ZM2.115 15.4637L2.84143 11.7699L10.6071 3.86594L11.6293 4.90542L4.68643 11.9595C4.62617 12.0203 4.57835 12.0926 4.54571 12.1723C4.51308 12.2519 4.49627 12.3374 4.49627 12.4237C4.49627 12.51 4.51308 12.5954 4.54571 12.6751C4.57835 12.7548 4.62617 12.8271 4.68643 12.8878C4.74619 12.9491 4.81729 12.9978 4.89563 13.0309C4.97397 13.0641 5.05799 13.0812 5.14286 13.0812C5.22772 13.0812 5.31175 13.0641 5.39009 13.0309C5.46842 12.9978 5.53952 12.9491 5.59929 12.8878L12.5357 5.82723L13.5579 6.86671L6.10071 14.4503L2.115 15.4637Z" fill="#FFF021"/>
</svg>
