<svg width="15" height="20" viewBox="0 0 15 20" fill="none" xmlns="http://www.w3.org/2000/svg">
<path d="M7.49999 9.99999C8.4889 9.99999 9.45559 9.70674 10.2778 9.15733C11.1001 8.60793 11.7409 7.82704 12.1194 6.91341C12.4978 5.99978 12.5968 4.99445 12.4039 4.02454C12.211 3.05464 11.7348 2.16373 11.0355 1.46447C10.3363 0.765204 9.44534 0.289001 8.47544 0.0960757C7.50554 -0.0968501 6.50021 0.00216643 5.58658 0.380604C4.67295 0.759041 3.89206 1.3999 3.34265 2.22215C2.79324 3.04439 2.5 4.01109 2.5 4.99999C2.50132 6.32567 3.02853 7.59667 3.96593 8.53406C4.90332 9.47145 6.17432 9.99866 7.49999 9.99999ZM7.49999 1.66667C8.15926 1.66667 8.80373 1.86216 9.35189 2.22843C9.90005 2.5947 10.3273 3.1153 10.5796 3.72438C10.8319 4.33347 10.8979 5.00369 10.7693 5.65029C10.6407 6.2969 10.3232 6.89084 9.85701 7.35701C9.39084 7.82319 8.79689 8.14066 8.15029 8.26927C7.50369 8.39789 6.83347 8.33188 6.22438 8.07959C5.6153 7.8273 5.0947 7.40005 4.72843 6.85189C4.36216 6.30373 4.16666 5.65926 4.16666 4.99999C4.16666 4.11594 4.51785 3.2681 5.14297 2.64298C5.76809 2.01785 6.61594 1.66667 7.49999 1.66667Z" fill="white"/>
<path d="M7.49999 11.6666C5.51154 11.6688 3.60517 12.4597 2.19913 13.8658C0.793089 15.2718 0.00220571 17.1782 0 19.1666C0 19.3876 0.0877972 19.5996 0.244077 19.7559C0.400357 19.9121 0.612319 19.9999 0.833332 19.9999C1.05435 19.9999 1.26631 19.9121 1.42259 19.7559C1.57887 19.5996 1.66666 19.3876 1.66666 19.1666C1.66666 17.6195 2.28124 16.1358 3.3752 15.0418C4.46917 13.9479 5.95289 13.3333 7.49999 13.3333C9.04708 13.3333 10.5308 13.9479 11.6248 15.0418C12.7187 16.1358 13.3333 17.6195 13.3333 19.1666C13.3333 19.3876 13.4211 19.5996 13.5774 19.7559C13.7337 19.9121 13.9456 19.9999 14.1666 19.9999C14.3877 19.9999 14.5996 19.9121 14.7559 19.7559C14.9122 19.5996 15 19.3876 15 19.1666C14.9978 17.1782 14.2069 15.2718 12.8008 13.8658C11.3948 12.4597 9.48843 11.6688 7.49999 11.6666Z" fill="white"/>
</svg>
